<svg width="513" height="249" viewBox="0 0 513 249" fill="none" xmlns="http://www.w3.org/2000/svg">
<path d="M56.01 0.999999C71.5242 0.999999 85.2814 6.06319 95.1489 15.0554C105.007 24.0388 111.04 36.9938 111.04 52.91H113.04C113.04 36.4562 106.788 22.9562 96.4961 13.5771C86.2136 4.20681 71.9558 -1 56.01 -1V0.999999ZM111.04 52.91C111.04 68.8262 105.007 81.7812 95.1489 90.7646C85.2814 99.7568 71.5242 104.82 56.01 104.82V106.82C71.9558 106.82 86.2136 101.613 96.4961 92.2429C106.788 82.8638 113.04 69.3638 113.04 52.91H111.04ZM56.01 104.82C40.6275 104.82 26.9023 99.7579 17.0336 90.7646C7.17449 81.7801 1.11 68.8247 1.11 52.91H-0.89C-0.89 69.3653 5.39551 82.8649 15.6864 92.2429C25.9677 101.612 40.1925 106.82 56.01 106.82V104.82ZM1.11 52.91C1.11 36.9953 7.17449 24.0399 17.0336 15.0554C26.9023 6.06213 40.6275 0.999999 56.01 0.999999V-1C40.1925 -1 25.9677 4.20786 15.6864 13.5771C5.39551 22.9551 -0.89 36.4547 -0.89 52.91H1.11ZM56.01 4.84999C46.4463 4.84999 37.1923 8.56784 30.3423 16.4897C23.4994 24.4033 19.13 36.423 19.13 52.91H21.13C21.13 36.767 25.4056 25.2567 31.8552 17.7978C38.2977 10.3471 46.9837 6.84999 56.01 6.84999V4.84999ZM19.13 52.91C19.13 69.397 23.4994 81.4167 30.3423 89.3303C37.1923 97.2522 46.4463 100.97 56.01 100.97V98.97C46.9837 98.97 38.2977 95.4728 31.8552 88.0222C25.4056 80.5633 21.13 69.053 21.13 52.91H19.13ZM56.01 100.97C65.6368 100.97 74.9235 97.2535 81.7906 89.3312C88.6506 81.4172 93.02 69.3969 93.02 52.91H91.02C91.02 69.0531 86.7444 80.5628 80.2794 88.0213C73.8215 95.4715 65.1032 98.97 56.01 98.97V100.97ZM93.02 52.91C93.02 36.4231 88.6506 24.4028 81.7906 16.4888C74.9235 8.56645 65.6368 4.84999 56.01 4.84999V6.84999C65.1032 6.84999 73.8215 10.3485 80.2794 17.7987C86.7444 25.2572 91.02 36.7669 91.02 52.91H93.02ZM170.29 87.88L171.257 88.1345L169.373 87.4819L170.29 87.88ZM127.39 39.39V38.39H126.39V39.39H127.39ZM144.29 39.39H145.29V38.39H144.29V39.39ZM170.29 104H169.29V105H170.29V104ZM170.29 39.39V38.39H169.29V39.39H170.29ZM187.19 39.39H188.19V38.39H187.19V39.39ZM187.19 104V105H188.19V104H187.19ZM169.323 87.6255C167.744 93.6261 164.925 97.9064 161.326 100.69C157.726 103.475 153.271 104.82 148.32 104.82V106.82C153.64 106.82 158.545 105.37 162.549 102.272C166.555 99.1736 169.586 94.4839 171.257 88.1345L169.323 87.6255ZM148.32 104.82C140.61 104.82 135.707 101.99 132.683 97.5842C129.615 93.1127 128.39 86.8826 128.39 79.95H126.39C126.39 87.0574 127.635 93.7623 131.034 98.7158C134.479 103.735 140.041 106.82 148.32 106.82V104.82ZM128.39 79.95V39.39H126.39V79.95H128.39ZM127.39 40.39H144.29V38.39H127.39V40.39ZM143.29 39.39V82.68H145.29V39.39H143.29ZM143.29 82.68C143.29 88.1688 144.31 92.2664 146.423 95.007C148.578 97.8001 151.737 99.02 155.6 99.02V97.02C152.183 97.02 149.688 95.9649 148.007 93.7855C146.286 91.5536 145.29 87.9812 145.29 82.68H143.29ZM155.6 99.02C159.394 99.02 162.533 98.1706 165.128 96.3527C167.714 94.5406 169.665 91.8316 171.208 88.2781L169.373 87.4819C167.925 90.8184 166.171 93.1794 163.98 94.7148C161.797 96.2444 159.086 97.02 155.6 97.02V99.02ZM171.29 104V39.39H169.29V104H171.29ZM170.29 40.39H187.19V38.39H170.29V40.39ZM186.19 39.39V104H188.19V39.39H186.19ZM187.19 103H170.29V105H187.19V103ZM250.921 38.48H251.921V37.48H250.921V38.48ZM250.921 53.95L250.779 54.9399L251.921 55.103V53.95H250.921ZM225.961 58.89L225.041 58.4961L224.961 58.6847V58.89H225.961ZM225.961 104V105H226.961V104H225.961ZM209.061 104H208.061V105H209.061V104ZM209.061 39.39V38.39H208.061V39.39H209.061ZM225.961 39.39H226.961V38.39H225.961V39.39ZM225.961 58.89H224.961L226.926 59.1522L225.961 58.89ZM249.921 38.48V53.95H251.921V38.48H249.921ZM251.062 52.96C247.396 52.4363 243.315 52.04 239.741 52.04V54.04C243.186 54.04 247.165 54.4237 250.779 54.9399L251.062 52.96ZM239.741 52.04C236.504 52.04 233.411 52.3678 230.845 53.3214C228.256 54.2835 226.151 55.906 225.041 58.4961L226.88 59.2839C227.72 57.3239 229.32 56.0215 231.541 55.1961C233.785 54.3622 236.607 54.04 239.741 54.04V52.04ZM224.961 58.89V104H226.961V58.89H224.961ZM225.961 103H209.061V105H225.961V103ZM210.061 104V39.39H208.061V104H210.061ZM209.061 40.39H225.961V38.39H209.061V40.39ZM224.961 39.39V58.89H226.961V39.39H224.961ZM226.926 59.1522C228.519 53.2877 231.075 48.3823 234.915 44.9451C238.737 41.5243 243.916 39.48 250.921 39.48V37.48C243.496 37.48 237.82 39.6607 233.581 43.4549C229.361 47.2327 226.652 52.5323 224.996 58.6278L226.926 59.1522ZM25.85 168.37V167.37H24.85V168.37H25.85ZM25.85 214V215H26.85V214H25.85ZM7.52 214H6.52V215H7.52V214ZM7.52 111.69V110.69H6.52V111.69H7.52ZM25.85 161.48H24.85V162.48H25.85V161.48ZM25.85 118.58V117.58H24.85V118.58H25.85ZM24.85 168.37V214H26.85V168.37H24.85ZM25.85 213H7.52V215H25.85V213ZM8.52 214L8.52 111.69H6.52L6.52 214H8.52ZM7.52 112.69H37.03V110.69H7.52V112.69ZM37.03 112.69C49.592 112.69 61.3012 114.217 69.8356 118.421C74.0885 120.516 77.5211 123.26 79.8927 126.782C82.2598 130.298 83.61 134.649 83.61 140.03H85.61C85.61 134.296 84.1652 129.547 81.5517 125.665C78.9426 121.79 75.209 118.838 70.7194 116.627C61.7689 112.218 49.688 110.69 37.03 110.69V112.69ZM83.61 140.03C83.61 145.411 82.2598 149.762 79.8927 153.278C77.5211 156.8 74.0885 159.544 69.8356 161.639C61.3012 165.843 49.592 167.37 37.03 167.37V169.37C49.688 169.37 61.7689 167.842 70.7194 163.433C75.209 161.222 78.9426 158.27 81.5517 154.395C84.1652 150.513 85.61 145.764 85.61 140.03H83.61ZM37.03 167.37H25.85V169.37H37.03V167.37ZM25.85 162.48H36.77V160.48H25.85V162.48ZM36.77 162.48C45.3494 162.48 52.6477 161.177 57.8216 157.677C63.0746 154.123 65.98 148.416 65.98 140.03H63.98C63.98 147.894 61.2954 152.912 56.7009 156.021C52.0273 159.183 45.2206 160.48 36.77 160.48V162.48ZM65.98 140.03C65.98 131.644 63.0746 125.937 57.8216 122.383C52.6477 118.882 45.3494 117.58 36.77 117.58V119.58C45.2206 119.58 52.0273 120.877 56.7009 124.039C61.2954 127.148 63.98 132.166 63.98 140.03H65.98ZM36.77 117.58H25.85V119.58H36.77V117.58ZM24.85 118.58V161.48H26.85V118.58H24.85ZM132.219 148.48H133.219V147.48H132.219V148.48ZM132.219 163.95L132.078 164.94L133.219 165.103V163.95H132.219ZM107.259 168.89L106.34 168.496L106.259 168.685V168.89H107.259ZM107.259 214V215H108.259V214H107.259ZM90.3595 214H89.3595V215H90.3595V214ZM90.3595 149.39V148.39H89.3595V149.39H90.3595ZM107.259 149.39H108.259V148.39H107.259V149.39ZM107.259 168.89H106.259L108.224 169.152L107.259 168.89ZM131.219 148.48V163.95H133.219V148.48H131.219ZM132.361 162.96C128.695 162.436 124.614 162.04 121.039 162.04V164.04C124.485 164.04 128.464 164.424 132.078 164.94L132.361 162.96ZM121.039 162.04C117.803 162.04 114.71 162.368 112.144 163.321C109.555 164.283 107.45 165.906 106.34 168.496L108.179 169.284C109.019 167.324 110.619 166.022 112.84 165.196C115.084 164.362 117.906 164.04 121.039 164.04V162.04ZM106.259 168.89V214H108.259V168.89H106.259ZM107.259 213H90.3595V215H107.259V213ZM91.3595 214V149.39H89.3595V214H91.3595ZM90.3595 150.39H107.259V148.39H90.3595V150.39ZM106.259 149.39V168.89H108.259V149.39H106.259ZM108.224 169.152C109.818 163.288 112.374 158.382 116.214 154.945C120.035 151.524 125.215 149.48 132.219 149.48V147.48C124.794 147.48 119.119 149.661 114.88 153.455C110.66 157.233 107.951 162.532 106.294 168.628L108.224 169.152ZM207.68 181.89C207.68 191.518 204.169 199.736 198.184 205.548C192.198 211.361 183.682 214.82 173.58 214.82V216.82C184.148 216.82 193.181 213.194 199.578 206.982C205.976 200.769 209.68 192.022 209.68 181.89H207.68ZM173.58 214.82C163.411 214.82 154.862 211.36 148.861 205.547C142.861 199.735 139.35 191.518 139.35 181.89H137.35C137.35 192.022 141.054 200.77 147.469 206.983C153.882 213.195 162.948 216.82 173.58 216.82V214.82ZM139.35 181.89C139.35 172.262 142.861 164.045 148.861 158.233C154.862 152.42 163.411 148.96 173.58 148.96V146.96C162.948 146.96 153.882 150.585 147.469 156.797C141.054 163.01 137.35 171.758 137.35 181.89H139.35ZM173.58 148.96C183.682 148.96 192.198 152.419 198.184 158.232C204.169 164.044 207.68 172.262 207.68 181.89H209.68C209.68 171.758 205.976 163.011 199.578 156.798C193.181 150.586 184.148 146.96 173.58 146.96V148.96ZM191.61 181.89C191.61 173.353 190.202 165.854 187.263 160.45C184.301 155.001 179.743 151.64 173.58 151.64V153.64C178.857 153.64 182.814 156.454 185.506 161.405C188.223 166.402 189.61 173.527 189.61 181.89H191.61ZM173.58 151.64C167.417 151.64 162.859 155.001 159.896 160.45C156.958 165.854 155.55 173.353 155.55 181.89H157.55C157.55 173.527 158.937 166.402 161.653 161.405C164.346 156.454 168.303 153.64 173.58 153.64V151.64ZM155.55 181.89C155.55 190.427 156.958 197.926 159.896 203.33C162.859 208.779 167.417 212.14 173.58 212.14V210.14C168.303 210.14 164.346 207.326 161.653 202.375C158.937 197.378 157.55 190.253 157.55 181.89H155.55ZM173.58 212.14C179.743 212.14 184.301 208.779 187.263 203.33C190.202 197.926 191.61 190.427 191.61 181.89H189.61C189.61 190.253 188.223 197.378 185.506 202.375C182.814 207.326 178.857 210.14 173.58 210.14V212.14ZM225.184 149.39V148.39H224.184V149.39H225.184ZM242.084 149.39H243.084V148.39H242.084V149.39ZM208.804 248.32L207.923 248.794L208.383 249.648L209.251 249.214L208.804 248.32ZM207.894 246.63L207.318 245.812L206.592 246.323L207.013 247.104L207.894 246.63ZM224.884 122.48C224.884 117.425 228.873 113.34 233.894 113.34V111.34C227.735 111.34 222.884 116.355 222.884 122.48H224.884ZM233.894 113.34C238.931 113.34 243.034 117.442 243.034 122.48H245.034C245.034 116.338 240.036 111.34 233.894 111.34V113.34ZM243.034 122.48C243.034 127.501 238.948 131.49 233.894 131.49V133.49C240.019 133.49 245.034 128.639 245.034 122.48H243.034ZM233.894 131.49C228.856 131.49 224.884 127.518 224.884 122.48H222.884C222.884 128.622 227.751 133.49 233.894 133.49V131.49ZM226.184 212.31V149.39H224.184V212.31H226.184ZM225.184 150.39H242.084V148.39H225.184V150.39ZM241.084 149.39V209.84H243.084V149.39H241.084ZM241.084 209.84C241.084 219.851 238.673 226.275 233.498 231.653C228.244 237.113 220.089 241.56 208.356 247.426L209.251 249.214C220.919 243.38 229.404 238.792 234.939 233.04C240.554 227.205 243.084 220.239 243.084 209.84H241.084ZM209.684 247.846L208.774 246.156L207.013 247.104L207.923 248.794L209.684 247.846ZM208.469 247.448C214.363 243.303 218.868 239.972 221.838 234.899C224.815 229.812 226.184 223.1 226.184 212.31H224.184C224.184 222.97 222.822 229.258 220.112 233.889C217.394 238.533 213.255 241.637 207.318 245.812L208.469 247.448ZM277.164 169.54L276.177 169.381L275.99 170.54H277.164V169.54ZM303.684 169.54V170.54H304.697L304.684 169.527L303.684 169.54ZM319.674 191.38L319.991 190.431L319.045 190.116L318.727 191.06L319.674 191.38ZM321.624 192.03L322.588 192.296L322.84 191.381L321.941 191.081L321.624 192.03ZM321.234 174.48V175.48H322.258L322.234 174.457L321.234 174.48ZM276.644 174.48V173.48H275.724L275.648 174.397L276.644 174.48ZM292.114 151.12C287.958 151.12 284.424 152.554 281.697 155.633C279.003 158.675 277.168 163.24 276.177 169.381L278.152 169.699C279.111 163.75 280.851 159.605 283.194 156.959C285.504 154.351 288.471 153.12 292.114 153.12V151.12ZM277.164 170.54H303.684V168.54H277.164V170.54ZM304.684 169.527C304.618 164.326 303.799 159.761 301.829 156.466C299.812 153.092 296.626 151.12 292.114 151.12V153.12C295.923 153.12 298.457 154.723 300.112 157.492C301.815 160.339 302.62 164.484 302.684 169.553L304.684 169.527ZM319.358 192.329L321.308 192.979L321.941 191.081L319.991 190.431L319.358 192.329ZM320.66 191.764C318.425 199.874 314.847 205.613 310.134 209.331C305.425 213.045 299.484 214.82 292.374 214.82V216.82C299.825 216.82 306.234 214.955 311.372 210.901C316.507 206.852 320.273 200.696 322.588 192.296L320.66 191.764ZM292.374 214.82C282.658 214.82 274.471 211.553 268.718 205.878C262.966 200.205 259.574 192.054 259.574 182.15H257.574C257.574 192.526 261.138 201.21 267.313 207.302C273.487 213.392 282.201 216.82 292.374 216.82V214.82ZM259.574 182.15C259.574 163.077 273.942 148.96 292.764 148.96V146.96C272.847 146.96 257.574 161.963 257.574 182.15H259.574ZM292.764 148.96C300.366 148.96 307.138 151.271 312.043 155.585C316.935 159.887 320.046 166.244 320.235 174.503L322.234 174.457C322.033 165.686 318.709 158.783 313.363 154.083C308.031 149.394 300.763 146.96 292.764 146.96V148.96ZM321.234 173.48H276.644V175.48H321.234V173.48ZM275.648 174.397C275.514 176.006 275.514 177.609 275.514 179.55H277.514C277.514 177.591 277.515 176.074 277.641 174.563L275.648 174.397ZM275.514 179.55C275.514 186.828 277.132 193.85 280.903 199.082C284.707 204.36 290.638 207.72 299.004 207.72V205.72C291.251 205.72 285.936 202.645 282.526 197.913C279.082 193.135 277.514 186.572 277.514 179.55H275.514ZM299.004 207.72C303.926 207.72 308.427 206.437 312.164 203.763C315.901 201.089 318.81 197.068 320.622 191.7L318.727 191.06C317.029 196.092 314.347 199.741 311 202.137C307.651 204.533 303.573 205.72 299.004 205.72V207.72ZM392.642 190.99L392.958 190.041L392.029 189.732L391.7 190.654L392.642 190.99ZM394.592 191.64L395.564 191.875L395.78 190.982L394.908 190.691L394.592 191.64ZM384.842 166.72C381.997 166.72 380.281 165.843 379.069 164.604C377.803 163.308 377.014 161.551 376.174 159.591C375.365 157.703 374.497 155.594 373.04 153.994C371.52 152.324 369.41 151.25 366.252 151.25V153.25C368.879 153.25 370.441 154.11 371.562 155.34C372.745 156.641 373.487 158.399 374.335 160.379C375.153 162.286 376.07 164.397 377.639 166.002C379.263 167.663 381.512 168.72 384.842 168.72V166.72ZM366.252 151.25C360.927 151.25 356.804 154.325 354.062 159.026C351.332 163.707 349.912 170.07 349.912 176.95H351.912C351.912 170.31 353.287 164.323 355.789 160.034C358.28 155.765 361.827 153.25 366.252 153.25V151.25ZM349.912 176.95C349.912 185.843 351.753 193.511 355.55 198.986C359.379 204.508 365.148 207.72 372.752 207.72V205.72C365.796 205.72 360.645 202.822 357.194 197.846C353.711 192.824 351.912 185.607 351.912 176.95H349.912ZM372.752 207.72C377.032 207.72 381.21 206.563 384.847 203.904C388.483 201.245 391.515 197.133 393.584 191.326L391.7 190.654C389.739 196.157 386.921 199.91 383.667 202.289C380.414 204.667 376.662 205.72 372.752 205.72V207.72ZM392.326 191.939L394.276 192.589L394.908 190.691L392.958 190.041L392.326 191.939ZM393.62 191.405C391.637 199.592 388.374 205.412 383.738 209.195C379.109 212.973 372.986 214.82 365.082 214.82V216.82C373.298 216.82 379.915 214.897 385.003 210.745C390.085 206.598 393.517 200.328 395.564 191.875L393.62 191.405ZM365.082 214.82C356.167 214.82 348.37 211.568 342.802 205.89C337.235 200.213 333.842 192.055 333.842 182.15H331.842C331.842 192.525 335.404 201.202 341.374 207.29C347.344 213.377 355.667 216.82 365.082 216.82V214.82ZM333.842 182.15C333.842 170.622 338.483 162.36 345.155 156.96C351.855 151.537 360.657 148.96 368.982 148.96V146.96C360.277 146.96 351.009 149.648 343.897 155.405C336.756 161.185 331.842 170.018 331.842 182.15H333.842ZM368.982 148.96C375.379 148.96 381.065 150.114 385.112 152.122C389.177 154.139 391.382 156.891 391.382 160.05H393.382C393.382 155.799 390.387 152.507 386.001 150.33C381.599 148.146 375.585 146.96 368.982 146.96V148.96ZM391.382 160.05C391.382 163.81 388.557 166.72 384.842 166.72V168.72C389.707 168.72 393.382 164.87 393.382 160.05H391.382ZM399.534 157.19H398.534V158.19H399.534V157.19ZM399.534 149.39V148.39H398.534V149.39H399.534ZM412.404 149.39V150.39H413.404V149.39H412.404ZM412.404 137.95L411.815 137.142L411.404 137.441V137.95H412.404ZM429.174 125.73H430.174V123.764L428.585 124.922L429.174 125.73ZM429.174 149.39H428.174V150.39H429.174V149.39ZM452.704 149.39H453.704V148.39H452.704V149.39ZM452.704 157.19V158.19H453.704V157.19H452.704ZM429.174 157.19V156.19H428.174V157.19H429.174ZM451.664 200.35L452.201 199.506L451.41 199.003L450.857 199.759L451.664 200.35ZM453.094 201.26L453.988 201.707L454.392 200.901L453.631 200.416L453.094 201.26ZM412.404 157.19H413.404V156.19H412.404V157.19ZM400.534 157.19V149.39H398.534V157.19H400.534ZM399.534 150.39H412.404V148.39H399.534V150.39ZM413.404 149.39V137.95H411.404V149.39H413.404ZM412.993 138.758L429.763 126.538L428.585 124.922L411.815 137.142L412.993 138.758ZM428.174 125.73V149.39H430.174V125.73H428.174ZM429.174 150.39H452.704V148.39H429.174V150.39ZM451.704 149.39V157.19H453.704V149.39H451.704ZM452.704 156.19H429.174V158.19H452.704V156.19ZM428.174 157.19V197.49H430.174V157.19H428.174ZM428.174 197.49C428.174 201.501 429.005 204.491 430.786 206.477C432.588 208.488 435.187 209.28 438.274 209.28V207.28C435.511 207.28 433.56 206.577 432.275 205.143C430.968 203.684 430.174 201.279 430.174 197.49H428.174ZM438.274 209.28C443.753 209.28 448.443 206.445 452.471 200.941L450.857 199.759C447.085 204.915 442.935 207.28 438.274 207.28V209.28ZM451.127 201.194L452.557 202.104L453.631 200.416L452.201 199.506L451.127 201.194ZM452.2 200.813C449.911 205.39 447.149 208.879 443.736 211.226C440.333 213.567 436.214 214.82 431.124 214.82V216.82C436.564 216.82 441.09 215.473 444.869 212.874C448.639 210.281 451.597 206.49 453.988 201.707L452.2 200.813ZM431.124 214.82C425.254 214.82 420.875 213.604 417.957 210.909C415.056 208.23 413.404 203.904 413.404 197.23H411.404C411.404 204.206 413.132 209.175 416.601 212.378C420.053 215.566 425.034 216.82 431.124 216.82V214.82ZM413.404 197.23V157.19H411.404V197.23H413.404ZM412.404 156.19H399.534V158.19H412.404V156.19ZM485.278 188.52L485.555 187.559L485.543 187.556L485.531 187.553L485.278 188.52ZM479.818 187.09L480.071 186.123L480.069 186.122L479.818 187.09ZM485.928 172.4L486.181 171.433L486.18 171.432L485.928 172.4ZM491.388 173.83L491.135 174.797L491.137 174.798L491.388 173.83ZM485.538 214.82C479.429 214.82 473.154 213.449 468.442 211.045C463.688 208.621 460.798 205.308 460.798 201.52H458.798C458.798 206.442 462.538 210.279 467.534 212.827C472.572 215.396 479.167 216.82 485.538 216.82V214.82ZM460.798 201.52C460.798 199.6 461.435 198.01 462.513 196.904C463.587 195.803 465.17 195.11 467.208 195.11V193.11C464.696 193.11 462.574 193.977 461.081 195.508C459.591 197.035 458.798 199.15 458.798 201.52H460.798ZM467.208 195.11C469.686 195.11 471.149 196.026 472.234 197.393C473.391 198.85 474.119 200.806 475.026 203.006C475.902 205.13 476.932 207.437 478.719 209.192C480.553 210.994 483.098 212.14 486.838 212.14V210.14C483.558 210.14 481.537 209.157 480.121 207.766C478.658 206.328 477.755 204.378 476.875 202.244C476.027 200.186 475.179 197.885 473.801 196.149C472.351 194.323 470.32 193.11 467.208 193.11V195.11ZM486.838 212.14C490.608 212.14 494.111 211.301 496.702 209.509C499.334 207.688 500.968 204.916 500.968 201.26H498.968C498.968 204.234 497.678 206.402 495.564 207.864C493.41 209.354 490.348 210.14 486.838 210.14V212.14ZM500.968 201.26C500.968 197.869 499.505 195.098 496.824 192.856C494.181 190.645 490.354 188.939 485.555 187.559L485.002 189.481C489.693 190.831 493.21 192.44 495.54 194.389C497.832 196.307 498.968 198.541 498.968 201.26H500.968ZM485.531 187.553L480.071 186.123L479.565 188.057L485.025 189.487L485.531 187.553ZM480.069 186.122C469.766 183.451 462.358 176.955 462.358 167.2H460.358C460.358 178.245 468.81 185.269 479.567 188.058L480.069 186.122ZM462.358 167.2C462.358 161.423 464.925 156.773 469.238 153.537C473.575 150.285 479.719 148.44 486.838 148.44V146.44C479.397 146.44 472.801 148.365 468.038 151.938C463.252 155.527 460.358 160.757 460.358 167.2H462.358ZM486.838 148.44C492.199 148.44 497.742 149.4 501.906 151.232C506.125 153.088 508.588 155.664 508.588 158.75H510.588C510.588 154.426 507.136 151.347 502.711 149.401C498.23 147.43 492.397 146.44 486.838 146.44V148.44ZM508.588 158.75C508.588 160.837 507.995 162.351 507.047 163.339C506.103 164.321 504.696 164.9 502.828 164.9V166.9C505.12 166.9 507.093 166.179 508.49 164.724C509.882 163.274 510.588 161.213 510.588 158.75H508.588ZM502.828 164.9C500.392 164.9 499.052 164.128 498.112 163.049C497.089 161.877 496.493 160.316 495.664 158.47C494.868 156.698 493.884 154.753 492.07 153.278C490.23 151.782 487.656 150.86 483.848 150.86V152.86C487.32 152.86 489.41 153.693 490.808 154.83C492.232 155.987 493.059 157.552 493.84 159.29C494.587 160.954 495.331 162.903 496.604 164.363C497.959 165.917 499.869 166.9 502.828 166.9V164.9ZM483.848 150.86C480.488 150.86 477.494 151.785 475.317 153.495C473.121 155.219 471.798 157.713 471.798 160.7H473.798C473.798 158.357 474.815 156.431 476.552 155.068C478.307 153.69 480.838 152.86 483.848 152.86V150.86ZM471.798 160.7C471.798 163.592 472.659 166.146 474.92 168.298C477.132 170.404 480.607 172.051 485.677 173.368L486.18 171.432C481.239 170.149 478.149 168.611 476.299 166.849C474.497 165.134 473.798 163.138 473.798 160.7H471.798ZM485.675 173.367L491.135 174.797L491.641 172.863L486.181 171.433L485.675 173.367ZM491.137 174.798C497.827 176.535 502.834 178.851 506.164 182.058C509.456 185.227 511.188 189.343 511.188 194.89H513.188C513.188 188.867 511.281 184.208 507.552 180.617C503.862 177.064 498.469 174.635 491.639 172.862L491.137 174.798ZM511.188 194.89C511.188 201.348 508.099 206.293 503.355 209.658C498.584 213.041 492.135 214.82 485.538 214.82V216.82C492.462 216.82 499.338 214.959 504.512 211.289C509.712 207.602 513.188 202.082 513.188 194.89H511.188Z" fill="black" fill-opacity="0.5"/>
</svg>
