<svg width="523" height="216" viewBox="0 0 523 216" fill="none" xmlns="http://www.w3.org/2000/svg">
<path d="M56.01 0.999999C71.5242 0.999999 85.2814 6.06319 95.1489 15.0554C105.007 24.0388 111.04 36.9938 111.04 52.91H113.04C113.04 36.4562 106.788 22.9562 96.4961 13.5771C86.2136 4.20681 71.9558 -1 56.01 -1V0.999999ZM111.04 52.91C111.04 68.8262 105.007 81.7812 95.1489 90.7646C85.2814 99.7568 71.5242 104.82 56.01 104.82V106.82C71.9558 106.82 86.2136 101.613 96.4961 92.2429C106.788 82.8638 113.04 69.3638 113.04 52.91H111.04ZM56.01 104.82C40.6275 104.82 26.9023 99.7579 17.0336 90.7646C7.17449 81.7801 1.11 68.8247 1.11 52.91H-0.89C-0.89 69.3653 5.39551 82.8649 15.6864 92.2429C25.9677 101.612 40.1925 106.82 56.01 106.82V104.82ZM1.11 52.91C1.11 36.9953 7.17449 24.0399 17.0336 15.0554C26.9023 6.06213 40.6275 0.999999 56.01 0.999999V-1C40.1925 -1 25.9677 4.20786 15.6864 13.5771C5.39551 22.9551 -0.89 36.4547 -0.89 52.91H1.11ZM56.01 4.84999C46.4463 4.84999 37.1923 8.56784 30.3423 16.4897C23.4994 24.4033 19.13 36.423 19.13 52.91H21.13C21.13 36.767 25.4056 25.2567 31.8552 17.7978C38.2977 10.3471 46.9837 6.84999 56.01 6.84999V4.84999ZM19.13 52.91C19.13 69.397 23.4994 81.4167 30.3423 89.3303C37.1923 97.2522 46.4463 100.97 56.01 100.97V98.97C46.9837 98.97 38.2977 95.4728 31.8552 88.0222C25.4056 80.5633 21.13 69.053 21.13 52.91H19.13ZM56.01 100.97C65.6368 100.97 74.9235 97.2535 81.7906 89.3312C88.6506 81.4172 93.02 69.3969 93.02 52.91H91.02C91.02 69.0531 86.7444 80.5628 80.2794 88.0213C73.8215 95.4715 65.1032 98.97 56.01 98.97V100.97ZM93.02 52.91C93.02 36.4231 88.6506 24.4028 81.7906 16.4888C74.9235 8.56645 65.6368 4.84999 56.01 4.84999V6.84999C65.1032 6.84999 73.8215 10.3485 80.2794 17.7987C86.7444 25.2572 91.02 36.7669 91.02 52.91H93.02ZM170.29 87.88L171.257 88.1345L169.373 87.4819L170.29 87.88ZM127.39 39.39V38.39H126.39V39.39H127.39ZM144.29 39.39H145.29V38.39H144.29V39.39ZM170.29 104H169.29V105H170.29V104ZM170.29 39.39V38.39H169.29V39.39H170.29ZM187.19 39.39H188.19V38.39H187.19V39.39ZM187.19 104V105H188.19V104H187.19ZM169.323 87.6255C167.744 93.6261 164.925 97.9064 161.326 100.69C157.726 103.475 153.271 104.82 148.32 104.82V106.82C153.64 106.82 158.545 105.37 162.549 102.272C166.555 99.1736 169.586 94.4839 171.257 88.1345L169.323 87.6255ZM148.32 104.82C140.61 104.82 135.707 101.99 132.683 97.5842C129.615 93.1127 128.39 86.8826 128.39 79.95H126.39C126.39 87.0574 127.635 93.7623 131.034 98.7158C134.479 103.735 140.041 106.82 148.32 106.82V104.82ZM128.39 79.95V39.39H126.39V79.95H128.39ZM127.39 40.39H144.29V38.39H127.39V40.39ZM143.29 39.39V82.68H145.29V39.39H143.29ZM143.29 82.68C143.29 88.1688 144.31 92.2664 146.423 95.007C148.578 97.8001 151.737 99.02 155.6 99.02V97.02C152.183 97.02 149.688 95.9649 148.007 93.7855C146.286 91.5536 145.29 87.9812 145.29 82.68H143.29ZM155.6 99.02C159.394 99.02 162.533 98.1706 165.128 96.3527C167.714 94.5406 169.665 91.8316 171.208 88.2781L169.373 87.4819C167.925 90.8184 166.171 93.1794 163.98 94.7148C161.797 96.2444 159.086 97.02 155.6 97.02V99.02ZM171.29 104V39.39H169.29V104H171.29ZM170.29 40.39H187.19V38.39H170.29V40.39ZM186.19 39.39V104H188.19V39.39H186.19ZM187.19 103H170.29V105H187.19V103ZM250.921 38.48H251.921V37.48H250.921V38.48ZM250.921 53.95L250.779 54.9399L251.921 55.103V53.95H250.921ZM225.961 58.89L225.041 58.4961L224.961 58.6847V58.89H225.961ZM225.961 104V105H226.961V104H225.961ZM209.061 104H208.061V105H209.061V104ZM209.061 39.39V38.39H208.061V39.39H209.061ZM225.961 39.39H226.961V38.39H225.961V39.39ZM225.961 58.89H224.961L226.926 59.1522L225.961 58.89ZM249.921 38.48V53.95H251.921V38.48H249.921ZM251.062 52.96C247.396 52.4363 243.315 52.04 239.741 52.04V54.04C243.186 54.04 247.165 54.4237 250.779 54.9399L251.062 52.96ZM239.741 52.04C236.504 52.04 233.411 52.3678 230.845 53.3214C228.256 54.2835 226.151 55.906 225.041 58.4961L226.88 59.2839C227.72 57.3239 229.32 56.0215 231.541 55.1961C233.785 54.3622 236.607 54.04 239.741 54.04V52.04ZM224.961 58.89V104H226.961V58.89H224.961ZM225.961 103H209.061V105H225.961V103ZM210.061 104V39.39H208.061V104H210.061ZM209.061 40.39H225.961V38.39H209.061V40.39ZM224.961 39.39V58.89H226.961V39.39H224.961ZM226.926 59.1522C228.519 53.2877 231.075 48.3823 234.915 44.9451C238.737 41.5243 243.916 39.48 250.921 39.48V37.48C243.496 37.48 237.82 39.6607 233.581 43.4549C229.361 47.2327 226.652 52.5323 224.996 58.6278L226.926 59.1522ZM40.15 170.32L40.4857 169.378L40.4848 169.378L40.15 170.32ZM30.27 166.81L29.9299 167.75L29.9352 167.752L30.27 166.81ZM69.92 116.89H70.92V116.276L70.3729 115.998L69.92 116.89ZM69.92 143.15V144.15H70.92V143.15H69.92ZM68.23 143.15L67.2671 143.42L67.4718 144.15H68.23V143.15ZM37.03 150.04L36.6759 150.975L36.6847 150.979L36.6937 150.982L37.03 150.04ZM47.95 153.94L48.294 153.001L48.2863 152.998L47.95 153.94ZM4.4 207.89H3.4V208.474L3.90916 208.761L4.4 207.89ZM4.4 179.03V178.03H3.4V179.03H4.4ZM5.96 179.03L6.9258 178.771L6.72695 178.03H5.96V179.03ZM62.08 191.51C62.08 185.768 60.0111 181.377 56.2206 177.844C52.4764 174.353 47.0862 171.731 40.4857 169.378L39.8143 171.262C46.3438 173.589 51.4186 176.102 54.8569 179.306C58.2489 182.468 60.08 186.332 60.08 191.51H62.08ZM40.4848 169.378L30.6048 165.868L29.9352 167.752L39.8152 171.262L40.4848 169.378ZM30.6101 165.87C21.5643 162.598 15.4723 158.367 11.6397 153.455C7.81667 148.555 6.18 142.899 6.18 136.65H4.18C4.18 143.271 5.92333 149.38 10.0628 154.685C14.1927 159.978 20.6457 164.392 29.9299 167.75L30.6101 165.87ZM6.18 136.65C6.18 128.473 9.81487 122.103 15.7798 117.746C21.7737 113.369 30.1627 111 39.63 111L39.63 109C29.8573 109 21.0213 111.441 14.6002 116.131C8.15013 120.842 4.18 127.797 4.18 136.65H6.18ZM39.63 111C50.9185 111 61.4226 113.695 69.4671 117.782L70.3729 115.998C62.0374 111.765 51.2215 109 39.63 109L39.63 111ZM68.92 116.89V143.15H70.92V116.89H68.92ZM69.92 142.15H68.23V144.15H69.92V142.15ZM69.1929 142.88C66.7619 134.207 63.2516 127.233 58.3697 122.418C53.461 117.577 47.2248 114.98 39.5 114.98V116.98C46.7252 116.98 52.449 119.388 56.9653 123.842C61.5084 128.322 64.8881 134.933 67.2671 143.42L69.1929 142.88ZM39.5 114.98C32.9336 114.98 27.7521 116.437 24.1882 119.149C20.5899 121.887 18.74 125.832 18.74 130.54H20.74C20.74 126.408 22.3351 123.073 25.3993 120.741C28.4979 118.383 33.1964 116.98 39.5 116.98V114.98ZM18.74 130.54C18.74 134.686 19.766 138.531 22.5886 141.994C25.3901 145.432 29.8913 148.406 36.6759 150.975L37.3841 149.105C30.7787 146.604 26.6349 143.793 24.1389 140.731C21.664 137.694 20.74 134.324 20.74 130.54H18.74ZM36.6937 150.982L47.6137 154.882L48.2863 152.998L37.3663 149.098L36.6937 150.982ZM47.606 154.879C54.1719 157.284 61.2311 160.159 66.6542 164.792C72.028 169.382 75.81 175.711 75.81 185.14H77.81C77.81 175.069 73.727 168.203 67.9533 163.271C62.2289 158.381 54.8581 155.406 48.294 153.001L47.606 154.879ZM75.81 185.14C75.81 194.898 71.7352 202.27 65.0502 207.233C58.3316 212.221 48.9087 214.82 38.2 214.82V216.82C49.2013 216.82 59.0834 214.154 66.2423 208.839C73.4348 203.5 77.81 195.532 77.81 185.14H75.81ZM38.2 214.82C25.9799 214.82 13.9382 212.116 4.89084 207.019L3.90916 208.761C13.3218 214.064 25.7201 216.82 38.2 216.82V214.82ZM5.4 207.89L5.4 179.03H3.4L3.4 207.89H5.4ZM4.4 180.03H5.96V178.03H4.4V180.03ZM4.9942 179.289C7.61502 189.052 11.2813 196.907 16.5356 202.33C21.8234 207.786 28.6538 210.71 37.42 210.71V208.71C29.1562 208.71 22.8566 205.979 17.9719 200.938C13.0537 195.863 9.50498 188.378 6.9258 178.771L4.9942 179.289ZM37.42 210.71C45.0588 210.71 51.2243 209.266 55.5009 206.093C59.8313 202.88 62.08 198.004 62.08 191.51H60.08C60.08 197.496 58.0387 201.72 54.3092 204.487C50.5257 207.294 44.8612 208.71 37.42 208.71V210.71ZM108.951 169.54L107.964 169.381L107.777 170.54H108.951V169.54ZM135.471 169.54V170.54H136.484L136.471 169.527L135.471 169.54ZM151.461 191.38L151.778 190.431L150.833 190.116L150.514 191.06L151.461 191.38ZM153.411 192.03L154.376 192.296L154.628 191.381L153.728 191.081L153.411 192.03ZM153.021 174.48V175.48H154.045L154.021 174.457L153.021 174.48ZM108.431 174.48V173.48H107.511L107.435 174.397L108.431 174.48ZM123.901 151.12C119.745 151.12 116.212 152.554 113.484 155.633C110.79 158.675 108.955 163.24 107.964 169.381L109.939 169.699C110.898 163.75 112.638 159.605 114.981 156.959C117.291 154.351 120.258 153.12 123.901 153.12V151.12ZM108.951 170.54H135.471V168.54H108.951V170.54ZM136.471 169.527C136.406 164.326 135.586 159.761 133.616 156.466C131.599 153.092 128.413 151.12 123.901 151.12V153.12C127.71 153.12 130.244 154.723 131.899 157.492C133.602 160.339 134.407 164.484 134.472 169.553L136.471 169.527ZM151.145 192.329L153.095 192.979L153.728 191.081L151.778 190.431L151.145 192.329ZM152.447 191.764C150.213 199.874 146.634 205.613 141.921 209.331C137.212 213.045 131.271 214.82 124.161 214.82V216.82C131.612 216.82 138.021 214.955 143.16 210.901C148.294 206.852 152.06 200.696 154.376 192.296L152.447 191.764ZM124.161 214.82C114.445 214.82 106.258 211.553 100.505 205.878C94.7533 200.205 91.3615 192.054 91.3615 182.15H89.3615C89.3615 192.526 92.9247 201.21 99.1005 207.302C105.274 213.392 113.988 216.82 124.161 216.82V214.82ZM91.3615 182.15C91.3615 163.077 105.729 148.96 124.551 148.96V146.96C104.634 146.96 89.3615 161.963 89.3615 182.15H91.3615ZM124.551 148.96C132.153 148.96 138.925 151.271 143.83 155.585C148.722 159.887 151.833 166.244 152.022 174.503L154.021 174.457C153.82 165.686 150.496 158.783 145.151 154.083C139.818 149.394 132.55 146.96 124.551 146.96V148.96ZM153.021 173.48H108.431V175.48H153.021V173.48ZM107.435 174.397C107.301 176.006 107.301 177.609 107.301 179.55H109.301C109.301 177.591 109.302 176.074 109.428 174.563L107.435 174.397ZM107.301 179.55C107.301 186.828 108.919 193.85 112.69 199.082C116.494 204.36 122.425 207.72 130.791 207.72V205.72C123.038 205.72 117.724 202.645 114.313 197.913C110.869 193.135 109.301 186.572 109.301 179.55H107.301ZM130.791 207.72C135.713 207.72 140.214 206.437 143.951 203.763C147.689 201.089 150.597 197.068 152.409 191.7L150.514 191.06C148.816 196.092 146.134 199.741 142.787 202.137C139.439 204.533 135.36 205.72 130.791 205.72V207.72ZM210.803 148.48H211.803V147.48H210.803V148.48ZM210.803 163.95L210.662 164.94L211.803 165.103V163.95H210.803ZM185.843 168.89L184.924 168.496L184.843 168.685V168.89H185.843ZM185.843 214V215H186.843V214H185.843ZM168.943 214H167.943V215H168.943V214ZM168.943 149.39V148.39H167.943V149.39H168.943ZM185.843 149.39H186.843V148.39H185.843V149.39ZM185.843 168.89H184.843L186.808 169.152L185.843 168.89ZM209.803 148.48V163.95H211.803V148.48H209.803ZM210.945 162.96C207.279 162.436 203.198 162.04 199.623 162.04V164.04C203.069 164.04 207.048 164.424 210.662 164.94L210.945 162.96ZM199.623 162.04C196.387 162.04 193.294 162.368 190.728 163.321C188.139 164.283 186.034 165.906 184.924 168.496L186.763 169.284C187.603 167.324 189.203 166.022 191.424 165.196C193.668 164.362 196.49 164.04 199.623 164.04V162.04ZM184.843 168.89V214H186.843V168.89H184.843ZM185.843 213H168.943V215H185.843V213ZM169.943 214V149.39H167.943V214H169.943ZM168.943 150.39H185.843V148.39H168.943V150.39ZM184.843 149.39V168.89H186.843V149.39H184.843ZM186.808 169.152C188.402 163.288 190.958 158.382 194.798 154.945C198.619 151.524 203.799 149.48 210.803 149.48V147.48C203.378 147.48 197.703 149.661 193.464 153.455C189.244 157.233 186.535 162.532 184.878 168.628L186.808 169.152ZM214.288 149.39V148.39H212.802L213.362 149.767L214.288 149.39ZM233.398 149.39L234.332 149.033L234.087 148.39H233.398V149.39ZM252.118 198.4L251.184 198.757L252.096 201.145L253.046 198.772L252.118 198.4ZM271.748 149.39V148.39H271.071L270.82 149.018L271.748 149.39ZM279.548 149.39L280.474 149.768L281.037 148.39H279.548V149.39ZM253.158 214V215H253.83L254.084 214.378L253.158 214ZM240.548 214L239.622 214.377L239.875 215H240.548V214ZM214.288 150.39H233.398V148.39H214.288V150.39ZM232.464 149.747L251.184 198.757L253.052 198.043L234.332 149.033L232.464 149.747ZM253.046 198.772L272.676 149.762L270.82 149.018L251.19 198.028L253.046 198.772ZM271.748 150.39H279.548V148.39H271.748V150.39ZM278.622 149.012L252.232 213.622L254.084 214.378L280.474 149.768L278.622 149.012ZM253.158 213H240.548V215H253.158V213ZM241.474 213.623L215.214 149.013L213.362 149.767L239.622 214.377L241.474 213.623ZM308.353 149.39H309.353V148.39H308.353V149.39ZM308.353 214V215H309.353V214H308.353ZM291.453 214H290.453V215H291.453V214ZM291.453 149.39V148.39H290.453V149.39H291.453ZM290.893 122.48C290.893 117.425 294.882 113.34 299.903 113.34V111.34C293.744 111.34 288.893 116.355 288.893 122.48H290.893ZM299.903 113.34C304.941 113.34 309.043 117.442 309.043 122.48H311.043C311.043 116.338 306.046 111.34 299.903 111.34V113.34ZM309.043 122.48C309.043 127.501 304.958 131.49 299.903 131.49V133.49C306.029 133.49 311.043 128.639 311.043 122.48H309.043ZM299.903 131.49C294.865 131.49 290.893 127.518 290.893 122.48H288.893C288.893 128.622 293.761 133.49 299.903 133.49V131.49ZM307.353 149.39V214H309.353V149.39H307.353ZM308.353 213H291.453V215H308.353V213ZM292.453 214V149.39H290.453V214H292.453ZM291.453 150.39H308.353V148.39H291.453V150.39ZM384.644 190.99L384.96 190.041L384.031 189.732L383.702 190.654L384.644 190.99ZM386.594 191.64L387.566 191.875L387.782 190.982L386.91 190.691L386.594 191.64ZM376.844 166.72C373.999 166.72 372.283 165.843 371.071 164.604C369.805 163.308 369.016 161.551 368.176 159.591C367.367 157.703 366.499 155.594 365.042 153.994C363.522 152.324 361.412 151.25 358.254 151.25V153.25C360.881 153.25 362.443 154.11 363.564 155.34C364.747 156.641 365.489 158.399 366.337 160.379C367.155 162.286 368.072 164.397 369.641 166.002C371.265 167.663 373.514 168.72 376.844 168.72V166.72ZM358.254 151.25C352.929 151.25 348.806 154.325 346.064 159.026C343.333 163.707 341.914 170.07 341.914 176.95H343.914C343.914 170.31 345.289 164.323 347.791 160.034C350.282 155.765 353.829 153.25 358.254 153.25V151.25ZM341.914 176.95C341.914 185.843 343.755 193.511 347.552 198.986C351.381 204.508 357.15 207.72 364.754 207.72V205.72C357.798 205.72 352.647 202.822 349.196 197.846C345.713 192.824 343.914 185.607 343.914 176.95H341.914ZM364.754 207.72C369.034 207.72 373.212 206.563 376.849 203.904C380.485 201.245 383.517 197.133 385.586 191.326L383.702 190.654C381.741 196.157 378.923 199.91 375.669 202.289C372.416 204.667 368.664 205.72 364.754 205.72V207.72ZM384.328 191.939L386.278 192.589L386.91 190.691L384.96 190.041L384.328 191.939ZM385.622 191.405C383.639 199.592 380.376 205.412 375.74 209.195C371.111 212.973 364.988 214.82 357.084 214.82V216.82C365.3 216.82 371.917 214.897 377.005 210.745C382.087 206.598 385.519 200.328 387.566 191.875L385.622 191.405ZM357.084 214.82C348.169 214.82 340.372 211.568 334.804 205.89C329.237 200.213 325.844 192.055 325.844 182.15H323.844C323.844 192.525 327.406 201.202 333.376 207.29C339.346 213.377 347.669 216.82 357.084 216.82V214.82ZM325.844 182.15C325.844 170.622 330.485 162.36 337.157 156.96C343.857 151.537 352.659 148.96 360.984 148.96V146.96C352.279 146.96 343.011 149.648 335.898 155.405C328.758 161.185 323.844 170.018 323.844 182.15H325.844ZM360.984 148.96C367.381 148.96 373.067 150.114 377.114 152.122C381.179 154.139 383.384 156.891 383.384 160.05H385.384C385.384 155.799 382.389 152.507 378.003 150.33C373.601 148.146 367.587 146.96 360.984 146.96V148.96ZM383.384 160.05C383.384 163.81 380.559 166.72 376.844 166.72V168.72C381.708 168.72 385.384 164.87 385.384 160.05H383.384ZM414.782 169.54L413.794 169.381L413.607 170.54H414.782V169.54ZM441.302 169.54V170.54H442.314L442.301 169.527L441.302 169.54ZM457.292 191.38L457.608 190.431L456.663 190.116L456.344 191.06L457.292 191.38ZM459.242 192.03L460.206 192.296L460.458 191.381L459.558 191.081L459.242 192.03ZM458.852 174.48V175.48H459.875L459.851 174.457L458.852 174.48ZM414.262 174.48V173.48H413.341L413.265 174.397L414.262 174.48ZM429.732 151.12C425.575 151.12 422.042 152.554 419.314 155.633C416.62 158.675 414.785 163.24 413.794 169.381L415.769 169.699C416.728 163.75 418.468 159.605 420.811 156.959C423.121 154.351 426.088 153.12 429.732 153.12V151.12ZM414.782 170.54L441.302 170.54V168.54L414.782 168.54V170.54ZM442.301 169.527C442.236 164.326 441.416 159.761 439.446 156.466C437.429 153.092 434.243 151.12 429.732 151.12V153.12C433.54 153.12 436.074 154.723 437.73 157.492C439.432 160.339 440.237 164.484 440.302 169.553L442.301 169.527ZM456.975 192.329L458.925 192.979L459.558 191.081L457.608 190.431L456.975 192.329ZM458.277 191.764C456.043 199.874 452.464 205.613 447.751 209.331C443.042 213.045 437.101 214.82 429.992 214.82V216.82C437.442 216.82 443.851 214.955 448.99 210.901C454.124 206.852 457.891 200.696 460.206 192.296L458.277 191.764ZM429.992 214.82C420.275 214.82 412.089 211.553 406.335 205.878C400.583 200.205 397.192 192.054 397.192 182.15H395.192C395.192 192.526 398.755 201.21 404.931 207.302C411.105 213.392 419.818 216.82 429.992 216.82V214.82ZM397.192 182.15C397.192 163.077 411.559 148.96 430.382 148.96V146.96C410.464 146.96 395.192 161.963 395.192 182.15H397.192ZM430.382 148.96C437.983 148.96 444.755 151.271 449.66 155.585C454.552 159.887 457.663 166.244 457.852 174.503L459.851 174.457C459.65 165.686 456.326 158.783 450.981 154.083C445.648 149.394 438.38 146.96 430.382 146.96V148.96ZM458.852 173.48L414.262 173.48V175.48L458.852 175.48V173.48ZM413.265 174.397C413.131 176.006 413.132 177.609 413.132 179.55H415.132C415.132 177.591 415.132 176.074 415.258 174.563L413.265 174.397ZM413.132 179.55C413.132 186.828 414.749 193.85 418.52 199.082C422.324 204.36 428.255 207.72 436.622 207.72V205.72C428.868 205.72 423.554 202.645 420.143 197.913C416.699 193.135 415.132 186.572 415.132 179.55H413.132ZM436.622 207.72C441.543 207.72 446.044 206.437 449.781 203.763C453.519 201.089 456.427 197.068 458.239 191.7L456.344 191.06C454.646 196.092 451.964 199.741 448.617 202.137C445.269 204.533 441.19 205.72 436.622 205.72V207.72ZM495.688 188.52L495.965 187.559L495.953 187.556L495.942 187.553L495.688 188.52ZM490.228 187.09L490.482 186.123L490.479 186.122L490.228 187.09ZM496.338 172.4L496.592 171.433L496.59 171.432L496.338 172.4ZM501.798 173.83L501.545 174.797L501.547 174.798L501.798 173.83ZM495.948 214.82C489.839 214.82 483.565 213.449 478.853 211.045C474.098 208.621 471.208 205.308 471.208 201.52H469.208C469.208 206.442 472.948 210.279 477.944 212.827C482.982 215.396 489.578 216.82 495.948 216.82V214.82ZM471.208 201.52C471.208 199.6 471.845 198.01 472.923 196.904C473.997 195.803 475.58 195.11 477.618 195.11V193.11C475.106 193.11 472.985 193.977 471.491 195.508C470.001 197.035 469.208 199.15 469.208 201.52H471.208ZM477.618 195.11C480.096 195.11 481.559 196.026 482.644 197.393C483.801 198.85 484.529 200.806 485.436 203.006C486.312 205.13 487.343 207.437 489.129 209.192C490.963 210.994 493.508 212.14 497.248 212.14V210.14C493.968 210.14 491.947 209.157 490.531 207.766C489.068 206.328 488.165 204.378 487.285 202.244C486.437 200.186 485.589 197.885 484.211 196.149C482.761 194.323 480.73 193.11 477.618 193.11V195.11ZM497.248 212.14C501.019 212.14 504.521 211.301 507.112 209.509C509.744 207.688 511.378 204.916 511.378 201.26H509.378C509.378 204.234 508.088 206.402 505.974 207.864C503.82 209.354 500.758 210.14 497.248 210.14V212.14ZM511.378 201.26C511.378 197.869 509.915 195.098 507.234 192.856C504.591 190.645 500.764 188.939 495.965 187.559L495.412 189.481C500.103 190.831 503.62 192.44 505.95 194.389C508.242 196.307 509.378 198.541 509.378 201.26H511.378ZM495.942 187.553L490.482 186.123L489.975 188.057L495.435 189.487L495.942 187.553ZM490.479 186.122C480.176 183.451 472.768 176.955 472.768 167.2H470.768C470.768 178.245 479.22 185.269 489.977 188.058L490.479 186.122ZM472.768 167.2C472.768 161.423 475.335 156.773 479.648 153.537C483.986 150.285 490.129 148.44 497.248 148.44V146.44C489.807 146.44 483.211 148.365 478.448 151.938C473.662 155.527 470.768 160.757 470.768 167.2H472.768ZM497.248 148.44C502.609 148.44 508.152 149.4 512.316 151.232C516.535 153.088 518.998 155.664 518.998 158.75H520.998C520.998 154.426 517.546 151.347 513.121 149.401C508.64 147.43 502.808 146.44 497.248 146.44V148.44ZM518.998 158.75C518.998 160.837 518.405 162.351 517.457 163.339C516.514 164.321 515.106 164.9 513.238 164.9V166.9C515.53 166.9 517.503 166.179 518.9 164.724C520.292 163.274 520.998 161.213 520.998 158.75H518.998ZM513.238 164.9C510.802 164.9 509.462 164.128 508.522 163.049C507.5 161.877 506.903 160.316 506.074 158.47C505.278 156.698 504.294 154.753 502.48 153.278C500.64 151.782 498.066 150.86 494.258 150.86V152.86C497.73 152.86 499.82 153.693 501.218 154.83C502.642 155.987 503.469 157.552 504.25 159.29C504.997 160.954 505.741 162.903 507.014 164.363C508.369 165.917 510.279 166.9 513.238 166.9V164.9ZM494.258 150.86C490.898 150.86 487.904 151.785 485.727 153.495C483.531 155.219 482.208 157.713 482.208 160.7H484.208C484.208 158.357 485.225 156.431 486.962 155.068C488.717 153.69 491.248 152.86 494.258 152.86V150.86ZM482.208 160.7C482.208 163.592 483.069 166.146 485.33 168.298C487.542 170.404 491.018 172.051 496.087 173.368L496.59 171.432C491.649 170.149 488.56 168.611 486.709 166.849C484.907 165.134 484.208 163.138 484.208 160.7H482.208ZM496.085 173.367L501.545 174.797L502.052 172.863L496.592 171.433L496.085 173.367ZM501.547 174.798C508.237 176.535 513.244 178.851 516.575 182.058C519.866 185.227 521.598 189.343 521.598 194.89H523.598C523.598 188.867 521.691 184.208 517.962 180.617C514.272 177.064 508.879 174.635 502.05 172.862L501.547 174.798ZM521.598 194.89C521.598 201.348 518.51 206.293 513.765 209.658C508.994 213.041 502.545 214.82 495.948 214.82V216.82C502.872 216.82 509.748 214.959 514.922 211.289C520.122 207.602 523.598 202.082 523.598 194.89H521.598Z" fill="black" fill-opacity="0.3"/>
</svg>
