<?xml version="1.0" encoding="utf-8"?>
<!-- Generator: Adobe Illustrator 24.0.0, SVG Export Plug-In . SVG Version: 6.00 Build 0)  -->
<svg version="1.1" id="Layer_1" xmlns="http://www.w3.org/2000/svg" xmlns:xlink="http://www.w3.org/1999/xlink" x="0px" y="0px"
	 viewBox="0 0 1000 1000" style="enable-background:new 0 0 1000 1000;" xml:space="preserve">
<g>
	<g>
		<polygon points="115.1,495.7 50.8,495.7 50.8,457.8 39.9,457.8 39.9,541.7 50.8,541.7 50.8,504.5 115.1,504.5 115.1,541.7 
			126,541.7 126,457.8 115.1,457.8 		"/>
	</g>
	<g>
		<path d="M190.1,457.8l-40.4,83.9h5.1h5h73.6h5h6.3l-40-83.9H190.1z M229.6,533.6h-65.8l7.7-15.9H222L229.6,533.6z M175.5,509.4
			l21.6-44.6l21.1,44.6H175.5z"/>
	</g>
	<g>
		<path d="M313.4,534.2c-25.7,0-41.6-13.3-41.6-34v-0.9c0-20.3,17.1-34.1,41.9-34.1c22.2,0,32.8,7,36,19h10.8
			c-2.9-18.3-21.1-27.3-46.9-27.3c-29.3,0-53.1,17.7-53.1,42.6v0.9c0,25.8,21.1,42.5,52.8,42.5c27,0,44.5-9.5,48.6-28.9h-10.2
			C348.2,527.3,334.9,534.2,313.4,534.2z"/>
	</g>
	<g>
		<polygon points="451.4,498 398.3,457.8 384.4,457.8 438.9,498.5 381.8,541.7 396.7,541.7 451.4,500.8 451.4,541.7 462.3,541.7 
			462.3,457.8 451.4,457.8 		"/>
	</g>
	<g>
		<path d="M542.4,497.7c9.7-2.8,14.9-10.1,14.9-17.7v-0.5c0-16.5-14.4-21.7-32.7-21.7h-38.4v83.9h43.2c19.7,0,33.7-7.6,33.7-23.5
			v-0.5C563.1,506.8,555.6,500.3,542.4,497.7z M496.9,465.9h27.5c14.1,0,22.3,3.9,22.3,13.3v0.5c0,10.3-7.2,14.8-21.9,14.8h-27.8
			V465.9z M552.3,518.1c0,10.1-8.1,15.5-23.1,15.5h-32.3v-31.2h29.7c17,0,25.7,4.9,25.7,15.3V518.1z"/>
	</g>
	<g>
		<polygon points="595.3,502.9 645.6,502.9 645.6,494.5 595.3,494.5 595.3,466.2 655,466.2 655,457.8 584.4,457.8 584.4,541.7 
			657.8,541.7 657.8,533.2 595.3,533.2 		"/>
	</g>
	<g>
		<path d="M752.2,482.9v-0.5c0-17.7-15.7-24.6-34.4-24.6h-39.9v83.9h10.9v-34h26.9l30,34h13.1l-30.7-34.8
			C739.9,504.7,752.2,497.4,752.2,482.9z M688.8,499.4v-33.3h29.7c13.3,0,22.8,4.5,22.8,16.4v0.5c0,10.7-8.8,16.4-22.8,16.4H688.8z"
			/>
	</g>
	<g>
		<path d="M857.5,482.9v-0.5c0-17.7-15.7-24.6-34.4-24.6h-39.9v83.9h10.9v-34H821l30,34h13.1l-30.7-34.8
			C845.2,504.7,857.5,497.4,857.5,482.9z M794.1,499.4v-33.3h29.7c13.3,0,22.8,4.5,22.8,16.4v0.5c0,10.7-8.8,16.4-22.8,16.4H794.1z"
			/>
	</g>
	<g>
		<polygon points="949.3,457.8 918.8,498.4 886.3,457.8 874,457.8 912.8,506.2 912.8,541.7 923.7,541.7 923.7,506.4 960.3,457.8 		
			"/>
	</g>
</g>
</svg>
