<svg width="694" height="215" viewBox="0 0 694 215" fill="none" xmlns="http://www.w3.org/2000/svg">
<path d="M42.68 17.33L43.6095 16.9611L42.6725 14.5999L41.7485 16.9663L42.68 17.33ZM26.69 58.28L25.7585 57.9163L25.226 59.28H26.69V58.28ZM58.93 58.28V59.28H60.4027L59.8595 57.9112L58.93 58.28ZM76.74 103L75.8106 103.369L76.0611 104H76.74V103ZM63.22 68.94L64.1495 68.5711L63.899 67.94H63.22V68.94ZM22.53 68.94V67.94H21.8462L21.5981 68.5772L22.53 68.94ZM9.27 103V104H9.9538L10.2019 103.363L9.27 103ZM0.95 103L0.0207924 102.63L-0.523898 104H0.95V103ZM41.64 0.689992V-0.310008H40.9615L40.7108 0.320434L41.64 0.689992ZM55.03 0.689992L55.9592 0.320434L55.7085 -0.310008H55.03V0.689992ZM95.72 103V104H97.1939L96.6492 102.63L95.72 103ZM41.7485 16.9663L25.7585 57.9163L27.6215 58.6437L43.6115 17.6937L41.7485 16.9663ZM26.69 59.28H58.93V57.28H26.69V59.28ZM59.8595 57.9112L43.6095 16.9611L41.7505 17.6988L58.0005 58.6488L59.8595 57.9112ZM77.6695 102.631L64.1495 68.5711L62.2906 69.3089L75.8106 103.369L77.6695 102.631ZM63.22 67.94H22.53V69.94H63.22V67.94ZM21.5981 68.5772L8.33813 102.637L10.2019 103.363L23.4619 69.3028L21.5981 68.5772ZM9.27 102H0.95V104H9.27V102ZM1.87921 103.37L42.5692 1.05955L40.7108 0.320434L0.0207924 102.63L1.87921 103.37ZM41.64 1.68999L55.03 1.68999V-0.310008L41.64 -0.310008V1.68999ZM54.1008 1.05955L94.7908 103.37L96.6492 102.63L55.9592 0.320434L54.1008 1.05955ZM95.72 102H76.74V104H95.72V102ZM150.423 37.48H151.423V36.48H150.423V37.48ZM150.423 52.95L150.281 53.9399L151.423 54.103V52.95H150.423ZM125.463 57.89L124.543 57.4961L124.463 57.6847V57.89H125.463ZM125.463 103V104H126.463V103H125.463ZM108.563 103H107.563V104H108.563V103ZM108.563 38.39V37.39H107.563V38.39H108.563ZM125.463 38.39H126.463V37.39H125.463V38.39ZM125.463 57.89H124.463L126.428 58.1522L125.463 57.89ZM149.423 37.48V52.95H151.423V37.48H149.423ZM150.564 51.96C146.898 51.4363 142.817 51.04 139.243 51.04V53.04C142.688 53.04 146.667 53.4237 150.281 53.9399L150.564 51.96ZM139.243 51.04C136.006 51.04 132.913 51.3678 130.347 52.3214C127.758 53.2835 125.653 54.906 124.543 57.4961L126.382 58.2839C127.222 56.3239 128.822 55.0215 131.043 54.1961C133.287 53.3622 136.109 53.04 139.243 53.04V51.04ZM124.463 57.89V103H126.463V57.89H124.463ZM125.463 102H108.563V104H125.463V102ZM109.563 103V38.39H107.563V103H109.563ZM108.563 39.39H125.463V37.39H108.563V39.39ZM124.463 38.39V57.89H126.463V38.39H124.463ZM126.428 58.1522C128.021 52.2877 130.577 47.3823 134.417 43.9451C138.238 40.5243 143.418 38.48 150.423 38.48V36.48C142.997 36.48 137.322 38.6607 133.083 42.4549C128.863 46.2327 126.154 51.5323 124.498 57.6278L126.428 58.1522ZM154.817 46.19H153.817V47.19H154.817V46.19ZM154.817 38.39V37.39H153.817V38.39H154.817ZM167.687 38.39V39.39H168.687V38.39H167.687ZM167.687 26.95L167.098 26.1418L166.687 26.4414V26.95H167.687ZM184.457 14.73L185.457 14.73V12.764L183.868 13.9218L184.457 14.73ZM184.457 38.39H183.457V39.39H184.457V38.39ZM207.987 38.39H208.987V37.39H207.987V38.39ZM207.987 46.19V47.19H208.987V46.19H207.987ZM184.457 46.19V45.19H183.457V46.19H184.457ZM206.947 89.35L207.484 88.5063L206.693 88.0033L206.14 88.7595L206.947 89.35ZM208.377 90.26L209.272 90.7072L209.675 89.9005L208.914 89.4163L208.377 90.26ZM167.687 46.19H168.687V45.19H167.687V46.19ZM155.817 46.19V38.39H153.817V46.19H155.817ZM154.817 39.39H167.687V37.39H154.817V39.39ZM168.687 38.39V26.95H166.687V38.39H168.687ZM168.276 27.7582L185.046 15.5382L183.868 13.9218L167.098 26.1418L168.276 27.7582ZM183.457 14.73V38.39H185.457V14.73L183.457 14.73ZM184.457 39.39H207.987V37.39H184.457V39.39ZM206.987 38.39V46.19H208.987V38.39H206.987ZM207.987 45.19H184.457V47.19H207.987V45.19ZM183.457 46.19V86.49H185.457V46.19H183.457ZM183.457 86.49C183.457 90.5011 184.288 93.491 186.069 95.4774C187.871 97.4883 190.471 98.28 193.557 98.28V96.28C190.794 96.28 188.843 95.5767 187.558 94.1426C186.251 92.684 185.457 90.2789 185.457 86.49H183.457ZM193.557 98.28C199.036 98.28 203.726 95.4453 207.754 89.9405L206.14 88.7595C202.368 93.9147 198.218 96.28 193.557 96.28V98.28ZM206.41 90.1937L207.84 91.1037L208.914 89.4163L207.484 88.5063L206.41 90.1937ZM207.483 89.8128C205.194 94.39 202.432 97.8785 199.019 100.226C195.616 102.567 191.498 103.82 186.407 103.82V105.82C191.847 105.82 196.373 104.473 200.153 101.874C203.922 99.2815 206.88 95.49 209.272 90.7072L207.483 89.8128ZM186.407 103.82C180.538 103.82 176.158 102.604 173.241 99.9091C170.339 97.2296 168.687 92.9045 168.687 86.23H166.687C166.687 93.2055 168.415 98.1754 171.884 101.378C175.336 104.566 180.317 105.82 186.407 105.82V103.82ZM168.687 86.23V46.19H166.687V86.23H168.687ZM167.687 45.19H154.817V47.19H167.687V45.19ZM237.181 38.39H238.181V37.39H237.181V38.39ZM237.181 103V104H238.181V103H237.181ZM220.281 103H219.281V104H220.281V103ZM220.281 38.39V37.39H219.281V38.39H220.281ZM219.721 11.48C219.721 6.42537 223.71 2.33999 228.731 2.33999V0.339992C222.572 0.339992 217.721 5.35462 217.721 11.48H219.721ZM228.731 2.33999C233.769 2.33999 237.871 6.44228 237.871 11.48H239.871C239.871 5.33771 234.874 0.339992 228.731 0.339992V2.33999ZM237.871 11.48C237.871 16.501 233.786 20.49 228.731 20.49V22.49C234.857 22.49 239.871 17.639 239.871 11.48H237.871ZM228.731 20.49C223.694 20.49 219.721 16.5177 219.721 11.48H217.721C217.721 17.6223 222.589 22.49 228.731 22.49V20.49ZM236.181 38.39V103H238.181V38.39H236.181ZM237.181 102H220.281V104H237.181V102ZM221.281 103V38.39H219.281V103H221.281ZM220.281 39.39H237.181V37.39H220.281V39.39ZM313.472 79.99L313.788 79.0413L312.859 78.7315L312.53 79.6544L313.472 79.99ZM315.422 80.64L316.394 80.8754L316.61 79.982L315.738 79.6913L315.422 80.64ZM305.672 55.72C302.827 55.72 301.111 54.8431 299.899 53.6038C298.633 52.308 297.844 50.5512 297.004 48.5911C296.195 46.7033 295.327 44.5942 293.871 42.994C292.35 41.3241 290.24 40.25 287.082 40.25V42.25C289.709 42.25 291.271 43.1097 292.392 44.3404C293.576 45.6408 294.317 47.3992 295.165 49.3789C295.983 51.2863 296.9 53.3969 298.469 55.0019C300.093 56.6631 302.342 57.72 305.672 57.72V55.72ZM287.082 40.25C281.757 40.25 277.634 43.3253 274.892 48.0261C272.162 52.7068 270.742 59.07 270.742 65.95H272.742C272.742 59.3099 274.117 53.3232 276.62 49.0339C279.11 44.7647 282.657 42.25 287.082 42.25V40.25ZM270.742 65.95C270.742 74.8427 272.583 82.511 276.38 87.9861C280.209 93.5075 285.978 96.72 293.582 96.72V94.72C286.626 94.72 281.475 91.8225 278.024 86.8464C274.541 81.8239 272.742 74.6073 272.742 65.95H270.742ZM293.582 96.72C297.862 96.72 302.04 95.5628 305.677 92.9035C309.313 90.2454 312.345 86.133 314.414 80.3257L312.53 79.6544C310.569 85.157 307.751 88.9096 304.497 91.289C301.244 93.6672 297.492 94.72 293.582 94.72V96.72ZM313.156 80.9387L315.106 81.5887L315.738 79.6913L313.788 79.0413L313.156 80.9387ZM314.45 80.4046C312.467 88.5924 309.204 94.4123 304.569 98.1952C299.939 101.973 293.816 103.82 285.912 103.82V105.82C294.128 105.82 300.745 103.897 305.833 99.7448C310.915 95.5977 314.347 89.3276 316.394 80.8754L314.45 80.4046ZM285.912 103.82C276.997 103.82 269.2 100.568 263.632 94.8898C258.065 89.2127 254.672 81.0552 254.672 71.15H252.672C252.672 81.5248 256.234 90.2023 262.204 96.2902C268.174 102.377 276.497 105.82 285.912 105.82V103.82ZM254.672 71.15C254.672 59.6216 259.313 51.3598 265.985 45.9598C272.685 40.5368 281.487 37.96 289.812 37.96V35.96C281.107 35.96 271.839 38.6482 264.727 44.4052C257.586 50.1852 252.672 59.0184 252.672 71.15H254.672ZM289.812 37.96C296.209 37.96 301.895 39.114 305.943 41.122C310.007 43.1385 312.212 45.8907 312.212 49.05H314.212C314.212 44.7993 311.217 41.5065 306.831 39.3304C302.429 37.146 296.415 35.96 289.812 35.96V37.96ZM312.212 49.05C312.212 52.8103 309.387 55.72 305.672 55.72V57.72C310.537 57.72 314.212 53.8697 314.212 49.05H312.212ZM346.234 0.689992H347.234V-0.310008H346.234V0.689992ZM346.234 103V104H347.234V103H346.234ZM329.334 103H328.334V104H329.334V103ZM329.334 0.689992V-0.310008H328.334V0.689992H329.334ZM345.234 0.689992V103H347.234V0.689992H345.234ZM346.234 102H329.334V104H346.234V102ZM330.334 103V0.689992H328.334V103H330.334ZM329.334 1.68999L346.234 1.68999V-0.310008L329.334 -0.310008V1.68999ZM381.315 58.54L380.328 58.3808L380.141 59.54H381.315V58.54ZM407.835 58.54V59.54H408.848L408.835 58.5273L407.835 58.54ZM423.825 80.38L424.141 79.4313L423.196 79.1163L422.877 80.0602L423.825 80.38ZM425.775 81.03L426.739 81.2957L426.991 80.3813L426.091 80.0813L425.775 81.03ZM425.385 63.48V64.48H426.408L426.385 63.4571L425.385 63.48ZM380.795 63.48V62.48H379.875L379.798 63.397L380.795 63.48ZM396.265 40.12C392.108 40.12 388.575 41.5539 385.847 44.6332C383.153 47.6751 381.318 52.24 380.328 58.3808L382.302 58.6992C383.262 52.75 385.001 48.6049 387.345 45.9593C389.655 43.3511 392.621 42.12 396.265 42.12V40.12ZM381.315 59.54H407.835V57.54H381.315V59.54ZM408.835 58.5273C408.769 53.3255 407.949 48.7606 405.979 45.4656C403.963 42.0924 400.777 40.12 396.265 40.12V42.12C400.073 42.12 402.607 43.7226 404.263 46.4919C405.965 49.3394 406.771 53.4845 406.835 58.5527L408.835 58.5273ZM423.509 81.3287L425.459 81.9787L426.091 80.0813L424.141 79.4313L423.509 81.3287ZM424.811 80.7643C422.576 88.8739 418.998 94.6133 414.284 98.3311C409.575 102.045 403.634 103.82 396.525 103.82V105.82C403.975 105.82 410.384 103.955 415.523 99.9014C420.657 95.8517 424.424 89.6961 426.739 81.2957L424.811 80.7643ZM396.525 103.82C386.808 103.82 378.622 100.553 372.868 94.8781C367.117 89.2048 363.725 81.0543 363.725 71.15H361.725C361.725 81.5257 365.288 90.2103 371.464 96.3019C377.638 102.392 386.351 105.82 396.525 105.82V103.82ZM363.725 71.15C363.725 52.0773 378.092 37.96 396.915 37.96V35.96C376.997 35.96 361.725 50.9627 361.725 71.15H363.725ZM396.915 37.96C404.517 37.96 411.288 40.2713 416.193 44.5847C421.085 48.8865 424.196 55.244 424.385 63.5029L426.385 63.4571C426.184 54.686 422.859 47.7835 417.514 43.0828C412.182 38.3937 404.913 35.96 396.915 35.96V37.96ZM425.385 62.48H380.795V64.48H425.385V62.48ZM379.798 63.397C379.664 65.0061 379.665 66.6093 379.665 68.55H381.665C381.665 66.5907 381.665 65.0739 381.791 63.563L379.798 63.397ZM379.665 68.55C379.665 75.8275 381.283 82.8505 385.054 88.0822C388.858 93.3601 394.789 96.72 403.155 96.72V94.72C395.401 94.72 390.087 91.6449 386.676 86.9128C383.232 82.1345 381.665 75.5725 381.665 68.55H379.665ZM403.155 96.72C408.076 96.72 412.578 95.4371 416.314 92.7632C420.052 90.0886 422.961 86.0678 424.772 80.6998L422.877 80.0602C421.179 85.0922 418.498 88.7414 415.15 91.1368C411.802 93.5329 407.723 94.72 403.155 94.72V96.72ZM462.221 77.52L462.498 76.559L462.486 76.5557L462.475 76.5526L462.221 77.52ZM456.761 76.09L457.015 75.1226L457.012 75.122L456.761 76.09ZM462.871 61.4L463.125 60.4326L463.123 60.4321L462.871 61.4ZM468.331 62.83L468.078 63.7974L468.08 63.7979L468.331 62.83ZM462.481 103.82C456.372 103.82 450.098 102.448 445.386 100.045C440.631 97.6207 437.741 94.3076 437.741 90.52H435.741C435.741 95.4424 439.482 99.2793 444.477 101.827C449.515 104.396 456.111 105.82 462.481 105.82V103.82ZM437.741 90.52C437.741 88.5996 438.378 87.0095 439.456 85.9045C440.53 84.8033 442.113 84.11 444.151 84.11V82.11C441.639 82.11 439.518 82.9767 438.024 84.508C436.535 86.0355 435.741 88.1504 435.741 90.52H437.741ZM444.151 84.11C446.629 84.11 448.092 85.0256 449.178 86.3927C450.334 87.8498 451.063 89.8063 451.969 92.0061C452.845 94.1298 453.876 96.437 455.663 98.1924C457.496 99.9939 460.041 101.14 463.781 101.14V99.14C460.502 99.14 458.481 98.1573 457.064 96.7657C455.601 95.328 454.698 93.3777 453.819 91.2439C452.97 89.1862 452.122 86.8852 450.744 85.1492C449.294 83.3232 447.264 82.11 444.151 82.11V84.11ZM463.781 101.14C467.552 101.14 471.054 100.301 473.645 98.5086C476.277 96.6881 477.911 93.9162 477.911 90.26H475.911C475.911 93.2338 474.621 95.4019 472.508 96.8639C470.354 98.3539 467.291 99.14 463.781 99.14V101.14ZM477.911 90.26C477.911 86.8691 476.448 84.0984 473.767 81.8555C471.124 79.6448 467.297 77.9395 462.498 76.559L461.945 78.481C466.636 79.8305 470.154 81.4402 472.484 83.3895C474.775 85.3066 475.911 87.5409 475.911 90.26H477.911ZM462.475 76.5526L457.015 75.1226L456.508 77.0574L461.968 78.4874L462.475 76.5526ZM457.012 75.122C446.709 72.4508 439.301 65.9555 439.301 56.2H437.301C437.301 67.2445 445.754 74.2692 456.511 77.058L457.012 75.122ZM439.301 56.2C439.301 50.4234 441.868 45.7726 446.181 42.5375C450.519 39.2845 456.662 37.44 463.781 37.44V35.44C456.341 35.44 449.744 37.3655 444.981 40.9375C440.195 44.5274 437.301 49.7566 437.301 56.2H439.301ZM463.781 37.44C469.142 37.44 474.685 38.4001 478.849 40.2316C483.068 42.0876 485.531 44.6636 485.531 47.75H487.531C487.531 43.4264 484.08 40.3474 479.654 38.4009C475.173 36.4299 469.341 35.44 463.781 35.44V37.44ZM485.531 47.75C485.531 49.8372 484.938 51.3514 483.99 52.3387C483.047 53.3213 481.64 53.9 479.771 53.9V55.9C482.063 55.9 484.036 55.1787 485.433 53.7238C486.825 52.2735 487.531 50.2127 487.531 47.75H485.531ZM479.771 53.9C477.336 53.9 475.996 53.1277 475.055 52.0491C474.033 50.8766 473.436 49.3155 472.607 47.4703C471.812 45.6982 470.827 43.7528 469.013 42.2778C467.173 40.782 464.6 39.86 460.791 39.86V41.86C464.263 41.86 466.353 42.693 467.751 43.8297C469.175 44.9872 470.003 46.5518 470.783 48.2897C471.531 49.9545 472.275 51.9034 473.548 53.3634C474.902 54.9173 476.812 55.9 479.771 55.9V53.9ZM460.791 39.86C457.432 39.86 454.438 40.7852 452.26 42.4947C450.065 44.2185 448.741 46.7129 448.741 49.7H450.741C450.741 47.3571 451.758 45.4315 453.495 44.0678C455.25 42.6898 457.781 41.86 460.791 41.86V39.86ZM448.741 49.7C448.741 52.5923 449.602 55.1457 451.863 57.298C454.075 59.4039 457.551 61.0512 462.62 62.3679L463.123 60.4321C458.182 59.1488 455.093 57.6111 453.242 55.8495C451.441 54.1343 450.741 52.1377 450.741 49.7H448.741ZM462.618 62.3674L468.078 63.7974L468.585 61.8626L463.125 60.4326L462.618 62.3674ZM468.08 63.7979C474.77 65.5348 479.778 67.8509 483.108 71.0578C486.399 74.2269 488.132 78.3427 488.132 83.89H490.132C490.132 77.8673 488.224 73.2081 484.495 69.6172C480.805 66.0641 475.413 63.6352 468.583 61.8621L468.08 63.7979ZM488.132 83.89C488.132 90.3484 485.043 95.2933 480.298 98.658C475.527 102.041 469.078 103.82 462.481 103.82V105.82C469.405 105.82 476.281 103.959 481.455 100.289C486.655 96.6017 490.132 91.0816 490.132 83.89H488.132ZM40.86 201.3L39.86 201.293V201.3H40.86ZM40.99 181.8L41.99 181.807L41.9967 180.8H40.99V181.8ZM40.86 203.25L41.5671 203.957L41.86 203.664V203.25H40.86ZM40.86 203.25L41.8571 203.174L41.5759 199.463L39.9592 202.816L40.86 203.25ZM41.12 178.42V179.42H42.1083L42.1199 178.432L41.12 178.42ZM41.25 167.37L42.25 167.382V167.37H41.25ZM57.89 171.79L58.8899 171.805L58.89 171.797V171.79H57.89ZM57.5 198.57L56.5001 198.555L56.5 198.563V198.57H57.5ZM69.2 203.38L69.8 202.58L68.9779 201.963L68.384 202.802L69.2 203.38ZM70.24 204.16L71.1344 204.607L71.5077 203.861L70.84 203.36L70.24 204.16ZM41.86 201.307L41.99 181.807L39.99 181.793L39.86 201.293L41.86 201.307ZM40.99 180.8C32.8516 180.8 27.6469 182.751 24.4817 185.828C21.3103 188.911 20.36 192.954 20.36 196.75H22.36C22.36 193.266 23.2297 189.834 25.8758 187.262C28.5281 184.684 33.1384 182.8 40.99 182.8V180.8ZM20.36 196.75C20.36 200.286 21.5088 203.186 23.5097 205.205C25.5088 207.222 28.279 208.28 31.37 208.28V206.28C28.741 206.28 26.5062 205.388 24.9303 203.797C23.3562 202.209 22.36 199.844 22.36 196.75H20.36ZM31.37 208.28C34.88 208.28 38.6459 206.878 41.5671 203.957L40.1529 202.543C37.6141 205.082 34.36 206.28 31.37 206.28V208.28ZM41.86 203.25V201.3H39.86V203.25H41.86ZM39.9592 202.816C38.2556 206.349 36.1449 209.085 33.4512 210.942C30.7665 212.792 27.4295 213.82 23.18 213.82V215.82C27.7705 215.82 31.5185 214.703 34.5863 212.588C37.6451 210.48 39.9544 207.431 41.7608 203.684L39.9592 202.816ZM23.18 213.82C11.9107 213.82 4.55 206.873 4.55 197.79H2.55C2.55 208.207 11.0493 215.82 23.18 215.82V213.82ZM4.55 197.79C4.55 194.443 5.46687 191.671 7.1392 189.374C8.81944 187.066 11.3031 185.184 14.5157 183.699C20.9646 180.719 30.1834 179.42 41.12 179.42V177.42C30.0866 177.42 20.5204 178.721 13.6768 181.883C10.2431 183.47 7.45368 185.544 5.52236 188.197C3.58313 190.86 2.55 194.052 2.55 197.79H4.55ZM42.1199 178.432L42.2499 167.382L40.2501 167.358L40.1201 178.408L42.1199 178.432ZM42.25 167.37V166.72H40.25V167.37H42.25ZM42.25 166.72C42.25 160.422 41.307 156.108 39.4275 153.352C37.4858 150.504 34.6577 149.47 31.37 149.47V151.47C34.1923 151.47 36.3042 152.321 37.775 154.478C39.308 156.727 40.25 160.538 40.25 166.72H42.25ZM31.37 149.47C28.4273 149.47 26.1102 149.966 24.5035 151.056C22.8282 152.193 22.05 153.89 22.05 155.93H24.05C24.05 154.46 24.5718 153.427 25.6265 152.711C26.7498 151.949 28.5927 151.47 31.37 151.47V149.47ZM22.05 155.93C22.05 157.573 22.3438 158.53 22.6142 159.409C22.8638 160.22 23.09 160.953 23.09 162.3H25.09C25.09 160.657 24.7962 159.7 24.5258 158.821C24.2762 158.01 24.05 157.277 24.05 155.93H22.05ZM23.09 162.3C23.09 164.294 22.3324 165.763 21.156 166.75C19.9587 167.755 18.2522 168.32 16.29 168.32V170.32C18.6178 170.32 20.8113 169.65 22.4415 168.282C24.0926 166.897 25.09 164.856 25.09 162.3H23.09ZM16.29 168.32C14.4293 168.32 12.8441 167.713 11.7278 166.61C10.6164 165.512 9.88 163.835 9.88 161.52H7.88C7.88 164.275 8.76861 166.498 10.3222 168.033C11.8709 169.562 13.9907 170.32 16.29 170.32V168.32ZM9.88 161.52C9.88 157.957 12.2458 154.426 16.4401 151.734C20.6142 149.055 26.4666 147.31 33.06 147.31V145.31C26.1334 145.31 19.8958 147.14 15.3599 150.051C10.8442 152.949 7.88 157.023 7.88 161.52H9.88ZM33.06 147.31C40.523 147.31 46.429 148.605 50.4759 152.104C54.4916 155.576 56.89 161.411 56.89 171.01H58.89C58.89 161.109 56.4134 154.594 51.7841 150.591C47.186 146.615 40.677 145.31 33.06 145.31V147.31ZM56.89 171.01V171.79H58.89V171.01H56.89ZM56.8901 171.775L56.5001 198.555L58.4999 198.585L58.8899 171.805L56.8901 171.775ZM56.5 198.57V199.48H58.5V198.57H56.5ZM56.5 199.48C56.5 202.797 56.8128 205.188 57.7238 206.758C58.2013 207.581 58.8421 208.18 59.6558 208.558C60.4496 208.928 61.3483 209.06 62.31 209.06V207.06C61.5167 207.06 60.9366 206.948 60.4996 206.745C60.0823 206.551 59.74 206.248 59.4537 205.754C58.8372 204.692 58.5 202.793 58.5 199.48H56.5ZM62.31 209.06C65.13 209.06 67.7315 207.183 70.016 203.958L68.384 202.802C66.2485 205.817 64.17 207.06 62.31 207.06V209.06ZM68.6 204.18L69.64 204.96L70.84 203.36L69.8 202.58L68.6 204.18ZM69.3456 203.713C67.5824 207.239 65.509 209.686 63.139 211.256C60.7761 212.822 58.0502 213.56 54.9 213.56V215.56C58.3798 215.56 61.504 214.738 64.2435 212.924C66.976 211.114 69.2576 208.361 71.1344 204.607L69.3456 203.713ZM54.9 213.56C51.8376 213.56 48.7051 212.901 46.2897 211.29C43.9172 209.709 42.1593 207.162 41.8571 203.174L39.8629 203.326C40.2107 207.918 42.2878 211.026 45.1803 212.955C48.0299 214.854 51.5924 215.56 54.9 215.56V213.56ZM97.7868 166.2L96.8618 165.82L96.7868 166.003V166.2H97.7868ZM97.7868 213V214H98.7868V213H97.7868ZM80.8868 213H79.8868V214H80.8868V213ZM80.8868 148.39V147.39H79.8868V148.39H80.8868ZM97.7868 148.39H98.7868V147.39H97.7868V148.39ZM97.7868 166.2H96.7868L98.7678 166.394L97.7868 166.2ZM141.337 213V214H142.337V213H141.337ZM124.437 213H123.437V214H124.437V213ZM112.477 155.32C109.282 155.32 106.165 156 103.438 157.678C100.702 159.362 98.4277 162.007 96.8618 165.82L98.7118 166.58C100.136 163.113 102.151 160.818 104.486 159.382C106.829 157.94 109.562 157.32 112.477 157.32V155.32ZM96.7868 166.2V213H98.7868V166.2H96.7868ZM97.7868 212H80.8868V214H97.7868V212ZM81.8868 213V148.39H79.8868V213H81.8868ZM80.8868 149.39H97.7868V147.39H80.8868V149.39ZM96.7868 148.39V166.2H98.7868V148.39H96.7868ZM98.7678 166.394C100.03 160.021 102.818 155.434 106.539 152.435C110.265 149.433 115.004 147.96 120.277 147.96V145.96C114.629 145.96 109.424 147.542 105.284 150.878C101.141 154.216 98.1439 159.249 96.8058 166.006L98.7678 166.394ZM120.277 147.96C128.267 147.96 133.197 150.74 136.178 155.008C139.207 159.343 140.337 165.37 140.337 172.05H142.337C142.337 165.21 141.192 158.692 137.818 153.862C134.396 148.965 128.796 145.96 120.277 145.96V147.96ZM140.337 172.05V213H142.337V172.05H140.337ZM141.337 212H124.437V214H141.337V212ZM125.437 213V172.96H123.437V213H125.437ZM125.437 172.96C125.437 166.667 124.115 162.241 121.765 159.375C119.386 156.473 116.079 155.32 112.477 155.32V157.32C115.634 157.32 118.307 158.312 120.218 160.643C122.158 163.009 123.437 166.903 123.437 172.96H125.437ZM207.522 110.69V109.69H206.522V110.69H207.522ZM224.552 110.69H225.552V109.69H224.552V110.69ZM224.552 213V214H225.552V213H224.552ZM207.522 213H206.522V214H207.522V213ZM207.522 159.18L206.865 159.934L208.413 158.726L207.522 159.18ZM207.522 202.73L208.406 203.197L206.865 201.976L207.522 202.73ZM207.522 111.69L224.552 111.69V109.69L207.522 109.69V111.69ZM223.552 110.69V213H225.552V110.69H223.552ZM224.552 212H207.522V214H224.552V212ZM208.522 213V110.69H206.522V213H208.522ZM157.172 180.89C157.172 170.962 160.32 162.735 165.632 157C170.939 151.27 178.467 147.96 187.372 147.96V145.96C177.947 145.96 169.875 149.475 164.165 155.64C158.459 161.8 155.172 170.538 155.172 180.89H157.172ZM187.372 147.96C192.335 147.96 196.267 149.182 199.385 151.225C202.509 153.272 204.872 156.179 206.631 159.634L208.413 158.726C206.532 155.031 203.955 151.828 200.481 149.552C197.002 147.273 192.679 145.96 187.372 145.96V147.96ZM208.179 158.426C203.963 154.754 199.828 153.37 194.912 153.37V155.37C199.356 155.37 203.021 156.586 206.865 159.934L208.179 158.426ZM194.912 153.37C182.061 153.37 173.112 164.973 173.112 180.89H175.112C175.112 165.607 183.583 155.37 194.912 155.37V153.37ZM173.112 180.89C173.112 196.807 182.061 208.41 194.912 208.41V206.41C183.583 206.41 175.112 196.173 175.112 180.89H173.112ZM194.912 208.41C199.808 208.41 203.948 207.169 208.179 203.484L206.865 201.976C203.036 205.311 199.376 206.41 194.912 206.41V208.41ZM206.638 202.263C203.143 208.878 197.215 213.82 187.372 213.82V215.82C198.069 215.82 204.621 210.362 208.406 203.197L206.638 202.263ZM187.372 213.82C178.464 213.82 170.937 210.541 165.631 204.828C160.32 199.11 157.172 190.884 157.172 180.89H155.172C155.172 191.306 158.459 200.045 164.166 206.189C169.877 212.339 177.95 215.82 187.372 215.82V213.82ZM323.001 117.97V116.97H322.001V117.97H323.001ZM323.001 213V214H324.001V213H323.001ZM304.541 213H303.541V214H304.541V213ZM304.541 117.97H305.541V116.97H304.541V117.97ZM269.701 117.97H268.701V118.97H269.701V117.97ZM269.701 110.69V109.69H268.701V110.69H269.701ZM357.841 110.69H358.841V109.69H357.841V110.69ZM357.841 117.97V118.97H358.841V117.97H357.841ZM322.001 117.97V213H324.001V117.97H322.001ZM323.001 212H304.541V214H323.001V212ZM305.541 213V117.97H303.541V213H305.541ZM304.541 116.97H269.701V118.97H304.541V116.97ZM270.701 117.97V110.69H268.701V117.97H270.701ZM269.701 111.69H357.841V109.69H269.701V111.69ZM356.841 110.69V117.97H358.841V110.69H356.841ZM357.841 116.97H323.001V118.97H357.841V116.97ZM396.458 147.48H397.458V146.48H396.458V147.48ZM396.458 162.95L396.316 163.94L397.458 164.103V162.95H396.458ZM371.498 167.89L370.579 167.496L370.498 167.685V167.89H371.498ZM371.498 213V214H372.498V213H371.498ZM354.598 213H353.598V214H354.598V213ZM354.598 148.39V147.39H353.598V148.39H354.598ZM371.498 148.39H372.498V147.39H371.498V148.39ZM371.498 167.89H370.498L372.463 168.152L371.498 167.89ZM395.458 147.48V162.95H397.458V147.48H395.458ZM396.599 161.96C392.933 161.436 388.852 161.04 385.278 161.04V163.04C388.723 163.04 392.702 163.424 396.316 163.94L396.599 161.96ZM385.278 161.04C382.042 161.04 378.948 161.368 376.382 162.321C373.793 163.283 371.689 164.906 370.579 167.496L372.417 168.284C373.257 166.324 374.857 165.022 377.079 164.196C379.323 163.362 382.144 163.04 385.278 163.04V161.04ZM370.498 167.89V213H372.498V167.89H370.498ZM371.498 212H354.598V214H371.498V212ZM355.598 213V148.39H353.598V213H355.598ZM354.598 149.39H371.498V147.39H354.598V149.39ZM370.498 148.39V167.89H372.498V148.39H370.498ZM372.463 168.152C374.056 162.288 376.612 157.382 380.452 153.945C384.274 150.524 389.453 148.48 396.458 148.48V146.48C389.033 146.48 383.357 148.661 379.118 152.455C374.898 156.233 372.189 161.532 370.533 167.628L372.463 168.152ZM421.178 168.54L420.191 168.381L420.004 169.54H421.178V168.54ZM447.698 168.54V169.54H448.711L448.698 168.527L447.698 168.54ZM463.688 190.38L464.004 189.431L463.059 189.116L462.741 190.06L463.688 190.38ZM465.638 191.03L466.602 191.296L466.854 190.381L465.954 190.081L465.638 191.03ZM465.248 173.48V174.48H466.271L466.248 173.457L465.248 173.48ZM420.658 173.48V172.48H419.738L419.661 173.397L420.658 173.48ZM436.128 150.12C431.972 150.12 428.438 151.554 425.711 154.633C423.016 157.675 421.181 162.24 420.191 168.381L422.165 168.699C423.125 162.75 424.865 158.605 427.208 155.959C429.518 153.351 432.485 152.12 436.128 152.12V150.12ZM421.178 169.54L447.698 169.54V167.54L421.178 167.54V169.54ZM448.698 168.527C448.632 163.326 447.813 158.761 445.843 155.466C443.826 152.092 440.64 150.12 436.128 150.12V152.12C439.936 152.12 442.47 153.723 444.126 156.492C445.828 159.339 446.634 163.484 446.698 168.553L448.698 168.527ZM463.372 191.329L465.322 191.979L465.954 190.081L464.004 189.431L463.372 191.329ZM464.674 190.764C462.439 198.874 458.861 204.613 454.147 208.331C449.439 212.045 443.498 213.82 436.388 213.82V215.82C443.838 215.82 450.248 213.955 455.386 209.901C460.52 205.852 464.287 199.696 466.602 191.296L464.674 190.764ZM436.388 213.82C426.672 213.82 418.485 210.553 412.732 204.878C406.98 199.205 403.588 191.054 403.588 181.15H401.588C401.588 191.526 405.151 200.21 411.327 206.302C417.501 212.392 426.215 215.82 436.388 215.82V213.82ZM403.588 181.15C403.588 162.077 417.955 147.96 436.778 147.96V145.96C416.861 145.96 401.588 160.963 401.588 181.15H403.588ZM436.778 147.96C444.38 147.96 451.151 150.271 456.056 154.585C460.948 158.887 464.059 165.244 464.248 173.503L466.248 173.457C466.047 164.686 462.723 157.783 457.377 153.083C452.045 148.394 444.776 145.96 436.778 145.96V147.96ZM465.248 172.48L420.658 172.48V174.48L465.248 174.48V172.48ZM419.661 173.397C419.527 175.006 419.528 176.609 419.528 178.55H421.528C421.528 176.591 421.529 175.074 421.655 173.563L419.661 173.397ZM419.528 178.55C419.528 185.828 421.146 192.85 424.917 198.082C428.721 203.36 434.652 206.72 443.018 206.72V204.72C435.264 204.72 429.95 201.645 426.539 196.913C423.095 192.135 421.528 185.572 421.528 178.55H419.528ZM443.018 206.72C447.94 206.72 452.441 205.437 456.177 202.763C459.915 200.089 462.824 196.068 464.636 190.7L462.741 190.06C461.042 195.092 458.361 198.741 455.014 201.137C451.665 203.533 447.586 204.72 443.018 204.72V206.72ZM498.07 166.2L497.145 165.82L497.07 166.003V166.2H498.07ZM498.07 213V214H499.07V213H498.07ZM481.17 213H480.17V214H481.17V213ZM481.17 148.39V147.39H480.17V148.39H481.17ZM498.07 148.39H499.07V147.39H498.07V148.39ZM498.07 166.2H497.07L499.051 166.394L498.07 166.2ZM541.62 213V214H542.62V213H541.62ZM524.72 213H523.72V214H524.72V213ZM512.76 155.32C509.565 155.32 506.448 156 503.721 157.678C500.986 159.362 498.711 162.007 497.145 165.82L498.995 166.58C500.419 163.113 502.434 160.818 504.769 159.382C507.112 157.94 509.845 157.32 512.76 157.32V155.32ZM497.07 166.2V213H499.07V166.2H497.07ZM498.07 212H481.17V214H498.07V212ZM482.17 213V148.39H480.17V213H482.17ZM481.17 149.39H498.07V147.39H481.17V149.39ZM497.07 148.39V166.2H499.07V148.39H497.07ZM499.051 166.394C500.313 160.021 503.101 155.434 506.822 152.435C510.548 149.433 515.288 147.96 520.56 147.96V145.96C514.912 145.96 509.707 147.542 505.568 150.878C501.424 154.216 498.427 159.249 497.089 166.006L499.051 166.394ZM520.56 147.96C528.551 147.96 533.48 150.74 536.461 155.008C539.49 159.343 540.62 165.37 540.62 172.05H542.62C542.62 165.21 541.475 158.692 538.101 153.862C534.68 148.965 529.079 145.96 520.56 145.96V147.96ZM540.62 172.05V213H542.62V172.05H540.62ZM541.62 212H524.72V214H541.62V212ZM525.72 213V172.96H523.72V213H525.72ZM525.72 172.96C525.72 166.667 524.399 162.241 522.048 159.375C519.669 156.473 516.363 155.32 512.76 155.32V157.32C515.917 157.32 518.591 158.312 520.502 160.643C522.441 163.009 523.72 166.903 523.72 172.96H525.72ZM607.805 110.69V109.69H606.805V110.69H607.805ZM624.835 110.69H625.835V109.69H624.835V110.69ZM624.835 213V214H625.835V213H624.835ZM607.805 213H606.805V214H607.805V213ZM607.805 159.18L607.148 159.934L608.696 158.726L607.805 159.18ZM607.805 202.73L608.689 203.197L607.148 201.976L607.805 202.73ZM607.805 111.69H624.835V109.69H607.805V111.69ZM623.835 110.69V213H625.835V110.69H623.835ZM624.835 212H607.805V214H624.835V212ZM608.805 213V110.69H606.805V213H608.805ZM557.455 180.89C557.455 170.962 560.603 162.735 565.915 157C571.222 151.27 578.75 147.96 587.655 147.96V145.96C578.23 145.96 570.158 149.475 564.448 155.64C558.743 161.8 555.455 170.538 555.455 180.89H557.455ZM587.655 147.96C592.618 147.96 596.55 149.182 599.668 151.225C602.792 153.272 605.155 156.179 606.914 159.634L608.696 158.726C606.815 155.031 604.238 151.828 600.765 149.552C597.285 147.273 592.963 145.96 587.655 145.96V147.96ZM608.462 158.426C604.246 154.754 600.111 153.37 595.195 153.37V155.37C599.639 155.37 603.305 156.586 607.148 159.934L608.462 158.426ZM595.195 153.37C582.344 153.37 573.395 164.973 573.395 180.89H575.395C575.395 165.607 583.866 155.37 595.195 155.37V153.37ZM573.395 180.89C573.395 196.807 582.344 208.41 595.195 208.41V206.41C583.866 206.41 575.395 196.173 575.395 180.89H573.395ZM595.195 208.41C600.091 208.41 604.231 207.169 608.462 203.484L607.148 201.976C603.319 205.311 599.66 206.41 595.195 206.41V208.41ZM606.921 202.263C603.426 208.878 597.498 213.82 587.655 213.82V215.82C598.353 215.82 604.904 210.362 608.689 203.197L606.921 202.263ZM587.655 213.82C578.747 213.82 571.22 210.541 565.914 204.828C560.604 199.11 557.455 190.884 557.455 180.89H555.455C555.455 191.306 558.742 200.045 564.449 206.189C570.161 212.339 578.233 215.82 587.655 215.82V213.82ZM666.997 187.52L667.273 186.559L667.262 186.556L667.25 186.553L666.997 187.52ZM661.537 186.09L661.79 185.123L661.788 185.122L661.537 186.09ZM667.647 171.4L667.9 170.433L667.898 170.432L667.647 171.4ZM673.107 172.83L672.854 173.797L672.856 173.798L673.107 172.83ZM667.257 213.82C661.148 213.82 654.873 212.449 650.161 210.045C645.407 207.621 642.517 204.308 642.517 200.52H640.517C640.517 205.442 644.257 209.279 649.253 211.827C654.291 214.396 660.886 215.82 667.257 215.82V213.82ZM642.517 200.52C642.517 198.6 643.154 197.01 644.232 195.904C645.305 194.803 646.889 194.11 648.927 194.11V192.11C646.415 192.11 644.293 192.977 642.8 194.508C641.31 196.035 640.517 198.15 640.517 200.52H642.517ZM648.927 194.11C651.405 194.11 652.868 195.026 653.953 196.393C655.11 197.85 655.838 199.806 656.745 202.006C657.62 204.13 658.651 206.437 660.438 208.192C662.272 209.994 664.817 211.14 668.557 211.14V209.14C665.277 209.14 663.256 208.157 661.84 206.766C660.376 205.328 659.473 203.378 658.594 201.244C657.746 199.186 656.898 196.885 655.519 195.149C654.07 193.323 652.039 192.11 648.927 192.11V194.11ZM668.557 211.14C672.327 211.14 675.83 210.301 678.421 208.509C681.052 206.688 682.687 203.916 682.687 200.26H680.687C680.687 203.234 679.396 205.402 677.283 206.864C675.129 208.354 672.067 209.14 668.557 209.14V211.14ZM682.687 200.26C682.687 196.869 681.223 194.098 678.542 191.856C675.9 189.645 672.072 187.939 667.273 186.559L666.72 188.481C671.411 189.831 674.929 191.44 677.259 193.389C679.55 195.307 680.687 197.541 680.687 200.26H682.687ZM667.25 186.553L661.79 185.123L661.284 187.057L666.744 188.487L667.25 186.553ZM661.788 185.122C651.485 182.451 644.077 175.955 644.077 166.2H642.077C642.077 177.245 650.529 184.269 661.286 187.058L661.788 185.122ZM644.077 166.2C644.077 160.423 646.643 155.773 650.957 152.537C655.294 149.285 661.438 147.44 668.557 147.44V145.44C661.116 145.44 654.52 147.365 649.757 150.938C644.97 154.527 642.077 159.757 642.077 166.2H644.077ZM668.557 147.44C673.918 147.44 679.46 148.4 683.624 150.232C687.844 152.088 690.307 154.664 690.307 157.75H692.307C692.307 153.426 688.855 150.347 684.43 148.401C679.948 146.43 674.116 145.44 668.557 145.44V147.44ZM690.307 157.75C690.307 159.837 689.713 161.351 688.766 162.339C687.822 163.321 686.415 163.9 684.547 163.9V165.9C686.839 165.9 688.812 165.179 690.208 163.724C691.6 162.274 692.307 160.213 692.307 157.75H690.307ZM684.547 163.9C682.111 163.9 680.771 163.128 679.83 162.049C678.808 160.877 678.211 159.316 677.383 157.47C676.587 155.698 675.603 153.753 673.789 152.278C671.949 150.782 669.375 149.86 665.567 149.86V151.86C669.039 151.86 671.129 152.693 672.527 153.83C673.951 154.987 674.778 156.552 675.558 158.29C676.306 159.954 677.05 161.903 678.323 163.363C679.678 164.917 681.588 165.9 684.547 165.9V163.9ZM665.567 149.86C662.207 149.86 659.213 150.785 657.036 152.495C654.84 154.219 653.517 156.713 653.517 159.7H655.517C655.517 157.357 656.534 155.431 658.271 154.068C660.026 152.69 662.557 151.86 665.567 151.86V149.86ZM653.517 159.7C653.517 162.592 654.378 165.146 656.639 167.298C658.851 169.404 662.326 171.051 667.396 172.368L667.898 170.432C662.958 169.149 659.868 167.611 658.018 165.849C656.216 164.134 655.517 162.138 655.517 159.7H653.517ZM667.393 172.367L672.854 173.797L673.36 171.863L667.9 170.433L667.393 172.367ZM672.856 173.798C679.546 175.535 684.553 177.851 687.883 181.058C691.174 184.227 692.907 188.343 692.907 193.89H694.907C694.907 187.867 693 183.208 689.271 179.617C685.581 176.064 680.188 173.635 673.358 171.862L672.856 173.798ZM692.907 193.89C692.907 200.348 689.818 205.293 685.073 208.658C680.302 212.041 673.853 213.82 667.257 213.82V215.82C674.18 215.82 681.056 213.959 686.23 210.289C691.431 206.602 694.907 201.082 694.907 193.89H692.907Z" fill="black" fill-opacity="0.3"/>
</svg>
