<svg width="49" height="316" viewBox="0 0 49 316" fill="none" xmlns="http://www.w3.org/2000/svg">
<path d="M1 0.24V-0.76H0V0.24H1ZM48.22 0.24L49.22 0.24V-0.76L48.22 -0.76V0.24ZM48.22 31.5V32.5H49.22V31.5H48.22ZM44.86 31.5H43.86V32.5H44.86V31.5ZM44.86 8.7H45.86V7.7H44.86V8.7ZM27.1 8.7V7.7H26.1V8.7H27.1ZM27.1 28.98V29.98H28.1V28.98H27.1ZM23.62 28.98H22.62V29.98H23.62V28.98ZM23.62 8.7H24.62V7.7H23.62V8.7ZM1 8.7H0L0 9.7H1L1 8.7ZM1 1.24L48.22 1.24V-0.76L1 -0.76V1.24ZM47.22 0.24L47.22 31.5H49.22L49.22 0.24L47.22 0.24ZM48.22 30.5H44.86V32.5H48.22V30.5ZM45.86 31.5L45.86 8.7H43.86L43.86 31.5H45.86ZM44.86 7.7L27.1 7.7V9.7L44.86 9.7V7.7ZM26.1 8.7L26.1 28.98H28.1L28.1 8.7L26.1 8.7ZM27.1 27.98H23.62V29.98H27.1V27.98ZM24.62 28.98L24.62 8.7H22.62L22.62 28.98H24.62ZM23.62 7.7L1 7.7L1 9.7L23.62 9.7V7.7ZM2 8.7V0.24H0V8.7H2ZM30.82 43.1095V44.1095L31.82 44.1095L31.82 43.1095L30.82 43.1095ZM1 43.1095H0V44.1095H1V43.1095ZM1 35.3095V34.3095H0V35.3095H1ZM30.82 35.3095L31.82 35.3095V34.3095L30.82 34.3095V35.3095ZM43.24 35.5895C45.2846 35.5895 46.92 37.1986 46.92 39.2095H48.92C48.92 36.0605 46.3554 33.5895 43.24 33.5895V35.5895ZM46.92 39.2095C46.92 41.2372 45.2677 42.8895 43.24 42.8895V44.8895C46.3723 44.8895 48.92 42.3418 48.92 39.2095H46.92ZM43.24 42.8895C41.229 42.8895 39.62 41.2542 39.62 39.2095H37.62C37.62 42.3249 40.091 44.8895 43.24 44.8895V42.8895ZM39.62 39.2095C39.62 37.1818 41.2123 35.5895 43.24 35.5895V33.5895C40.1077 33.5895 37.62 36.0772 37.62 39.2095H39.62ZM30.82 42.1095L1 42.1095V44.1095L30.82 44.1095V42.1095ZM2 43.1095L2 35.3095L0 35.3095L0 43.1095L2 43.1095ZM1 36.3095L30.82 36.3095V34.3095L1 34.3095V36.3095ZM29.82 35.3095V43.1095L31.82 43.1095L31.82 35.3095L29.82 35.3095ZM31.24 72.5006V73.5006H32.24V72.5006H31.24ZM24.1 72.5006L23.1101 72.3592L22.947 73.5006H24.1V72.5006ZM21.82 60.9806L22.2139 60.0615L22.0253 59.9806H21.82V60.9806ZM1 60.9806H0V61.9806H1V60.9806ZM1 53.1806V52.1806H0V53.1806H1ZM30.82 53.1806L31.82 53.1806V52.1806L30.82 52.1806V53.1806ZM30.82 60.9806V61.9806H31.82V60.9806H30.82ZM21.82 60.9806V59.9806L21.5578 61.9456L21.82 60.9806ZM31.24 71.5006H24.1V73.5006H31.24V71.5006ZM25.09 72.642C25.3337 70.9361 25.52 69.0251 25.52 67.3406H23.52C23.52 68.8961 23.3463 70.7052 23.1101 72.3592L25.09 72.642ZM25.52 67.3406C25.52 65.8195 25.3672 64.3183 24.8949 63.0473C24.414 61.7534 23.579 60.6465 22.2139 60.0615L21.4261 61.8998C22.1611 62.2148 22.676 62.8179 23.0201 63.744C23.3728 64.693 23.52 65.9218 23.52 67.3406H25.52ZM21.82 59.9806L1 59.9806V61.9806L21.82 61.9806V59.9806ZM2 60.9806V53.1806L0 53.1806V60.9806H2ZM1 54.1806L30.82 54.1806V52.1806L1 52.1806V54.1806ZM29.82 53.1806V60.9806H31.82V53.1806L29.82 53.1806ZM30.82 59.9806H21.82V61.9806H30.82V59.9806ZM21.5578 61.9456C24.2023 62.6643 26.3602 63.8029 27.8549 65.4726C29.3332 67.124 30.24 69.3807 30.24 72.5006H32.24C32.24 68.9605 31.1968 66.2072 29.3451 64.1387C27.5098 62.0884 24.9577 60.797 22.0822 60.0156L21.5578 61.9456ZM12.76 87.443L13.721 87.7194L13.7243 87.7079L13.7274 87.6963L12.76 87.443ZM13.42 84.923L14.3874 85.1763L14.388 85.1739L13.42 84.923ZM20.2 87.743L21.1674 87.9963L21.1679 87.9944L20.2 87.743ZM19.54 90.263L18.5726 90.0096L18.5721 90.0117L19.54 90.263ZM1.16 87.563C1.16 84.8137 1.779 82.0042 2.84333 79.9173C3.92932 77.7879 5.31745 76.683 6.76 76.683V74.683C4.18255 74.683 2.27068 76.638 1.06166 79.0086C-0.169003 81.4217 -0.84 84.5522 -0.84 87.563H1.16ZM6.76 76.683C7.52536 76.683 8.11799 76.9349 8.51429 77.3214C8.90671 77.7041 9.18 78.29 9.18 79.103H11.18C11.18 77.816 10.7333 76.6918 9.91071 75.8896C9.09201 75.0911 7.97464 74.683 6.76 74.683V76.683ZM9.18 79.103C9.18 80.0759 8.83755 80.5982 8.3301 81.001C7.73267 81.4753 6.92244 81.7792 5.8689 82.2134C4.89142 82.6164 3.73054 83.1267 2.8348 84.0384C1.89293 84.997 1.32 86.3128 1.32 88.163H3.32C3.32 86.7731 3.72958 85.9814 4.26144 85.4401C4.83946 84.8517 5.64358 84.4696 6.6311 84.0625C7.54256 83.6868 8.69733 83.2631 9.57365 82.5674C10.5399 81.8003 11.18 80.71 11.18 79.103H9.18ZM1.32 88.163C1.32 89.9732 1.72141 91.7083 2.6301 93.0219C3.56686 94.376 5.00876 95.223 6.88 95.223V93.223C5.69124 93.223 4.85314 92.7199 4.27489 91.8841C3.66859 91.0076 3.32 89.7127 3.32 88.163H1.32ZM6.88 95.223C8.62589 95.223 10.0491 94.4594 11.172 93.1171C12.2627 91.8134 13.0755 89.9634 13.721 87.7194L11.799 87.1665C11.1845 89.3025 10.4673 90.8425 9.63801 91.8338C8.84092 92.7866 7.95412 93.223 6.88 93.223V95.223ZM13.7274 87.6963L14.3874 85.1763L12.4526 84.6696L11.7926 87.1896L13.7274 87.6963ZM14.388 85.1739C15.5892 80.5408 18.4445 77.403 22.6 77.403V75.403C17.1555 75.403 13.7708 79.5851 12.452 84.672L14.388 85.1739ZM22.6 77.403C25.0866 77.403 27.0774 78.4995 28.475 80.363C29.8905 82.2502 30.72 84.9639 30.72 88.163H32.72C32.72 84.642 31.8095 81.4757 30.075 79.163C28.3226 76.8264 25.7534 75.403 22.6 75.403V77.403ZM30.72 88.163C30.72 90.5837 30.2849 93.0639 29.4771 94.9003C28.6449 96.7923 27.5914 97.663 26.5 97.663V99.663C28.8286 99.663 30.3851 97.8036 31.3079 95.7056C32.2551 93.552 32.72 90.7822 32.72 88.163H30.72ZM26.5 97.663C25.6378 97.663 25.0861 97.4194 24.755 97.1016C24.4287 96.7883 24.2 96.2911 24.2 95.543H22.2C22.2 96.7148 22.5713 97.7777 23.37 98.5444C24.164 99.3066 25.2622 99.663 26.5 99.663V97.663ZM24.2 95.543C24.2 94.5595 24.4998 94.0945 24.8697 93.772C25.3334 93.3677 25.9495 93.132 26.8497 92.7277C27.6768 92.3563 28.6772 91.8597 29.4434 90.9173C30.2305 89.9492 30.68 88.6312 30.68 86.783H28.68C28.68 88.2948 28.3195 89.1292 27.8916 89.6556C27.4428 90.2075 26.8232 90.5472 26.0303 90.9032C25.3105 91.2265 24.3066 91.6095 23.5553 92.2646C22.7102 93.0014 22.2 94.0364 22.2 95.543H24.2ZM30.68 86.783C30.68 85.138 30.2273 83.6316 29.349 82.5129C28.4565 81.3761 27.1521 80.683 25.6 80.683V82.683C26.5079 82.683 27.2435 83.0698 27.776 83.748C28.3227 84.4444 28.68 85.4879 28.68 86.783H30.68ZM25.6 80.683C24.1427 80.683 22.8143 81.1239 21.7032 82.291C20.6386 83.4092 19.8488 85.1172 19.2321 87.4916L21.1679 87.9944C21.7512 85.7487 22.4314 84.4267 23.1518 83.67C23.8257 82.9621 24.5973 82.683 25.6 82.683V80.683ZM19.2326 87.4896L18.5726 90.0096L20.5074 90.5163L21.1674 87.9963L19.2326 87.4896ZM18.5721 90.0117C17.7802 93.0618 16.7416 95.2691 15.3547 96.7093C14.0056 98.1103 12.2523 98.863 9.82 98.863V100.863C12.7277 100.863 15.0244 99.9356 16.7953 98.0966C18.5284 96.2968 19.6798 93.7041 20.5079 90.5143L18.5721 90.0117ZM9.82 98.863C7.03663 98.863 4.90919 97.5417 3.44321 95.4745C1.95864 93.3811 1.16 90.5195 1.16 87.563H-0.84C-0.84 90.8465 0.0413628 94.1349 1.81179 96.6314C3.6008 99.1542 6.30337 100.863 9.82 100.863V98.863ZM27.22 103.298V102.298H26.22V103.298H27.22ZM30.82 103.298H31.82V102.298H30.82V103.298ZM30.82 109.238H29.82V110.238H30.82V109.238ZM36.1 109.238L36.9082 108.65L36.6086 108.238H36.1V109.238ZM41.74 116.978V117.978H43.706L42.5482 116.39L41.74 116.978ZM30.82 116.978V115.978H29.82V116.978H30.82ZM30.82 127.838V128.838H31.82V127.838H30.82ZM27.22 127.838H26.22V128.838H27.22V127.838ZM27.22 116.978H28.22V115.978H27.22V116.978ZM7.3 127.358L8.14366 127.895L8.64675 127.105L7.89051 126.551L7.3 127.358ZM6.88 128.018L6.43279 128.913L7.23946 129.316L7.72366 128.555L6.88 128.018ZM27.22 109.238V110.238H28.22V109.238H27.22ZM27.22 104.298H30.82V102.298H27.22V104.298ZM29.82 103.298L29.82 109.238H31.82L31.82 103.298H29.82ZM30.82 110.238H36.1V108.238H30.82L30.82 110.238ZM35.2918 109.827L40.9318 117.567L42.5482 116.39L36.9082 108.65L35.2918 109.827ZM41.74 115.978H30.82V117.978H41.74V115.978ZM29.82 116.978L29.82 127.838H31.82L31.82 116.978H29.82ZM30.82 126.838H27.22V128.838H30.82V126.838ZM28.22 127.838L28.22 116.978H26.22L26.22 127.838H28.22ZM27.22 115.978L8.62 115.978V117.978L27.22 117.978V115.978ZM8.62 115.978C6.70889 115.978 5.1715 116.372 4.11259 117.321C3.02919 118.292 2.64 119.667 2.64 121.178H4.64C4.64 119.99 4.94081 119.265 5.44741 118.811C5.9785 118.335 6.93111 117.978 8.62 117.978V115.978ZM2.64 121.178C2.64 123.927 4.0747 126.238 6.70949 128.165L7.89051 126.551C5.6053 124.879 4.64 123.109 4.64 121.178H2.64ZM6.45634 126.822L6.03634 127.482L7.72366 128.555L8.14366 127.895L6.45634 126.822ZM7.32721 127.124C5.27004 126.095 3.74149 124.874 2.72393 123.394C1.71338 121.925 1.16 120.134 1.16 117.878H-0.84C-0.84 120.483 -0.193375 122.682 1.07607 124.528C2.33852 126.363 4.16996 127.781 6.43279 128.913L7.32721 127.124ZM1.16 117.878C1.16 115.229 1.71148 113.37 2.82216 112.167C3.91795 110.98 5.74055 110.238 8.74 110.238V108.238C5.43945 108.238 2.97205 109.057 1.35284 110.81C-0.251476 112.547 -0.84 115.008 -0.84 117.878H1.16ZM8.74 110.238L27.22 110.238L27.22 108.238L8.74 108.238V110.238ZM28.22 109.238L28.22 103.298H26.22L26.22 109.238H28.22ZM1 164.83V163.83H0V164.83H1ZM48.22 164.83H49.22V163.83H48.22V164.83ZM48.22 196.09V197.09H49.22V196.09H48.22ZM44.86 196.09H43.86V197.09H44.86V196.09ZM44.86 173.29H45.86V172.29H44.86V173.29ZM27.1 173.29V172.29H26.1V173.29H27.1ZM27.1 193.57V194.57H28.1V193.57H27.1ZM23.62 193.57H22.62V194.57H23.62V193.57ZM23.62 173.29H24.62V172.29H23.62V173.29ZM1 173.29H0V174.29H1V173.29ZM1 165.83H48.22V163.83H1V165.83ZM47.22 164.83L47.22 196.09H49.22L49.22 164.83H47.22ZM48.22 195.09H44.86V197.09H48.22V195.09ZM45.86 196.09L45.86 173.29H43.86L43.86 196.09H45.86ZM44.86 172.29H27.1V174.29H44.86V172.29ZM26.1 173.29L26.1 193.57H28.1L28.1 173.29H26.1ZM27.1 192.57H23.62V194.57H27.1V192.57ZM24.62 193.57L24.62 173.29H22.62L22.62 193.57H24.62ZM23.62 172.29H1V174.29H23.62V172.29ZM2 173.29V164.83H0V173.29H2ZM48.22 210.102V211.102H49.22V210.102H48.22ZM1 210.102H0V211.102H1V210.102ZM1 202.302V201.302H0V202.302H1ZM48.22 202.302H49.22V201.302H48.22V202.302ZM48.22 209.102H1V211.102H48.22V209.102ZM2 210.102V202.302H0V210.102H2ZM1 203.302H48.22V201.302H1V203.302ZM47.22 202.302V210.102H49.22V202.302H47.22ZM15.82 249.173C11.5117 249.173 7.86153 247.604 5.28739 244.954C2.71167 242.301 1.16 238.51 1.16 233.973H-0.84C-0.84 238.976 0.878326 243.284 3.85261 246.347C6.82847 249.411 11.0083 251.173 15.82 251.173V249.173ZM1.16 233.973C1.16 229.404 2.71274 225.598 5.2883 222.939C7.86217 220.281 11.5118 218.713 15.82 218.713V216.713C11.0082 216.713 6.82783 218.474 3.8517 221.547C0.877262 224.618 -0.84 228.941 -0.84 233.973H1.16ZM15.82 218.713C20.1282 218.713 23.7778 220.281 26.3517 222.939C28.9273 225.598 30.48 229.404 30.48 233.973H32.48C32.48 228.941 30.7627 224.618 27.7883 221.547C24.8122 218.474 20.6318 216.713 15.82 216.713V218.713ZM30.48 233.973C30.48 238.51 28.9283 242.301 26.3526 244.954C23.7785 247.604 20.1283 249.173 15.82 249.173V251.173C20.6317 251.173 24.8115 249.411 27.7874 246.347C30.7617 243.284 32.48 238.976 32.48 233.973H30.48ZM15.82 242.833C19.8069 242.833 23.369 242.177 25.9727 240.761C28.6212 239.321 30.32 237.056 30.32 233.973H28.32C28.32 236.17 27.1688 237.834 25.0173 239.004C22.821 240.199 19.6332 240.833 15.82 240.833V242.833ZM30.32 233.973C30.32 230.89 28.6212 228.624 25.9727 227.184C23.369 225.769 19.8069 225.113 15.82 225.113V227.113C19.6332 227.113 22.821 227.747 25.0173 228.941C27.1688 230.111 28.32 231.776 28.32 233.973H30.32ZM15.82 225.113C11.8331 225.113 8.271 225.769 5.6673 227.184C3.01876 228.624 1.32 230.89 1.32 233.973H3.32C3.32 231.776 4.47123 230.111 6.6227 228.941C8.819 227.747 12.0069 227.113 15.82 227.113V225.113ZM1.32 233.973C1.32 237.056 3.01876 239.321 5.6673 240.761C8.271 242.177 11.8331 242.833 15.82 242.833V240.833C12.0069 240.833 8.819 240.199 6.6227 239.004C4.47123 237.834 3.32 236.17 3.32 233.973H1.32ZM15.82 287.083C11.5117 287.083 7.86153 285.514 5.28739 282.864C2.71167 280.212 1.16 276.42 1.16 271.883H-0.84C-0.84 276.886 0.878326 281.194 3.85261 284.257C6.82847 287.321 11.0083 289.083 15.82 289.083V287.083ZM1.16 271.883C1.16 267.314 2.71274 263.508 5.2883 260.849C7.86217 258.191 11.5118 256.623 15.82 256.623V254.623C11.0082 254.623 6.82783 256.385 3.8517 259.457C0.877262 262.528 -0.84 266.852 -0.84 271.883H1.16ZM15.82 256.623C20.1282 256.623 23.7778 258.191 26.3517 260.849C28.9273 263.508 30.48 267.314 30.48 271.883H32.48C32.48 266.852 30.7627 262.528 27.7883 259.457C24.8122 256.385 20.6318 254.623 15.82 254.623V256.623ZM30.48 271.883C30.48 276.42 28.9283 280.212 26.3526 282.864C23.7785 285.514 20.1283 287.083 15.82 287.083V289.083C20.6317 289.083 24.8115 287.321 27.7874 284.257C30.7617 281.194 32.48 276.886 32.48 271.883H30.48ZM15.82 280.743C19.8069 280.743 23.369 280.087 25.9727 278.672C28.6212 277.231 30.32 274.966 30.32 271.883H28.32C28.32 274.08 27.1688 275.745 25.0173 276.914C22.821 278.109 19.6332 278.743 15.82 278.743V280.743ZM30.32 271.883C30.32 268.8 28.6212 266.535 25.9727 265.094C23.369 263.679 19.8069 263.023 15.82 263.023V265.023C19.6332 265.023 22.821 265.657 25.0173 266.852C27.1688 268.021 28.32 269.686 28.32 271.883H30.32ZM15.82 263.023C11.8331 263.023 8.271 263.679 5.6673 265.094C3.01876 266.535 1.32 268.8 1.32 271.883H3.32C3.32 269.686 4.47123 268.021 6.6227 266.852C8.819 265.657 12.0069 265.023 15.82 265.023V263.023ZM1.32 271.883C1.32 274.966 3.01876 277.231 5.6673 278.672C8.271 280.087 11.8331 280.743 15.82 280.743V278.743C12.0069 278.743 8.819 278.109 6.6227 276.914C4.47123 275.745 3.32 274.08 3.32 271.883H1.32ZM31.24 315.02V316.02H32.24V315.02H31.24ZM24.1 315.02L23.1101 314.879L22.947 316.02H24.1V315.02ZM21.82 303.5L22.2139 302.581L22.0253 302.5H21.82V303.5ZM1 303.5H0V304.5H1V303.5ZM1 295.7V294.7H0V295.7H1ZM30.82 295.7H31.82V294.7H30.82V295.7ZM30.82 303.5V304.5H31.82V303.5H30.82ZM21.82 303.5V302.5L21.5578 304.465L21.82 303.5ZM31.24 314.02H24.1V316.02H31.24V314.02ZM25.09 315.162C25.3337 313.456 25.52 311.545 25.52 309.86H23.52C23.52 311.416 23.3463 313.225 23.1101 314.879L25.09 315.162ZM25.52 309.86C25.52 308.339 25.3672 306.838 24.8949 305.567C24.414 304.273 23.579 303.166 22.2139 302.581L21.4261 304.419C22.1611 304.734 22.676 305.337 23.0201 306.263C23.3728 307.213 23.52 308.441 23.52 309.86H25.52ZM21.82 302.5H1V304.5H21.82V302.5ZM2 303.5V295.7H0V303.5H2ZM1 296.7H30.82V294.7H1V296.7ZM29.82 295.7V303.5H31.82V295.7H29.82ZM30.82 302.5H21.82V304.5H30.82V302.5ZM21.5578 304.465C24.2023 305.184 26.3602 306.322 27.8549 307.992C29.3332 309.644 30.24 311.9 30.24 315.02H32.24C32.24 311.48 31.1968 308.727 29.3451 306.658C27.5098 304.608 24.9577 303.317 22.0822 302.535L21.5578 304.465Z" fill="black" fill-opacity="0.5"/>
</svg>
