<svg width="49" height="400" viewBox="0 0 49 400" fill="none" xmlns="http://www.w3.org/2000/svg">
<path d="M44.8 45.94V46.94H45.3484L45.6432 46.4776L44.8 45.94ZM33.16 45.94H32.16V46.94H33.16V45.94ZM33.16 45.16L32.8508 44.209L32.16 44.4336V45.16H33.16ZM7.66 39.94L7.15711 40.8044L7.39026 40.94H7.66V39.94ZM19.78 39.94V40.94H20.78V39.94H19.78ZM19.78 30.7V29.7H18.78V30.7H19.78ZM23.32 30.7H24.32V29.7L23.32 29.7V30.7ZM23.32 48.04V49.04H24.32V48.04H23.32ZM7 48.04L6.32678 48.7794L6.61296 49.04H7V48.04ZM1.16 28.06C1.16 19.5423 3.81966 12.9944 8.03083 8.583C12.2423 4.17132 18.0771 1.82 24.58 1.82V-0.18C17.5829 -0.18 11.2077 2.35868 6.58417 7.202C1.96035 12.0456 -0.84 19.1177 -0.84 28.06H1.16ZM24.58 1.82C31.0774 1.82 36.9121 4.21249 41.1258 8.6695C45.34 13.1269 48 19.7219 48 28.24H50C50 19.2981 47.2 12.1831 42.5792 7.2955C37.9579 2.40751 31.5826 -0.18 24.58 -0.18V1.82ZM48 28.24C48 34.8677 46.872 40.8295 43.9568 45.4024L45.6432 46.4776C48.848 41.4505 50 35.0523 50 28.24H48ZM44.8 44.94H33.16V46.94H44.8V44.94ZM34.16 45.94V45.16H32.16V45.94H34.16ZM33.4692 46.111C38.5033 44.4741 41.9925 42.0749 44.2112 38.9687C46.4292 35.8636 47.3 32.1603 47.3 28.06H45.3C45.3 31.8797 44.4908 35.1364 42.5838 37.8063C40.6775 40.4751 37.5967 42.6659 32.8508 44.209L33.4692 46.111ZM47.3 28.06C47.3 22.9335 45.5177 18.1508 41.7196 14.6566C37.9265 11.167 32.2304 9.06 24.58 9.06V11.06C31.8696 11.06 37.0335 13.063 40.3654 16.1284C43.6924 19.1892 45.3 23.4065 45.3 28.06H47.3ZM24.58 9.06C16.9296 9.06 11.2335 11.167 7.44044 14.6566C3.64235 18.1508 1.86 22.9335 1.86 28.06H3.86C3.86 23.4065 5.46765 19.1892 8.79456 16.1284C12.1265 13.063 17.2904 11.06 24.58 11.06V9.06ZM1.86 28.06C1.86 30.3805 2.25024 32.9876 3.08223 35.2854C3.90609 37.5609 5.21618 39.6751 7.15711 40.8044L8.1629 39.0757C6.80382 38.2849 5.71391 36.6791 4.96276 34.6046C4.21976 32.5524 3.86 30.1795 3.86 28.06H1.86ZM7.66 40.94H19.78V38.94H7.66V40.94ZM20.78 39.94L20.78 30.7H18.78L18.78 39.94H20.78ZM19.78 31.7H23.32V29.7H19.78V31.7ZM22.32 30.7L22.32 48.04H24.32L24.32 30.7H22.32ZM23.32 47.04H7V49.04H23.32V47.04ZM7.67322 47.3006C5.83775 45.6295 4.19902 42.7764 3.01937 39.3034C1.84615 35.8493 1.16 31.8779 1.16 28.06H-0.84C-0.84 32.1021 -0.116154 36.2907 1.12563 39.9466C2.36097 43.5836 4.14225 46.7906 6.32678 48.7794L7.67322 47.3006ZM31.24 76.6178V77.6178H32.24V76.6178H31.24ZM24.1 76.6178L23.1101 76.4764L22.947 77.6178H24.1V76.6178ZM21.82 65.0978L22.2139 64.1787L22.0253 64.0978H21.82V65.0978ZM1 65.0978H0V66.0978H1V65.0978ZM1 57.2978V56.2978H0V57.2978H1ZM30.82 57.2978L31.82 57.2978V56.2978L30.82 56.2978V57.2978ZM30.82 65.0978V66.0978H31.82V65.0978H30.82ZM21.82 65.0978V64.0978L21.5578 66.0628L21.82 65.0978ZM31.24 75.6178H24.1V77.6178H31.24V75.6178ZM25.09 76.7592C25.3337 75.0532 25.52 73.1423 25.52 71.4578H23.52C23.52 73.0133 23.3463 74.8224 23.1101 76.4764L25.09 76.7592ZM25.52 71.4578C25.52 69.9367 25.3672 68.4355 24.8949 67.1645C24.414 65.8706 23.579 64.7637 22.2139 64.1787L21.4261 66.017C22.1611 66.3319 22.676 66.9351 23.0201 67.8612C23.3728 68.8102 23.52 70.039 23.52 71.4578H25.52ZM21.82 64.0978L1 64.0978V66.0978L21.82 66.0978V64.0978ZM2 65.0978V57.2978L0 57.2978V65.0978H2ZM1 58.2978L30.82 58.2978V56.2978L1 56.2978V58.2978ZM29.82 57.2978V65.0978H31.82V57.2978L29.82 57.2978ZM30.82 64.0978H21.82V66.0978H30.82V64.0978ZM21.5578 66.0628C24.2023 66.7814 26.3602 67.9201 27.8549 69.5898C29.3332 71.2412 30.24 73.4979 30.24 76.6178H32.24C32.24 73.0777 31.1968 70.3244 29.3451 68.2558C27.5098 66.2056 24.9577 64.9142 22.0822 64.1328L21.5578 66.0628ZM15.82 110.907C11.5117 110.907 7.86153 109.339 5.28739 106.688C2.71167 104.036 1.16 100.244 1.16 95.7072H-0.84C-0.84 100.71 0.878326 105.019 3.85261 108.081C6.82847 111.146 11.0083 112.907 15.82 112.907L15.82 110.907ZM1.16 95.7072C1.16 91.1386 2.71274 87.332 5.2883 84.6729C7.86217 82.0156 11.5118 80.4472 15.82 80.4472V78.4472C11.0082 78.4472 6.82783 80.2088 3.8517 83.2815C0.877262 86.3524 -0.84 90.6758 -0.84 95.7072H1.16ZM15.82 80.4472C20.1282 80.4472 23.7778 82.0156 26.3517 84.6729C28.9273 87.332 30.48 91.1386 30.48 95.7072H32.48C32.48 90.6758 30.7627 86.3524 27.7883 83.2815C24.8122 80.2088 20.6318 78.4472 15.82 78.4472V80.4472ZM30.48 95.7072C30.48 100.244 28.9283 104.036 26.3526 106.688C23.7785 109.339 20.1283 110.907 15.82 110.907L15.82 112.907C20.6317 112.907 24.8115 111.146 27.7874 108.081C30.7617 105.019 32.48 100.71 32.48 95.7072H30.48ZM15.82 104.567C19.8069 104.567 23.369 103.911 25.9727 102.496C28.6212 101.056 30.32 98.7902 30.32 95.7072H28.32C28.32 97.9042 27.1688 99.5688 25.0173 100.739C22.821 101.933 19.6332 102.567 15.82 102.567V104.567ZM30.32 95.7072C30.32 92.6242 28.6212 90.3588 25.9727 88.9187C23.369 87.5029 19.8069 86.8472 15.82 86.8472V88.8472C19.6332 88.8472 22.821 89.4815 25.0173 90.6757C27.1688 91.8456 28.32 93.5102 28.32 95.7072H30.32ZM15.82 86.8472C11.8331 86.8472 8.271 87.5029 5.6673 88.9187C3.01876 90.3588 1.32 92.6242 1.32 95.7072H3.32C3.32 93.5102 4.47123 91.8456 6.6227 90.6757C8.819 89.4815 12.0069 88.8472 15.82 88.8472V86.8472ZM1.32 95.7072C1.32 98.7902 3.01876 101.056 5.6673 102.496C8.271 103.911 11.8331 104.567 15.82 104.567V102.567C12.0069 102.567 8.819 101.933 6.6227 100.739C4.47123 99.5688 3.32 97.9042 3.32 95.7072H1.32ZM8.44 138.544L8.18551 139.511L8.83809 137.627L8.44 138.544ZM30.82 118.744H31.82V117.744H30.82V118.744ZM30.82 126.544V127.544H31.82V126.544H30.82ZM1 138.544V137.544H0V138.544H1ZM30.82 138.544H31.82V137.544H30.82V138.544ZM30.82 146.344V147.344H31.82V146.344H30.82ZM1 146.344H0V147.344H1V146.344ZM8.69449 137.577C6.01888 136.873 4.15358 135.629 2.95349 134.078C1.75256 132.525 1.16 130.59 1.16 128.404H-0.84C-0.84 130.959 -0.142559 133.344 1.37151 135.301C2.88642 137.26 5.16113 138.716 8.18551 139.511L8.69449 137.577ZM1.16 128.404C1.16 124.999 2.39781 122.913 4.2658 121.631C6.19977 120.304 8.94738 119.744 12.1 119.744V117.744C8.77262 117.744 5.55023 118.324 3.1342 119.982C0.652187 121.686 -0.84 124.43 -0.84 128.404H1.16ZM12.1 119.744L30.82 119.744V117.744L12.1 117.744V119.744ZM29.82 118.744V126.544H31.82V118.744H29.82ZM30.82 125.544L10.84 125.544V127.544H30.82V125.544ZM10.84 125.544C8.2562 125.544 6.22362 126.021 4.82179 127.103C3.36737 128.224 2.76 129.861 2.76 131.764H4.76C4.76 130.308 5.20263 129.335 6.04321 128.686C6.93638 127.997 8.4438 127.544 10.84 127.544V125.544ZM2.76 131.764C2.76 133.599 3.17189 135.163 4.08853 136.471C4.99941 137.771 6.34338 138.725 8.04191 139.462L8.83809 137.627C7.35662 136.984 6.36059 136.228 5.72647 135.323C5.09811 134.426 4.76 133.29 4.76 131.764H2.76ZM1 139.544H30.82V137.544H1V139.544ZM29.82 138.544L29.82 146.344H31.82L31.82 138.544H29.82ZM30.82 145.344H1V147.344H30.82V145.344ZM2 146.344V138.544H0V146.344H2ZM22.6 164.238L22.9799 163.313L22.7974 163.238H22.6V164.238ZM1 164.238H0V165.238H1V164.238ZM1 156.438V155.438H0V156.438H1ZM30.82 156.438H31.82V155.438H30.82V156.438ZM30.82 164.238V165.238H31.82V164.238H30.82ZM22.6 164.238V163.238L22.4058 165.219L22.6 164.238ZM1 184.338H0V185.338H1V184.338ZM1 176.538V175.538H0V176.538H1ZM28.16 171.018C28.16 169.468 27.8298 167.926 26.9917 166.564C26.1484 165.194 24.8326 164.074 22.9799 163.313L22.2201 165.163C23.7274 165.783 24.6916 166.643 25.2883 167.613C25.8902 168.591 26.16 169.748 26.16 171.018H28.16ZM22.6 163.238H1V165.238H22.6V163.238ZM2 164.238V156.438H0V164.238H2ZM1 157.438H30.82V155.438H1V157.438ZM29.82 156.438L29.82 164.238H31.82L31.82 156.438H29.82ZM30.82 163.238H22.6V165.238H30.82V163.238ZM22.4058 165.219C25.2437 165.781 27.2413 167.012 28.5338 168.616C29.8295 170.224 30.48 172.286 30.48 174.618H32.48C32.48 171.911 31.7205 169.383 30.0912 167.361C28.4587 165.335 26.0163 163.896 22.7942 163.257L22.4058 165.219ZM30.48 174.618C30.48 178.164 29.2573 180.259 27.4573 181.516C25.5898 182.821 22.9402 183.338 19.9 183.338V185.338C23.0998 185.338 26.2402 184.806 28.6027 183.156C31.0327 181.458 32.48 178.693 32.48 174.618H30.48ZM19.9 183.338H1V185.338H19.9V183.338ZM2 184.338V176.538H0V184.338H2ZM1 177.538H19.48V175.538H1V177.538ZM19.48 177.538C22.4476 177.538 24.6336 176.917 26.0915 175.722C27.5843 174.498 28.16 172.801 28.16 171.018H26.16C26.16 172.356 25.7457 173.419 24.8235 174.175C23.8664 174.96 22.2124 175.538 19.48 175.538V177.538ZM48.22 214.885H49.22V213.885H48.22V214.885ZM48.22 222.745V223.745H49.22V222.745H48.22ZM1 222.745H0V223.745H1V222.745ZM1 214.885V213.885H0V214.885H1ZM25.84 214.885L25.0859 214.229L26.2937 215.777L25.84 214.885ZM5.74 214.885L5.27288 215.77L6.49408 214.229L5.74 214.885ZM47.22 214.885V222.745H49.22V214.885H47.22ZM48.22 221.745H1V223.745H48.22V221.745ZM2 222.745V214.885H0V222.745H2ZM1 215.885H48.22V213.885H1V215.885ZM15.82 192.185C20.2877 192.185 23.9475 193.601 26.4805 195.947C29.0079 198.288 30.48 201.615 30.48 205.585H32.48C32.48 201.096 30.8021 197.223 27.8395 194.479C24.8825 191.74 20.7123 190.185 15.82 190.185V192.185ZM30.48 205.585C30.48 207.783 29.9402 209.493 29.061 210.835C28.1783 212.182 26.9157 213.216 25.3863 213.994L26.2937 215.777C28.0643 214.875 29.6217 213.629 30.734 211.931C31.8498 210.228 32.48 208.128 32.48 205.585H30.48ZM26.5941 215.542C28.3762 213.496 29.06 211.461 29.06 209.065H27.06C27.06 210.99 26.5438 212.555 25.0859 214.229L26.5941 215.542ZM29.06 209.065C29.06 202.724 23.3374 198.465 15.82 198.465V200.465C22.7026 200.465 27.06 204.246 27.06 209.065H29.06ZM15.82 198.465C8.3026 198.465 2.58 202.724 2.58 209.065H4.58C4.58 204.246 8.9374 200.465 15.82 200.465V198.465ZM2.58 209.065C2.58 211.441 3.19115 213.482 4.98592 215.542L6.49408 214.229C5.04885 212.569 4.58 211.01 4.58 209.065H2.58ZM6.20712 214.001C3.30152 212.466 1.16 209.898 1.16 205.585H-0.84C-0.84 210.753 1.81848 213.945 5.27288 215.77L6.20712 214.001ZM1.16 205.585C1.16 201.613 2.61913 198.285 5.13803 195.946C7.66226 193.601 11.321 192.185 15.82 192.185V190.185C10.899 190.185 6.72774 191.74 3.77697 194.48C0.820869 197.226 -0.84 201.098 -0.84 205.585H1.16ZM1 249.103V248.103H0V249.103H1ZM48.22 249.103H49.22V248.103H48.22V249.103ZM48.22 280.363V281.363H49.22V280.363H48.22ZM44.86 280.363H43.86V281.363H44.86V280.363ZM44.86 257.563H45.86V256.563H44.86V257.563ZM27.1 257.563V256.563H26.1V257.563H27.1ZM27.1 277.843V278.843H28.1V277.843H27.1ZM23.62 277.843H22.62V278.843H23.62V277.843ZM23.62 257.563H24.62V256.563H23.62V257.563ZM1 257.563H0L0 258.563H1L1 257.563ZM1 250.103H48.22V248.103H1V250.103ZM47.22 249.103L47.22 280.363H49.22L49.22 249.103H47.22ZM48.22 279.363H44.86V281.363H48.22V279.363ZM45.86 280.363L45.86 257.563H43.86L43.86 280.363H45.86ZM44.86 256.563H27.1V258.563H44.86V256.563ZM26.1 257.563L26.1 277.843H28.1L28.1 257.563H26.1ZM27.1 276.843H23.62V278.843H27.1V276.843ZM24.62 277.843L24.62 257.563H22.62L22.62 277.843H24.62ZM23.62 256.563H1L1 258.563H23.62V256.563ZM2 257.563V249.103H0V257.563H2ZM48.22 294.375V295.375H49.22V294.375H48.22ZM1 294.375H0V295.375H1V294.375ZM1 286.575V285.575H0V286.575H1ZM48.22 286.575H49.22V285.575H48.22V286.575ZM48.22 293.375H1V295.375H48.22V293.375ZM2 294.375L2 286.575H0L0 294.375H2ZM1 287.575H48.22V285.575H1V287.575ZM47.22 286.575L47.22 294.375H49.22L49.22 286.575H47.22ZM15.82 333.446C11.5117 333.446 7.86153 331.878 5.28739 329.227C2.71167 326.575 1.16 322.783 1.16 318.246H-0.84C-0.84 323.249 0.878326 327.558 3.85261 330.62C6.82847 333.685 11.0083 335.446 15.82 335.446V333.446ZM1.16 318.246C1.16 313.678 2.71274 309.871 5.2883 307.212C7.86217 304.555 11.5118 302.986 15.82 302.986V300.986C11.0082 300.986 6.82783 302.748 3.8517 305.821C0.877262 308.891 -0.84 313.215 -0.84 318.246H1.16ZM15.82 302.986C20.1282 302.986 23.7778 304.555 26.3517 307.212C28.9273 309.871 30.48 313.678 30.48 318.246H32.48C32.48 313.215 30.7627 308.891 27.7883 305.821C24.8122 302.748 20.6318 300.986 15.82 300.986V302.986ZM30.48 318.246C30.48 322.783 28.9283 326.575 26.3526 329.227C23.7785 331.878 20.1283 333.446 15.82 333.446V335.446C20.6317 335.446 24.8115 333.685 27.7874 330.62C30.7617 327.558 32.48 323.249 32.48 318.246H30.48ZM15.82 327.106C19.8069 327.106 23.369 326.451 25.9727 325.035C28.6212 323.595 30.32 321.329 30.32 318.246H28.32C28.32 320.443 27.1688 322.108 25.0173 323.278C22.821 324.472 19.6332 325.106 15.82 325.106L15.82 327.106ZM30.32 318.246C30.32 315.163 28.6212 312.898 25.9727 311.458C23.369 310.042 19.8069 309.386 15.82 309.386L15.82 311.386C19.6332 311.386 22.821 312.021 25.0173 313.215C27.1688 314.385 28.32 316.049 28.32 318.246H30.32ZM15.82 309.386C11.8331 309.386 8.271 310.042 5.6673 311.458C3.01876 312.898 1.32 315.163 1.32 318.246H3.32C3.32 316.049 4.47123 314.385 6.6227 313.215C8.819 312.021 12.0069 311.386 15.82 311.386L15.82 309.386ZM1.32 318.246C1.32 321.329 3.01876 323.595 5.6673 325.035C8.271 326.451 11.8331 327.106 15.82 327.106L15.82 325.106C12.0069 325.106 8.819 324.472 6.6227 323.278C4.47123 322.108 3.32 320.443 3.32 318.246H1.32ZM15.82 371.356C11.5117 371.356 7.86153 369.788 5.28739 367.137C2.71167 364.485 1.16 360.693 1.16 356.156H-0.84C-0.84 361.159 0.878326 365.468 3.85261 368.531C6.82847 371.595 11.0083 373.356 15.82 373.356L15.82 371.356ZM1.16 356.156C1.16 351.588 2.71274 347.781 5.2883 345.122C7.86217 342.465 11.5118 340.896 15.82 340.896V338.896C11.0082 338.896 6.82783 340.658 3.8517 343.731C0.877262 346.802 -0.84 351.125 -0.84 356.156H1.16ZM15.82 340.896C20.1282 340.896 23.7778 342.465 26.3517 345.122C28.9273 347.781 30.48 351.588 30.48 356.156H32.48C32.48 351.125 30.7627 346.802 27.7883 343.731C24.8122 340.658 20.6318 338.896 15.82 338.896V340.896ZM30.48 356.156C30.48 360.693 28.9283 364.485 26.3526 367.137C23.7785 369.788 20.1283 371.356 15.82 371.356L15.82 373.356C20.6317 373.356 24.8115 371.595 27.7874 368.531C30.7617 365.468 32.48 361.159 32.48 356.156H30.48ZM15.82 365.016C19.8069 365.016 23.369 364.361 25.9727 362.945C28.6212 361.505 30.32 359.239 30.32 356.156H28.32C28.32 358.353 27.1688 360.018 25.0173 361.188C22.821 362.382 19.6332 363.016 15.82 363.016V365.016ZM30.32 356.156C30.32 353.073 28.6212 350.808 25.9727 349.368C23.369 347.952 19.8069 347.296 15.82 347.296V349.296C19.6332 349.296 22.821 349.931 25.0173 351.125C27.1688 352.295 28.32 353.959 28.32 356.156H30.32ZM15.82 347.296C11.8331 347.296 8.271 347.952 5.6673 349.368C3.01876 350.808 1.32 353.073 1.32 356.156H3.32C3.32 353.959 4.47123 352.295 6.6227 351.125C8.819 349.931 12.0069 349.296 15.82 349.296V347.296ZM1.32 356.156C1.32 359.239 3.01876 361.505 5.6673 362.945C8.271 364.361 11.8331 365.016 15.82 365.016V363.016C12.0069 363.016 8.819 362.382 6.6227 361.188C4.47123 360.018 3.32 358.353 3.32 356.156H1.32ZM31.24 399.294V400.294H32.24V399.294H31.24ZM24.1 399.294L23.1101 399.152L22.947 400.294H24.1V399.294ZM21.82 387.774L22.2139 386.854L22.0253 386.774H21.82L21.82 387.774ZM1 387.774H0V388.774H1V387.774ZM1 379.974V378.974H0V379.974H1ZM30.82 379.974H31.82V378.974H30.82V379.974ZM30.82 387.774V388.774H31.82V387.774H30.82ZM21.82 387.774L21.82 386.774L21.5578 388.739L21.82 387.774ZM31.24 398.294H24.1V400.294H31.24V398.294ZM25.09 399.435C25.3337 397.729 25.52 395.818 25.52 394.134H23.52C23.52 395.689 23.3463 397.498 23.1101 399.152L25.09 399.435ZM25.52 394.134C25.52 392.612 25.3672 391.111 24.8949 389.84C24.414 388.546 23.579 387.439 22.2139 386.854L21.4261 388.693C22.1611 389.008 22.676 389.611 23.0201 390.537C23.3728 391.486 23.52 392.715 23.52 394.134H25.52ZM21.82 386.774H1V388.774H21.82L21.82 386.774ZM2 387.774L2 379.974H0L0 387.774H2ZM1 380.974H30.82V378.974H1L1 380.974ZM29.82 379.974L29.82 387.774H31.82L31.82 379.974H29.82ZM30.82 386.774H21.82L21.82 388.774H30.82L30.82 386.774ZM21.5578 388.739C24.2023 389.457 26.3602 390.596 27.8549 392.266C29.3332 393.917 30.24 396.174 30.24 399.294H32.24C32.24 395.754 31.1968 393 29.3451 390.932C27.5098 388.881 24.9577 387.59 22.0822 386.809L21.5578 388.739Z" fill="black" fill-opacity="0.5"/>
</svg>
