<svg width="49" height="391" viewBox="0 0 49 391" fill="none" xmlns="http://www.w3.org/2000/svg">
<path d="M21.16 17.3L22.102 17.6357L22.1023 17.6348L21.16 17.3ZM22.78 12.74L21.8396 12.3999L21.8377 12.4052L22.78 12.74ZM45.82 31.04V32.04H46.4337L46.7116 31.4929L45.82 31.04ZM33.7 31.04H32.7V32.04H33.7V31.04ZM33.7 30.26L33.4301 29.2971L32.7 29.5018V30.26H33.7ZM30.52 15.86L29.5848 15.5059L29.5814 15.5147L29.5783 15.5237L30.52 15.86ZM28.72 20.9L29.659 21.244L29.6617 21.2363L28.72 20.9ZM3.82 0.8V-0.2H3.2356L2.94875 0.309156L3.82 0.8ZM17.14 0.8H18.14V-0.2L17.14 -0.2V0.8ZM17.14 1.52L17.3993 2.4858L18.14 2.28695V1.52H17.14ZM11.38 27.96C14.1824 27.96 16.3508 26.9411 18.0815 25.0843C19.7691 23.2739 21.0093 20.7012 22.102 17.6357L20.218 16.9643C19.1507 19.9588 18.0209 22.2161 16.6185 23.7207C15.2592 25.1789 13.6176 25.96 11.38 25.96V27.96ZM22.1023 17.6348L23.7223 13.0748L21.8377 12.4052L20.2177 16.9652L22.1023 17.6348ZM23.7204 13.0801C25.2073 8.96933 27.1106 6.2548 29.2752 4.56591C31.4273 2.88667 33.9159 2.16 36.7 2.16V0.16C33.5441 0.16 30.6027 0.993329 28.0448 2.9891C25.4994 4.9752 23.4127 8.05067 21.8396 12.3999L23.7204 13.0801ZM36.7 2.16C40.2924 2.16 43.0746 3.74737 44.99 6.36981C46.9264 9.02116 48 12.7727 48 17.06H50C50 12.4673 48.8536 8.26884 46.605 5.1902C44.3354 2.08263 40.9676 0.16 36.7 0.16V2.16ZM48 17.06C48 22.1885 46.7745 26.9526 44.9284 30.5871L46.7116 31.4929C48.7055 27.5674 50 22.4915 50 17.06H48ZM45.82 30.04H33.7V32.04H45.82V30.04ZM34.7 31.04V30.26H32.7V31.04H34.7ZM33.9699 31.2229C38.0226 30.0869 41.3399 28.4316 43.652 26.0872C45.9905 23.716 47.24 20.6998 47.24 17H45.24C45.24 20.2002 44.1795 22.704 42.228 24.6828C40.2501 26.6884 37.2974 28.2131 33.4301 29.2971L33.9699 31.2229ZM47.24 17C47.24 13.8986 46.5529 11.3771 45.2058 9.60693C43.8326 7.80241 41.8483 6.88 39.52 6.88V8.88C41.2717 8.88 42.6474 9.54759 43.6142 10.8181C44.6071 12.1229 45.24 14.1614 45.24 17H47.24ZM39.52 6.88C37.5093 6.88 35.6066 7.38096 33.8932 8.77734C32.2058 10.1526 30.7887 12.3263 29.5848 15.5059L31.4552 16.2141C32.5913 13.2137 33.8442 11.3974 35.1568 10.3277C36.4434 9.27904 37.8707 8.88 39.52 8.88V6.88ZM29.5783 15.5237L27.7783 20.5637L29.6617 21.2363L31.4617 16.1963L29.5783 15.5237ZM27.781 20.556C26.6707 23.5869 25.371 26.7611 23.3022 29.183C21.2755 31.5555 18.4992 33.22 14.32 33.22V35.22C19.1408 35.22 22.4545 33.2545 24.8229 30.482C27.149 27.7589 28.5493 24.2731 29.659 21.244L27.781 20.556ZM14.32 33.22C9.98695 33.22 6.74456 31.4202 4.55542 28.4714C2.34142 25.4891 1.16 21.2637 1.16 16.4H-0.84C-0.84 21.5563 0.408585 26.2409 2.94958 29.6636C5.51544 33.1198 9.35305 35.22 14.32 35.22V33.22ZM1.16 16.4C1.16 10.8299 2.39413 5.36823 4.69125 1.29084L2.94875 0.309156C0.445869 4.75178 -0.84 10.5701 -0.84 16.4H1.16ZM3.82 1.8L17.14 1.8V-0.2L3.82 -0.2V1.8ZM16.14 0.8V1.52H18.14V0.8H16.14ZM16.8807 0.554197C12.3332 1.77502 8.60758 3.49875 6.0116 6.01436C3.38115 8.56337 1.98 11.8588 1.98 16.04H3.98C3.98 12.3612 5.18885 9.59663 7.4034 7.45064C9.65242 5.27125 13.0068 3.66498 17.3993 2.4858L16.8807 0.554197ZM1.98 16.04C1.98 19.6188 2.65399 22.5993 4.2169 24.7058C5.81981 26.8663 8.24572 27.96 11.38 27.96V25.96C8.75428 25.96 6.98019 25.0737 5.8231 23.5142C4.62601 21.9007 3.98 19.4212 3.98 16.04H1.98ZM21.52 49.0545L21.6792 48.0673L20.52 47.8803V49.0545H21.52ZM21.52 61.2945H20.52V62.3073L21.5327 62.2944L21.52 61.2945ZM11.44 68.6745L12.3887 68.9908L12.7037 68.0456L11.7598 67.727L11.44 68.6745ZM11.14 69.5745L10.8743 70.5386L11.7887 70.7906L12.0887 69.8908L11.14 69.5745ZM19.24 69.3945H18.24V70.4177L19.2629 70.3943L19.24 69.3945ZM19.24 48.8145H20.24V47.8944L19.323 47.818L19.24 48.8145ZM30.56 55.9545C30.56 53.898 29.8436 52.1146 28.2955 50.7434C26.7849 49.4054 24.565 48.5327 21.6792 48.0673L21.3608 50.0418C24.055 50.4763 25.8551 51.2536 26.9695 52.2406C28.0464 53.1945 28.56 54.4111 28.56 55.9545H30.56ZM20.52 49.0545L20.52 61.2945H22.52L22.52 49.0545H20.52ZM21.5327 62.2944C23.9695 62.2636 26.1894 61.8816 27.8307 60.9003C29.5501 59.8723 30.56 58.2264 30.56 55.9545H28.56C28.56 57.5227 27.9199 58.5168 26.8043 59.1837C25.6106 59.8975 23.8105 60.2655 21.5073 60.2946L21.5327 62.2944ZM10.4913 68.3583L10.1913 69.2583L12.0887 69.8908L12.3887 68.9908L10.4913 68.3583ZM11.4057 68.6105C7.74112 67.6006 5.2042 65.9998 3.57765 63.9377C1.95461 61.8801 1.16 59.2642 1.16 56.0745L-0.84 56.0745C-0.84 59.6049 0.0453949 62.689 2.00735 65.1763C3.9658 67.6592 6.91888 69.4485 10.8743 70.5386L11.4057 68.6105ZM1.16 56.0745C1.16 51.713 2.62432 48.0765 5.13194 45.5343C7.63775 42.9939 11.2557 41.4745 15.7 41.4745V39.4745C10.7843 39.4745 6.63225 41.1652 3.70806 44.1298C0.785679 47.0925 -0.84 51.2561 -0.84 56.0745L1.16 56.0745ZM15.7 41.4745C24.2027 41.4745 30.48 47.8618 30.48 56.2545L32.48 56.2545C32.48 46.7673 25.3173 39.4745 15.7 39.4745V41.4745ZM30.48 56.2545C30.48 59.6563 29.4462 62.6478 27.5566 64.7967C25.6785 66.9324 22.891 68.3107 19.2171 68.3948L19.2629 70.3943C23.449 70.2984 26.7815 68.7067 29.0585 66.1174C31.3238 63.5413 32.48 60.0528 32.48 56.2545L30.48 56.2545ZM20.24 69.3945L20.24 48.8145H18.24L18.24 69.3945H20.24ZM19.323 47.818C18.5539 47.7539 17.7907 47.7545 16.9 47.7545L16.9 49.7545C17.8093 49.7545 18.4861 49.7552 19.157 49.8111L19.323 47.818ZM16.9 47.7545C13.4725 47.7545 10.107 48.5149 7.57028 50.3433C4.98742 52.205 3.36 55.1083 3.36 59.1345H5.36C5.36 55.7208 6.70258 53.4341 8.73972 51.9658C10.823 50.4642 13.7275 49.7545 16.9 49.7545L16.9 47.7545ZM3.36 59.1345C3.36 61.5012 3.97791 63.6924 5.28677 65.5215C6.59643 67.3516 8.55215 68.7553 11.1202 69.622L11.7598 67.727C9.52784 66.9738 7.94357 65.7974 6.91323 64.3576C5.88209 62.9166 5.36 61.1478 5.36 59.1345H3.36ZM11.62 102.352L12.5687 102.668L12.8785 101.739L11.9557 101.41L11.62 102.352ZM11.32 103.252L11.0846 104.224L11.978 104.44L12.2687 103.568L11.32 103.252ZM23.36 98.7519C23.36 97.569 23.7162 96.9207 24.1747 96.4726C24.6895 95.9693 25.405 95.6398 26.3239 95.246C27.1704 94.8832 28.2383 94.449 29.0576 93.7032C29.9466 92.8939 30.5 91.7725 30.5 90.1719H28.5C28.5 91.2412 28.1609 91.8148 27.7112 92.2243C27.1917 92.6972 26.4746 93.0055 25.5361 93.4077C24.67 93.7789 23.6006 94.2369 22.7766 95.0424C21.8963 95.903 21.36 97.0847 21.36 98.7519H23.36ZM30.5 90.1719C30.5 87.4718 28.9297 85.414 26.6439 84.0806C24.3782 82.7589 21.34 82.0919 18.1 82.0919V84.0919C21.1 84.0919 23.7618 84.7148 25.6361 85.8082C27.4903 86.8897 28.5 88.372 28.5 90.1719H30.5ZM18.1 82.0919C13.9323 82.0919 10.2715 82.9532 7.62263 84.7901C4.92747 86.6592 3.36 89.488 3.36 93.1719H5.36C5.36 90.1358 6.61253 87.9245 8.76237 86.4336C10.9586 84.9106 14.1677 84.0919 18.1 84.0919V82.0919ZM3.36 93.1719C3.36 95.2467 3.92223 97.2899 5.22525 99.0721C6.52715 100.853 8.52204 102.31 11.2844 103.294L11.9557 101.41C9.49796 100.534 7.86285 99.291 6.83975 97.8917C5.81777 96.4939 5.36 94.8771 5.36 93.1719H3.36ZM10.6713 102.036L10.3713 102.936L12.2687 103.568L12.5687 102.668L10.6713 102.036ZM11.5554 102.28C7.84765 101.382 5.28267 99.9215 3.63477 97.9021C1.99159 95.8886 1.16 93.1963 1.16 89.6319H-0.84C-0.84 93.5075 0.068409 96.6952 2.08524 99.1666C4.09734 101.632 7.11235 103.262 11.0846 104.224L11.5554 102.28ZM1.16 89.6319C1.16 85.6518 2.60991 82.1951 5.12017 79.7334C7.62977 77.2723 11.2548 75.7519 15.7 75.7519V73.7519C10.7852 73.7519 6.64023 75.4415 3.71983 78.3054C0.800091 81.1687 -0.84 85.152 -0.84 89.6319H1.16ZM15.7 75.7519C20.8584 75.7519 24.5177 77.8208 26.9077 80.7735C29.3207 83.7547 30.48 87.6916 30.48 91.4319H32.48C32.48 87.3122 31.2093 82.9091 28.4623 79.5152C25.6923 76.093 21.4616 73.7519 15.7 73.7519V75.7519ZM30.48 91.4319C30.48 94.3291 29.956 96.8653 29.0767 98.6374C28.189 100.427 27.0643 101.232 25.9 101.232V103.232C28.1557 103.232 29.821 101.637 30.8683 99.5263C31.924 97.3985 32.48 94.5346 32.48 91.4319H30.48ZM25.9 101.232C24.4497 101.232 23.36 100.157 23.36 98.7519H21.36C21.36 101.306 23.3903 103.232 25.9 103.232V101.232ZM15.82 139.142C11.5117 139.142 7.86153 137.573 5.28739 134.922C2.71167 132.27 1.16 128.479 1.16 123.942H-0.84C-0.84 128.945 0.878326 133.253 3.85261 136.316C6.82847 139.38 11.0083 141.142 15.82 141.142V139.142ZM1.16 123.942C1.16 119.373 2.71274 115.566 5.2883 112.907C7.86217 110.25 11.5118 108.682 15.82 108.682V106.682C11.0082 106.682 6.82783 108.443 3.8517 111.516C0.877262 114.587 -0.84 118.91 -0.84 123.942H1.16ZM15.82 108.682C20.1282 108.682 23.7778 110.25 26.3517 112.907C28.9273 115.566 30.48 119.373 30.48 123.942H32.48C32.48 118.91 30.7627 114.587 27.7883 111.516C24.8122 108.443 20.6318 106.682 15.82 106.682V108.682ZM30.48 123.942C30.48 128.479 28.9283 132.27 26.3526 134.922C23.7785 137.573 20.1283 139.142 15.82 139.142V141.142C20.6317 141.142 24.8115 139.38 27.7874 136.316C30.7617 133.253 32.48 128.945 32.48 123.942H30.48ZM15.82 132.802C19.8069 132.802 23.369 132.146 25.9727 130.73C28.6212 129.29 30.32 127.025 30.32 123.942H28.32C28.32 126.139 27.1688 127.803 25.0173 128.973C22.821 130.167 19.6332 130.802 15.82 130.802V132.802ZM30.32 123.942C30.32 120.859 28.6212 118.593 25.9727 117.153C23.369 115.737 19.8069 115.082 15.82 115.082V117.082C19.6332 117.082 22.821 117.716 25.0173 118.91C27.1688 120.08 28.32 121.745 28.32 123.942H30.32ZM15.82 115.082C11.8331 115.082 8.271 115.737 5.6673 117.153C3.01876 118.593 1.32 120.859 1.32 123.942H3.32C3.32 121.745 4.47123 120.08 6.6227 118.91C8.819 117.716 12.0069 117.082 15.82 117.082V115.082ZM1.32 123.942C1.32 127.025 3.01876 129.29 5.6673 130.73C8.271 132.146 11.8331 132.802 15.82 132.802V130.802C12.0069 130.802 8.819 130.167 6.6227 128.973C4.47123 127.803 3.32 126.139 3.32 123.942H1.32ZM22.6 155.559L22.9799 154.634L22.7974 154.559H22.6V155.559ZM1 155.559H0V156.559H1V155.559ZM1 147.759V146.759H0V147.759H1ZM30.82 147.759H31.82V146.759H30.82V147.759ZM30.82 155.559L30.82 156.559H31.82V155.559H30.82ZM22.6 155.559V154.559L22.4058 156.54L22.6 155.559ZM1 175.659H0V176.659H1V175.659ZM1 167.859V166.859H0V167.859H1ZM28.16 162.339C28.16 160.789 27.8298 159.247 26.9917 157.885C26.1484 156.514 24.8326 155.395 22.9799 154.634L22.2201 156.484C23.7274 157.103 24.6916 157.963 25.2883 158.933C25.8902 159.911 26.16 161.069 26.16 162.339H28.16ZM22.6 154.559H1V156.559H22.6L22.6 154.559ZM2 155.559V147.759H0V155.559H2ZM1 148.759H30.82V146.759H1V148.759ZM29.82 147.759V155.559H31.82V147.759H29.82ZM30.82 154.559H22.6L22.6 156.559H30.82L30.82 154.559ZM22.4058 156.54C25.2437 157.102 27.2413 158.332 28.5338 159.936C29.8295 161.544 30.48 163.606 30.48 165.939H32.48C32.48 163.231 31.7205 160.703 30.0912 158.681C28.4587 156.655 26.0163 155.216 22.7942 154.578L22.4058 156.54ZM30.48 165.939C30.48 169.484 29.2573 171.579 27.4573 172.836C25.5898 174.141 22.9402 174.659 19.9 174.659V176.659C23.0998 176.659 26.2402 176.126 28.6027 174.476C31.0327 172.778 32.48 170.013 32.48 165.939H30.48ZM19.9 174.659H1V176.659H19.9V174.659ZM2 175.659V167.859H0V175.659H2ZM1 168.859H19.48V166.859H1V168.859ZM19.48 168.859C22.4476 168.859 24.6336 168.237 26.0915 167.042C27.5843 165.818 28.16 164.121 28.16 162.339H26.16C26.16 163.676 25.7457 164.739 24.8235 165.495C23.8664 166.28 22.2124 166.859 19.48 166.859V168.859ZM48.22 206.206H49.22V205.206H48.22V206.206ZM48.22 214.066V215.066H49.22V214.066H48.22ZM1 214.066H0V215.066H1V214.066ZM1 206.206V205.206H0V206.206H1ZM25.84 206.206L25.0859 205.549L26.2937 207.097L25.84 206.206ZM5.74 206.206L5.27288 207.09L6.49408 205.549L5.74 206.206ZM47.22 206.206V214.066H49.22V206.206H47.22ZM48.22 213.066H1V215.066H48.22V213.066ZM2 214.066V206.206H0V214.066H2ZM1 207.206H48.22V205.206H1V207.206ZM15.82 183.506C20.2877 183.506 23.9475 184.921 26.4805 187.267C29.0079 189.608 30.48 192.936 30.48 196.906H32.48C32.48 192.416 30.8021 188.544 27.8395 185.8C24.8825 183.061 20.7123 181.506 15.82 181.506V183.506ZM30.48 196.906C30.48 199.103 29.9402 200.813 29.061 202.155C28.1783 203.503 26.9157 204.536 25.3863 205.315L26.2937 207.097C28.0643 206.196 29.6217 204.949 30.734 203.251C31.8498 201.548 32.48 199.448 32.48 196.906H30.48ZM26.5941 206.863C28.3762 204.816 29.06 202.782 29.06 200.386H27.06C27.06 202.31 26.5438 203.875 25.0859 205.549L26.5941 206.863ZM29.06 200.386C29.06 194.045 23.3374 189.786 15.82 189.786V191.786C22.7026 191.786 27.06 195.567 27.06 200.386H29.06ZM15.82 189.786C8.3026 189.786 2.58 194.045 2.58 200.386H4.58C4.58 195.567 8.9374 191.786 15.82 191.786V189.786ZM2.58 200.386C2.58 202.761 3.19115 204.802 4.98592 206.863L6.49408 205.549C5.04885 203.89 4.58 202.33 4.58 200.386H2.58ZM6.20712 205.322C3.30152 203.787 1.16 201.218 1.16 196.906H-0.84C-0.84 202.073 1.81848 205.265 5.27288 207.09L6.20712 205.322ZM1.16 196.906C1.16 192.933 2.61913 189.605 5.13803 187.266C7.66226 184.922 11.321 183.506 15.82 183.506V181.506C10.899 181.506 6.72774 183.06 3.77697 185.801C0.820869 188.546 -0.84 192.419 -0.84 196.906H1.16ZM1 240.424V239.424H0V240.424H1ZM48.22 240.424H49.22V239.424H48.22V240.424ZM48.22 271.684V272.684H49.22V271.684H48.22ZM44.86 271.684H43.86V272.684H44.86V271.684ZM44.86 248.884H45.86V247.884H44.86V248.884ZM27.1 248.884L27.1 247.884H26.1L26.1 248.884H27.1ZM27.1 269.164V270.164H28.1V269.164H27.1ZM23.62 269.164H22.62V270.164H23.62V269.164ZM23.62 248.884H24.62L24.62 247.884H23.62L23.62 248.884ZM1 248.884H0V249.884H1V248.884ZM1 241.424H48.22V239.424H1V241.424ZM47.22 240.424L47.22 271.684H49.22L49.22 240.424H47.22ZM48.22 270.684H44.86V272.684H48.22V270.684ZM45.86 271.684L45.86 248.884H43.86L43.86 271.684H45.86ZM44.86 247.884H27.1L27.1 249.884H44.86V247.884ZM26.1 248.884L26.1 269.164H28.1L28.1 248.884H26.1ZM27.1 268.164H23.62V270.164H27.1V268.164ZM24.62 269.164L24.62 248.884H22.62L22.62 269.164H24.62ZM23.62 247.884H1V249.884H23.62L23.62 247.884ZM2 248.884V240.424H0V248.884H2ZM48.22 285.695L48.22 286.695H49.22V285.695H48.22ZM1 285.695H0L0 286.695H1L1 285.695ZM1 277.895V276.895H0V277.895H1ZM48.22 277.895H49.22V276.895H48.22V277.895ZM48.22 284.695H1L1 286.695H48.22L48.22 284.695ZM2 285.695V277.895H0V285.695H2ZM1 278.895H48.22V276.895H1V278.895ZM47.22 277.895V285.695H49.22L49.22 277.895H47.22ZM15.82 324.767C11.5117 324.767 7.86153 323.198 5.28739 320.547C2.71167 317.895 1.16 314.104 1.16 309.567H-0.84C-0.84 314.57 0.878326 318.878 3.85261 321.941C6.82847 325.005 11.0083 326.767 15.82 326.767V324.767ZM1.16 309.567C1.16 304.998 2.71274 301.191 5.2883 298.532C7.86217 295.875 11.5118 294.307 15.82 294.307L15.82 292.307C11.0082 292.307 6.82783 294.068 3.8517 297.141C0.877262 300.212 -0.84 304.535 -0.84 309.567H1.16ZM15.82 294.307C20.1282 294.307 23.7778 295.875 26.3517 298.532C28.9273 301.191 30.48 304.998 30.48 309.567H32.48C32.48 304.535 30.7627 300.212 27.7883 297.141C24.8122 294.068 20.6318 292.307 15.82 292.307L15.82 294.307ZM30.48 309.567C30.48 314.104 28.9283 317.895 26.3526 320.547C23.7785 323.198 20.1283 324.767 15.82 324.767V326.767C20.6317 326.767 24.8115 325.005 27.7874 321.941C30.7617 318.878 32.48 314.57 32.48 309.567H30.48ZM15.82 318.427C19.8069 318.427 23.369 317.771 25.9727 316.355C28.6212 314.915 30.32 312.65 30.32 309.567H28.32C28.32 311.764 27.1688 313.428 25.0173 314.598C22.821 315.792 19.6332 316.427 15.82 316.427V318.427ZM30.32 309.567C30.32 306.484 28.6212 304.218 25.9727 302.778C23.369 301.362 19.8069 300.707 15.82 300.707V302.707C19.6332 302.707 22.821 303.341 25.0173 304.535C27.1688 305.705 28.32 307.37 28.32 309.567H30.32ZM15.82 300.707C11.8331 300.707 8.271 301.362 5.6673 302.778C3.01876 304.218 1.32 306.484 1.32 309.567H3.32C3.32 307.37 4.47123 305.705 6.6227 304.535C8.819 303.341 12.0069 302.707 15.82 302.707V300.707ZM1.32 309.567C1.32 312.65 3.01876 314.915 5.6673 316.355C8.271 317.771 11.8331 318.427 15.82 318.427V316.427C12.0069 316.427 8.819 315.792 6.6227 314.598C4.47123 313.428 3.32 311.764 3.32 309.567H1.32ZM15.82 362.677C11.5117 362.677 7.86153 361.108 5.28739 358.458C2.71167 355.805 1.16 352.014 1.16 347.477H-0.84C-0.84 352.48 0.878326 356.788 3.85261 359.851C6.82847 362.915 11.0083 364.677 15.82 364.677V362.677ZM1.16 347.477C1.16 342.908 2.71274 339.102 5.2883 336.442C7.86217 333.785 11.5118 332.217 15.82 332.217V330.217C11.0082 330.217 6.82783 331.978 3.8517 335.051C0.877262 338.122 -0.84 342.445 -0.84 347.477H1.16ZM15.82 332.217C20.1282 332.217 23.7778 333.785 26.3517 336.442C28.9273 339.102 30.48 342.908 30.48 347.477H32.48C32.48 342.445 30.7627 338.122 27.7883 335.051C24.8122 331.978 20.6318 330.217 15.82 330.217V332.217ZM30.48 347.477C30.48 352.014 28.9283 355.805 26.3526 358.458C23.7785 361.108 20.1283 362.677 15.82 362.677V364.677C20.6317 364.677 24.8115 362.915 27.7874 359.851C30.7617 356.788 32.48 352.48 32.48 347.477H30.48ZM15.82 356.337C19.8069 356.337 23.369 355.681 25.9727 354.265C28.6212 352.825 30.32 350.56 30.32 347.477H28.32C28.32 349.674 27.1688 351.338 25.0173 352.508C22.821 353.702 19.6332 354.337 15.82 354.337L15.82 356.337ZM30.32 347.477C30.32 344.394 28.6212 342.128 25.9727 340.688C23.369 339.272 19.8069 338.617 15.82 338.617L15.82 340.617C19.6332 340.617 22.821 341.251 25.0173 342.445C27.1688 343.615 28.32 345.28 28.32 347.477H30.32ZM15.82 338.617C11.8331 338.617 8.271 339.272 5.6673 340.688C3.01876 342.128 1.32 344.394 1.32 347.477H3.32C3.32 345.28 4.47123 343.615 6.6227 342.445C8.819 341.251 12.0069 340.617 15.82 340.617L15.82 338.617ZM1.32 347.477C1.32 350.56 3.01876 352.825 5.6673 354.265C8.271 355.681 11.8331 356.337 15.82 356.337L15.82 354.337C12.0069 354.337 8.819 353.702 6.6227 352.508C4.47123 351.338 3.32 349.674 3.32 347.477H1.32ZM31.24 390.614V391.614H32.24V390.614H31.24ZM24.1 390.614L23.1101 390.472L22.947 391.614H24.1V390.614ZM21.82 379.094L22.2139 378.175L22.0253 378.094H21.82V379.094ZM1 379.094H0V380.094H1V379.094ZM1 371.294V370.294H0V371.294H1ZM30.82 371.294H31.82V370.294H30.82L30.82 371.294ZM30.82 379.094V380.094H31.82V379.094H30.82ZM21.82 379.094V378.094L21.5578 380.059L21.82 379.094ZM31.24 389.614H24.1V391.614H31.24V389.614ZM25.09 390.755C25.3337 389.049 25.52 387.138 25.52 385.454H23.52C23.52 387.009 23.3463 388.818 23.1101 390.472L25.09 390.755ZM25.52 385.454C25.52 383.933 25.3672 382.432 24.8949 381.161C24.414 379.867 23.579 378.76 22.2139 378.175L21.4261 380.013C22.1611 380.328 22.676 380.931 23.0201 381.857C23.3728 382.806 23.52 384.035 23.52 385.454H25.52ZM21.82 378.094H1V380.094H21.82V378.094ZM2 379.094L2 371.294H0L0 379.094H2ZM1 372.294H30.82L30.82 370.294H1V372.294ZM29.82 371.294V379.094H31.82L31.82 371.294H29.82ZM30.82 378.094H21.82V380.094H30.82V378.094ZM21.5578 380.059C24.2023 380.778 26.3602 381.916 27.8549 383.586C29.3332 385.237 30.24 387.494 30.24 390.614H32.24C32.24 387.074 31.1968 384.32 29.3451 382.252C27.5098 380.202 24.9577 378.91 22.0822 378.129L21.5578 380.059Z" fill="black" fill-opacity="0.5"/>
</svg>
