<svg width="689" height="124" viewBox="0 0 689 124" fill="none" xmlns="http://www.w3.org/2000/svg">
<path d="M79.304 52.8378H35.0013V26.7289H27.4912V84.5267H35.0013V58.9H79.304V84.5267H86.8141V26.7289H79.304V52.8378Z" fill="white"/>
<path d="M130.979 26.7289L103.144 84.5267H106.657H110.102H160.813H164.258H168.599L141.039 26.7289H130.979ZM158.195 78.9467H112.858L118.164 67.9934H152.958L158.195 78.9467ZM120.92 62.2756L135.802 31.5511L150.34 62.2756H120.92Z" fill="white"/>
<path d="M215.932 79.36C198.225 79.36 187.27 70.1978 187.27 55.9378V55.3178C187.27 41.3333 199.052 31.8267 216.139 31.8267C231.435 31.8267 238.738 36.6489 240.943 44.9156H248.384C246.386 32.3089 233.846 26.1089 216.07 26.1089C195.883 26.1089 179.484 38.3022 179.484 55.4556V56.0756C179.484 73.8489 194.022 85.3534 215.864 85.3534C234.467 85.3534 246.524 78.8089 249.349 65.4445H242.321C239.91 74.6067 230.746 79.36 215.932 79.36Z" fill="white"/>
<path d="M311.015 54.4222L274.429 26.7289H264.852L302.402 54.7667L263.061 84.5267H273.327L311.015 56.3511V84.5267H318.525V26.7289H311.015V54.4222Z" fill="white"/>
<path d="M373.714 54.2156C380.397 52.2867 383.98 47.2578 383.98 42.0222V41.6778C383.98 30.3111 374.058 26.7289 361.449 26.7289H334.992V84.5267H364.757C378.33 84.5267 387.976 79.2911 387.976 68.3378V67.9934C387.976 60.4845 382.808 56.0067 373.714 54.2156ZM342.364 32.3089H361.312C371.026 32.3089 376.676 34.9956 376.676 41.4711V41.8156C376.676 48.9111 371.715 52.0111 361.587 52.0111H342.433V32.3089H342.364ZM380.535 68.2689C380.535 75.2267 374.954 78.9467 364.619 78.9467H342.364V57.4534H362.827C374.54 57.4534 380.535 60.8289 380.535 67.9934V68.2689Z" fill="white"/>
<path d="M410.162 57.7978H444.819V52.0111H410.162V32.5156H451.295V26.7289H402.652V84.5267H453.224V78.6711H410.162V57.7978Z" fill="white"/>
<path d="M518.266 44.02V43.6756C518.266 31.4822 507.449 26.7289 494.564 26.7289H467.073V84.5267H474.583V61.1045H493.117L513.787 84.5267H522.813L501.661 60.5534C509.791 59.0378 518.266 54.0089 518.266 44.02ZM474.583 55.3867V32.4467H495.047C504.21 32.4467 510.756 35.5467 510.756 43.7445V44.0889C510.756 51.46 504.693 55.3867 495.047 55.3867H474.583Z" fill="white"/>
<path d="M590.818 44.02V43.6756C590.818 31.4822 580 26.7289 567.116 26.7289H539.625V84.5267H547.135V61.1045H565.669L586.339 84.5267H595.365L574.213 60.5534C582.343 59.0378 590.818 54.0089 590.818 44.02ZM547.135 55.3867V32.4467H567.598C576.762 32.4467 583.308 35.5467 583.308 43.7445V44.0889C583.308 51.46 577.244 55.3867 567.598 55.3867H547.135Z" fill="white"/>
<path d="M654.068 26.7289L633.053 54.6978L610.661 26.7289H602.186L628.919 60.0711V84.5267H636.429V60.2089L661.647 26.7289H654.068Z" fill="white"/>
</svg>
