<svg width="35" height="34" viewBox="0 0 35 34" fill="none" xmlns="http://www.w3.org/2000/svg">
<path d="M17.5001 24.5792C18.7754 24.5792 19.8093 23.5453 19.8093 22.27C19.8093 20.9947 18.7754 19.9608 17.5001 19.9608C16.2248 19.9608 15.1909 20.9947 15.1909 22.27C15.1909 23.5453 16.2248 24.5792 17.5001 24.5792Z" fill="white"/>
<path d="M26.3968 13.5008V11.73C26.3968 7.90499 25.476 2.83333 17.5002 2.83333C9.52433 2.83333 8.6035 7.90499 8.6035 11.73V13.5008C4.63683 13.9967 3.3335 16.0083 3.3335 20.9525V23.5875C3.3335 29.3958 5.10433 31.1667 10.9127 31.1667H24.0877C29.896 31.1667 31.6668 29.3958 31.6668 23.5875V20.9525C31.6668 16.0083 30.3635 13.9967 26.3968 13.5008ZM17.5002 26.5483C15.1343 26.5483 13.2218 24.6217 13.2218 22.27C13.2218 19.9042 15.1485 17.9917 17.5002 17.9917C19.8518 17.9917 21.7785 19.9183 21.7785 22.27C21.7785 24.6358 19.866 26.5483 17.5002 26.5483ZM10.9127 13.3733C10.7993 13.3733 10.7002 13.3733 10.5868 13.3733V11.73C10.5868 7.57916 11.7627 4.81666 17.5002 4.81666C23.2377 4.81666 24.4135 7.57916 24.4135 11.73V13.3875C24.3002 13.3875 24.201 13.3875 24.0877 13.3875H10.9127V13.3733Z" fill="white"/>
</svg>
