<svg width="34" height="34" viewBox="0 0 34 34" fill="none" xmlns="http://www.w3.org/2000/svg">
<path d="M29.5515 11.8575L19.734 4.00917C18.2181 2.79084 15.7673 2.79084 14.2656 3.99501L4.44814 11.8575C3.34314 12.7358 2.63481 14.5917 2.87564 15.98L4.75981 27.2567C5.09981 29.2683 7.02647 30.8975 9.06647 30.8975H24.9331C26.959 30.8975 28.8998 29.2542 29.2398 27.2567L31.124 15.98C31.3506 14.5917 30.6423 12.7358 29.5515 11.8575ZM18.0056 24.3667C17.7223 24.65 17.3681 24.7917 16.9998 24.7917C16.6315 24.7917 16.2773 24.65 15.994 24.3808C15.4415 23.8283 15.4415 22.9358 15.994 22.3833C16.5465 21.8308 17.4531 21.8308 18.0056 22.3833C18.5581 22.9217 18.5581 23.8142 18.0056 24.3667ZM20.7681 21.1083C20.5556 21.3208 20.2865 21.4342 20.0031 21.4342C19.734 21.4342 19.479 21.335 19.2665 21.1367C17.8923 19.8192 16.1073 19.8192 14.719 21.1367C14.294 21.5475 13.6281 21.5333 13.2173 21.1083C12.8065 20.6833 12.8206 20.0175 13.2456 19.6067C15.4415 17.4958 18.5156 17.4958 20.7256 19.6067C21.1648 20.0033 21.179 20.6833 20.7681 21.1083ZM23.7715 18.105C23.559 18.3175 23.2898 18.4308 23.0065 18.4308C22.7373 18.4308 22.4681 18.3317 22.2698 18.1333C21.604 17.4817 20.8531 16.9575 20.0598 16.575C18.0765 15.6258 15.909 15.6258 13.9398 16.575C13.1465 16.9575 12.4098 17.4817 11.7298 18.1333C11.319 18.5442 10.639 18.5442 10.2281 18.1192C9.81731 17.6942 9.83147 17.0283 10.2423 16.6175C11.0781 15.7958 12.0131 15.1442 13.019 14.6625C15.5831 13.43 18.4165 13.43 20.9665 14.6625C21.9723 15.1442 22.9073 15.7958 23.7431 16.6175C24.1681 17.0142 24.1823 17.6942 23.7715 18.105Z" fill="white"/>
</svg>
