<svg width="34" height="34" viewBox="0 0 34 34" fill="none" xmlns="http://www.w3.org/2000/svg">
<path d="M31.1667 30.1042H29.75V21.25C29.75 14.2092 24.0409 8.5 17 8.5C9.95921 8.5 4.25004 14.2092 4.25004 21.25V30.1042H2.83337C2.25254 30.1042 1.77087 30.5858 1.77087 31.1667C1.77087 31.7475 2.25254 32.2292 2.83337 32.2292H31.1667C31.7475 32.2292 32.2292 31.7475 32.2292 31.1667C32.2292 30.5858 31.7475 30.1042 31.1667 30.1042Z" fill="white"/>
<path d="M17 5.31266C16.4192 5.31266 15.9375 4.831 15.9375 4.25016V2.8335C15.9375 2.25266 16.4192 1.771 17 1.771C17.5808 1.771 18.0625 2.25266 18.0625 2.8335V4.25016C18.0625 4.831 17.5808 5.31266 17 5.31266Z" fill="white"/>
<path d="M7.08329 8.14604C6.81412 8.14604 6.54496 8.04687 6.33246 7.83437L4.91579 6.4177C4.50496 6.00687 4.50496 5.32687 4.91579 4.91604C5.32662 4.5052 6.00662 4.5052 6.41746 4.91604L7.83412 6.3327C8.24496 6.74353 8.24496 7.42354 7.83412 7.83437C7.62162 8.04687 7.35246 8.14604 7.08329 8.14604Z" fill="white"/>
<path d="M26.9166 8.14604C26.6475 8.14604 26.3783 8.04687 26.1658 7.83437C25.755 7.42354 25.755 6.74353 26.1658 6.3327L27.5825 4.91604C27.9933 4.5052 28.6733 4.5052 29.0841 4.91604C29.495 5.32687 29.495 6.00687 29.0841 6.4177L27.6675 7.83437C27.455 8.04687 27.1858 8.14604 26.9166 8.14604Z" fill="white"/>
</svg>
