<svg width="34" height="34" viewBox="0 0 34 34" fill="none" xmlns="http://www.w3.org/2000/svg">
<path d="M29.5517 11.8576L19.7342 4.00928C18.2184 2.79095 15.7675 2.79095 14.2659 3.99511L4.44838 11.8576C3.34338 12.7359 2.63505 14.5918 2.87588 15.9801L4.76005 27.2568C5.10005 29.2684 7.02672 30.8976 9.06672 30.8976H24.9334C26.9592 30.8976 28.9 29.2543 29.24 27.2568L31.1242 15.9801C31.3509 14.5918 30.6425 12.7359 29.5517 11.8576ZM18.0059 24.3668C17.7225 24.6501 17.3684 24.7918 17 24.7918C16.6317 24.7918 16.2775 24.6501 15.9942 24.3809C15.4417 23.8284 15.4417 22.9359 15.9942 22.3834C16.5467 21.8309 17.4534 21.8309 18.0059 22.3834C18.5584 22.9218 18.5584 23.8143 18.0059 24.3668ZM20.7684 21.1084C20.5559 21.3209 20.2867 21.4343 20.0034 21.4343C19.7342 21.4343 19.4792 21.3351 19.2667 21.1368C17.8926 19.8193 16.1076 19.8193 14.7192 21.1368C14.2942 21.5476 13.6284 21.5334 13.2175 21.1084C12.8067 20.6834 12.8209 20.0176 13.2459 19.6068C15.4417 17.4959 18.5159 17.4959 20.7259 19.6068C21.1651 20.0034 21.1792 20.6834 20.7684 21.1084ZM23.7717 18.1051C23.5592 18.3176 23.29 18.4309 23.0067 18.4309C22.7375 18.4309 22.4684 18.3318 22.2701 18.1334C21.6042 17.4818 20.8534 16.9576 20.06 16.5751C18.0767 15.6259 15.9092 15.6259 13.9401 16.5751C13.1467 16.9576 12.41 17.4818 11.73 18.1334C11.3192 18.5443 10.6392 18.5443 10.2284 18.1193C9.81755 17.6943 9.83172 17.0284 10.2425 16.6176C11.0784 15.7959 12.0134 15.1443 13.0192 14.6626C15.5834 13.4301 18.4167 13.4301 20.9667 14.6626C21.9725 15.1443 22.9076 15.7959 23.7434 16.6176C24.1684 17.0143 24.1826 17.6943 23.7717 18.1051Z" fill="white"/>
</svg>
