<svg width="35" height="34" viewBox="0 0 35 34" fill="none" xmlns="http://www.w3.org/2000/svg">
<path d="M17.5 24.5793C18.7753 24.5793 19.8091 23.5454 19.8091 22.2701C19.8091 20.9948 18.7753 19.9609 17.5 19.9609C16.2246 19.9609 15.1908 20.9948 15.1908 22.2701C15.1908 23.5454 16.2246 24.5793 17.5 24.5793Z" fill="white"/>
<path d="M26.3967 13.501V11.7302C26.3967 7.90516 25.4759 2.8335 17.5 2.8335C9.52421 2.8335 8.60337 7.90516 8.60337 11.7302V13.501C4.63671 13.9968 3.33337 16.0085 3.33337 20.9527V23.5877C3.33337 29.396 5.10421 31.1668 10.9125 31.1668H24.0875C29.8959 31.1668 31.6667 29.396 31.6667 23.5877V20.9527C31.6667 16.0085 30.3634 13.9968 26.3967 13.501ZM17.5 26.5485C15.1342 26.5485 13.2217 24.6218 13.2217 22.2702C13.2217 19.9043 15.1484 17.9918 17.5 17.9918C19.8517 17.9918 21.7784 19.9185 21.7784 22.2702C21.7784 24.636 19.8659 26.5485 17.5 26.5485ZM10.9125 13.3735C10.7992 13.3735 10.7 13.3735 10.5867 13.3735V11.7302C10.5867 7.57933 11.7625 4.81683 17.5 4.81683C23.2375 4.81683 24.4134 7.57933 24.4134 11.7302V13.3877C24.3 13.3877 24.2009 13.3877 24.0875 13.3877H10.9125V13.3735Z" fill="white"/>
</svg>
