<svg width="35" height="34" viewBox="0 0 35 34" fill="none" xmlns="http://www.w3.org/2000/svg">
<path d="M19.1716 16.8017C18.605 16.8017 18.095 16.49 17.8541 15.98L15.8 11.8858L15.205 12.9908C14.8791 13.6 14.2275 13.9825 13.5333 13.9825H12.4991C11.9183 13.9825 11.4366 13.5008 11.4366 12.92C11.4366 12.3392 11.9183 11.8575 12.4991 11.8575H13.4058L14.525 9.78918C14.7941 9.30751 15.3325 8.98168 15.8425 9.01001C16.395 9.01001 16.8908 9.33585 17.1458 9.81751L19.1716 13.8692L19.6533 12.8917C19.9791 12.24 20.6166 11.8433 21.3533 11.8433H22.5008C23.0816 11.8433 23.5633 12.325 23.5633 12.9058C23.5633 13.4867 23.0816 13.9683 22.5008 13.9683H21.495L20.4891 15.9658C20.2341 16.49 19.7383 16.8017 19.1716 16.8017Z" fill="white"/>
<path d="M4.39582 26.421C3.81499 26.421 3.33332 25.9393 3.33332 25.3585V17.2835C3.26249 13.4443 4.69332 9.81763 7.35665 7.09763C10.02 4.3918 13.59 2.9043 17.4292 2.9043C25.2775 2.9043 31.6667 9.29346 31.6667 17.1418V25.2168C31.6667 25.7976 31.185 26.2793 30.6042 26.2793C30.0233 26.2793 29.5417 25.7976 29.5417 25.2168V17.1418C29.5417 10.4693 24.1158 5.0293 17.4292 5.0293C14.1567 5.0293 11.125 6.29013 8.87249 8.58513C6.60582 10.8943 5.40165 13.9685 5.45832 17.2551V25.3443C5.45832 25.9393 4.99082 26.421 4.39582 26.421Z" fill="white"/>
<path d="M8.91504 17.6377H8.73087C5.75587 17.6377 3.33337 20.0602 3.33337 23.0352V25.6985C3.33337 28.6735 5.75587 31.096 8.73087 31.096H8.91504C11.89 31.096 14.3125 28.6735 14.3125 25.6985V23.0352C14.3125 20.0602 11.89 17.6377 8.91504 17.6377Z" fill="white"/>
<path d="M26.2692 17.6377H26.085C23.11 17.6377 20.6875 20.0602 20.6875 23.0352V25.6985C20.6875 28.6735 23.11 31.096 26.085 31.096H26.2692C29.2442 31.096 31.6667 28.6735 31.6667 25.6985V23.0352C31.6667 20.0602 29.2442 17.6377 26.2692 17.6377Z" fill="white"/>
</svg>
