<svg width="487" height="216" viewBox="0 0 487 216" fill="none" xmlns="http://www.w3.org/2000/svg">
<path d="M56.01 0.999999C71.5242 0.999999 85.2814 6.06319 95.1489 15.0554C105.007 24.0388 111.04 36.9938 111.04 52.91H113.04C113.04 36.4562 106.788 22.9562 96.4961 13.5771C86.2136 4.20681 71.9558 -1 56.01 -1V0.999999ZM111.04 52.91C111.04 68.8262 105.007 81.7812 95.1489 90.7646C85.2814 99.7568 71.5242 104.82 56.01 104.82V106.82C71.9558 106.82 86.2136 101.613 96.4961 92.2429C106.788 82.8638 113.04 69.3638 113.04 52.91H111.04ZM56.01 104.82C40.6275 104.82 26.9023 99.7579 17.0336 90.7646C7.17449 81.7801 1.11 68.8247 1.11 52.91H-0.89C-0.89 69.3653 5.39551 82.8649 15.6864 92.2429C25.9677 101.612 40.1925 106.82 56.01 106.82V104.82ZM1.11 52.91C1.11 36.9953 7.17449 24.0399 17.0336 15.0554C26.9023 6.06213 40.6275 0.999999 56.01 0.999999V-1C40.1925 -1 25.9677 4.20786 15.6864 13.5771C5.39551 22.9551 -0.89 36.4547 -0.89 52.91H1.11ZM56.01 4.84999C46.4463 4.84999 37.1923 8.56784 30.3423 16.4897C23.4994 24.4033 19.13 36.423 19.13 52.91H21.13C21.13 36.767 25.4056 25.2567 31.8552 17.7978C38.2977 10.3471 46.9837 6.84999 56.01 6.84999V4.84999ZM19.13 52.91C19.13 69.397 23.4994 81.4167 30.3423 89.3303C37.1923 97.2522 46.4463 100.97 56.01 100.97V98.97C46.9837 98.97 38.2977 95.4728 31.8552 88.0222C25.4056 80.5633 21.13 69.053 21.13 52.91H19.13ZM56.01 100.97C65.6368 100.97 74.9235 97.2535 81.7906 89.3312C88.6506 81.4172 93.02 69.3969 93.02 52.91H91.02C91.02 69.0531 86.7444 80.5628 80.2794 88.0213C73.8215 95.4715 65.1032 98.97 56.01 98.97V100.97ZM93.02 52.91C93.02 36.4231 88.6506 24.4028 81.7906 16.4888C74.9235 8.56645 65.6368 4.84999 56.01 4.84999V6.84999C65.1032 6.84999 73.8215 10.3485 80.2794 17.7987C86.7444 25.2572 91.02 36.7669 91.02 52.91H93.02ZM170.29 87.88L171.257 88.1345L169.373 87.4819L170.29 87.88ZM127.39 39.39V38.39H126.39V39.39H127.39ZM144.29 39.39H145.29V38.39H144.29V39.39ZM170.29 104H169.29V105H170.29V104ZM170.29 39.39V38.39H169.29V39.39H170.29ZM187.19 39.39H188.19V38.39H187.19V39.39ZM187.19 104V105H188.19V104H187.19ZM169.323 87.6255C167.744 93.6261 164.925 97.9064 161.326 100.69C157.726 103.475 153.271 104.82 148.32 104.82V106.82C153.64 106.82 158.545 105.37 162.549 102.272C166.555 99.1736 169.586 94.4839 171.257 88.1345L169.323 87.6255ZM148.32 104.82C140.61 104.82 135.707 101.99 132.683 97.5842C129.615 93.1127 128.39 86.8826 128.39 79.95H126.39C126.39 87.0574 127.635 93.7623 131.034 98.7158C134.479 103.735 140.041 106.82 148.32 106.82V104.82ZM128.39 79.95V39.39H126.39V79.95H128.39ZM127.39 40.39H144.29V38.39H127.39V40.39ZM143.29 39.39V82.68H145.29V39.39H143.29ZM143.29 82.68C143.29 88.1688 144.31 92.2664 146.423 95.007C148.578 97.8001 151.737 99.02 155.6 99.02V97.02C152.183 97.02 149.688 95.9649 148.007 93.7855C146.286 91.5536 145.29 87.9812 145.29 82.68H143.29ZM155.6 99.02C159.394 99.02 162.533 98.1706 165.128 96.3527C167.714 94.5406 169.665 91.8316 171.208 88.2781L169.373 87.4819C167.925 90.8184 166.171 93.1794 163.98 94.7148C161.797 96.2444 159.086 97.02 155.6 97.02V99.02ZM171.29 104V39.39H169.29V104H171.29ZM170.29 40.39H187.19V38.39H170.29V40.39ZM186.19 39.39V104H188.19V39.39H186.19ZM187.19 103H170.29V105H187.19V103ZM250.921 38.48H251.921V37.48H250.921V38.48ZM250.921 53.95L250.779 54.9399L251.921 55.103V53.95H250.921ZM225.961 58.89L225.041 58.4961L224.961 58.6847V58.89H225.961ZM225.961 104V105H226.961V104H225.961ZM209.061 104H208.061V105H209.061V104ZM209.061 39.39V38.39H208.061V39.39H209.061ZM225.961 39.39H226.961V38.39H225.961V39.39ZM225.961 58.89H224.961L226.926 59.1522L225.961 58.89ZM249.921 38.48V53.95H251.921V38.48H249.921ZM251.062 52.96C247.396 52.4363 243.315 52.04 239.741 52.04V54.04C243.186 54.04 247.165 54.4237 250.779 54.9399L251.062 52.96ZM239.741 52.04C236.504 52.04 233.411 52.3678 230.845 53.3214C228.256 54.2835 226.151 55.906 225.041 58.4961L226.88 59.2839C227.72 57.3239 229.32 56.0215 231.541 55.1961C233.785 54.3622 236.607 54.04 239.741 54.04V52.04ZM224.961 58.89V104H226.961V58.89H224.961ZM225.961 103H209.061V105H225.961V103ZM210.061 104V39.39H208.061V104H210.061ZM209.061 40.39H225.961V38.39H209.061V40.39ZM224.961 39.39V58.89H226.961V39.39H224.961ZM226.926 59.1522C228.519 53.2877 231.075 48.3823 234.915 44.9451C238.737 41.5243 243.916 39.48 250.921 39.48V37.48C243.496 37.48 237.82 39.6607 233.581 43.4549C229.361 47.2327 226.652 52.5323 224.996 58.6278L226.926 59.1522ZM112.56 111.69L113.559 111.644L113.515 110.69H112.56V111.69ZM117.24 214V215H118.287L118.239 213.954L117.24 214ZM98.65 214L97.651 214.045L97.6939 215H98.65V214ZM94.62 124.3L95.619 124.255L93.6772 123.967L94.62 124.3ZM62.9 214V215H63.6071L63.8428 214.333L62.9 214ZM52.5 214L51.569 214.365L51.818 215H52.5V214ZM17.79 125.47L18.721 125.105L16.791 125.426L17.79 125.47ZM13.89 214V215H14.8469L14.889 214.044L13.89 214ZM5.7 214L4.70099 213.956L4.65454 215H5.7V214ZM10.25 111.69V110.69H9.29348L9.25099 111.646L10.25 111.69ZM31.57 111.69L32.503 111.33L32.256 110.69H31.57V111.69ZM62.77 192.55L61.837 192.91L62.8151 195.445L63.7137 192.881L62.77 192.55ZM91.11 111.69V110.69H90.4008L90.1663 111.359L91.11 111.69ZM111.561 111.736L116.241 214.046L118.239 213.954L113.559 111.644L111.561 111.736ZM117.24 213H98.65V215H117.24V213ZM99.649 213.955L95.619 124.255L93.621 124.345L97.651 214.045L99.649 213.955ZM93.6772 123.967L61.9572 213.667L63.8428 214.333L95.5628 124.633L93.6772 123.967ZM62.9 213H52.5V215H62.9V213ZM53.431 213.635L18.721 125.105L16.859 125.835L51.569 214.365L53.431 213.635ZM16.791 125.426L12.891 213.956L14.889 214.044L18.789 125.514L16.791 125.426ZM13.89 213H5.7V215H13.89V213ZM6.69901 214.044L11.249 111.734L9.25099 111.646L4.70099 213.956L6.69901 214.044ZM10.25 112.69H31.57V110.69H10.25V112.69ZM30.637 112.05L61.837 192.91L63.703 192.19L32.503 111.33L30.637 112.05ZM63.7137 192.881L92.0537 112.021L90.1663 111.359L61.8263 192.219L63.7137 192.881ZM91.11 112.69H112.56V110.69H91.11V112.69ZM156.771 149.39H157.771V148.39H156.771V149.39ZM156.771 214V215H157.771V214H156.771ZM139.871 214H138.871V215H139.871V214ZM139.871 149.39V148.39H138.871V149.39H139.871ZM139.311 122.48C139.311 117.425 143.3 113.34 148.321 113.34V111.34C142.162 111.34 137.311 116.355 137.311 122.48H139.311ZM148.321 113.34C153.359 113.34 157.461 117.442 157.461 122.48H159.461C159.461 116.338 154.463 111.34 148.321 111.34V113.34ZM157.461 122.48C157.461 127.501 153.376 131.49 148.321 131.49V133.49C154.447 133.49 159.461 128.639 159.461 122.48H157.461ZM148.321 131.49C143.283 131.49 139.311 127.518 139.311 122.48H137.311C137.311 128.622 142.179 133.49 148.321 133.49V131.49ZM155.771 149.39V214H157.771V149.39H155.771ZM156.771 213H139.871V215H156.771V213ZM140.871 214V149.39H138.871V214H140.871ZM139.871 150.39H156.771V148.39H139.871V150.39ZM198.872 188.52L199.148 187.559L199.137 187.556L199.125 187.553L198.872 188.52ZM193.412 187.09L193.665 186.123L193.663 186.122L193.412 187.09ZM199.522 172.4L199.775 171.433L199.773 171.432L199.522 172.4ZM204.982 173.83L204.729 174.797L204.731 174.798L204.982 173.83ZM199.132 214.82C193.023 214.82 186.748 213.449 182.036 211.045C177.282 208.621 174.392 205.308 174.392 201.52H172.392C172.392 206.442 176.132 210.279 181.128 212.827C186.166 215.396 192.761 216.82 199.132 216.82V214.82ZM174.392 201.52C174.392 199.6 175.029 198.01 176.107 196.904C177.18 195.803 178.764 195.11 180.802 195.11V193.11C178.29 193.11 176.168 193.977 174.675 195.508C173.185 197.035 172.392 199.15 172.392 201.52H174.392ZM180.802 195.11C183.28 195.11 184.743 196.026 185.828 197.393C186.985 198.85 187.713 200.806 188.62 203.006C189.495 205.13 190.526 207.437 192.313 209.192C194.147 210.994 196.692 212.14 200.432 212.14V210.14C197.152 210.14 195.131 209.157 193.715 207.766C192.251 206.328 191.348 204.378 190.469 202.244C189.621 200.186 188.773 197.885 187.394 196.149C185.945 194.323 183.914 193.11 180.802 193.11V195.11ZM200.432 212.14C204.202 212.14 207.705 211.301 210.296 209.509C212.927 207.688 214.562 204.916 214.562 201.26H212.562C212.562 204.234 211.271 206.402 209.158 207.864C207.004 209.354 203.942 210.14 200.432 210.14V212.14ZM214.562 201.26C214.562 197.869 213.098 195.098 210.417 192.856C207.775 190.645 203.947 188.939 199.148 187.559L198.595 189.481C203.286 190.831 206.804 192.44 209.134 194.389C211.425 196.307 212.562 198.541 212.562 201.26H214.562ZM199.125 187.553L193.665 186.123L193.159 188.057L198.619 189.487L199.125 187.553ZM193.663 186.122C183.36 183.451 175.952 176.955 175.952 167.2H173.952C173.952 178.245 182.404 185.269 193.161 188.058L193.663 186.122ZM175.952 167.2C175.952 161.423 178.518 156.773 182.832 153.537C187.169 150.285 193.313 148.44 200.432 148.44V146.44C192.991 146.44 186.395 148.365 181.632 151.938C176.845 155.527 173.952 160.757 173.952 167.2H175.952ZM200.432 148.44C205.793 148.44 211.335 149.4 215.499 151.232C219.719 153.088 222.182 155.664 222.182 158.75H224.182C224.182 154.426 220.73 151.347 216.305 149.401C211.823 147.43 205.991 146.44 200.432 146.44V148.44ZM222.182 158.75C222.182 160.837 221.588 162.351 220.64 163.339C219.697 164.321 218.29 164.9 216.422 164.9V166.9C218.714 166.9 220.687 166.179 222.083 164.724C223.475 163.274 224.182 161.213 224.182 158.75H222.182ZM216.422 164.9C213.986 164.9 212.646 164.128 211.705 163.049C210.683 161.877 210.086 160.316 209.258 158.47C208.462 156.698 207.478 154.753 205.664 153.278C203.824 151.782 201.25 150.86 197.442 150.86V152.86C200.914 152.86 203.004 153.693 204.402 154.83C205.825 155.987 206.653 157.552 207.433 159.29C208.181 160.954 208.925 162.903 210.198 164.363C211.553 165.917 213.463 166.9 216.422 166.9V164.9ZM197.442 150.86C194.082 150.86 191.088 151.785 188.911 153.495C186.715 155.219 185.392 157.713 185.392 160.7H187.392C187.392 158.357 188.409 156.431 190.146 155.068C191.901 153.69 194.432 152.86 197.442 152.86V150.86ZM185.392 160.7C185.392 163.592 186.253 166.146 188.514 168.298C190.726 170.404 194.201 172.051 199.27 173.368L199.773 171.432C194.833 170.149 191.743 168.611 189.893 166.849C188.091 165.134 187.392 163.138 187.392 160.7H185.392ZM199.269 173.367L204.729 174.797L205.235 172.863L199.775 171.433L199.269 173.367ZM204.731 174.798C211.421 176.535 216.428 178.851 219.758 182.058C223.049 185.227 224.782 189.343 224.782 194.89H226.782C226.782 188.867 224.875 184.208 221.146 180.617C217.456 177.064 212.063 174.635 205.233 172.862L204.731 174.798ZM224.782 194.89C224.782 201.348 221.693 206.293 216.948 209.658C212.177 213.041 205.728 214.82 199.132 214.82V216.82C206.055 216.82 212.931 214.959 218.105 211.289C223.306 207.602 226.782 202.082 226.782 194.89H224.782ZM262.475 188.52L262.752 187.559L262.74 187.556L262.729 187.553L262.475 188.52ZM257.015 187.09L257.269 186.123L257.266 186.122L257.015 187.09ZM263.125 172.4L263.379 171.433L263.377 171.432L263.125 172.4ZM268.585 173.83L268.332 174.797L268.334 174.798L268.585 173.83ZM262.735 214.82C256.626 214.82 250.352 213.449 245.64 211.045C240.885 208.621 237.995 205.308 237.995 201.52H235.995C235.995 206.442 239.735 210.279 244.731 212.827C249.769 215.396 256.365 216.82 262.735 216.82V214.82ZM237.995 201.52C237.995 199.6 238.632 198.01 239.71 196.904C240.784 195.803 242.367 195.11 244.405 195.11V193.11C241.893 193.11 239.772 193.977 238.278 195.508C236.789 197.035 235.995 199.15 235.995 201.52H237.995ZM244.405 195.11C246.883 195.11 248.346 196.026 249.432 197.393C250.588 198.85 251.317 200.806 252.223 203.006C253.099 205.13 254.13 207.437 255.916 209.192C257.75 210.994 260.295 212.14 264.035 212.14V210.14C260.756 210.14 258.734 209.157 257.318 207.766C255.855 206.328 254.952 204.378 254.072 202.244C253.224 200.186 252.376 197.885 250.998 196.149C249.548 194.323 247.517 193.11 244.405 193.11V195.11ZM264.035 212.14C267.806 212.14 271.308 211.301 273.899 209.509C276.531 207.688 278.165 204.916 278.165 201.26H276.165C276.165 204.234 274.875 206.402 272.761 207.864C270.608 209.354 267.545 210.14 264.035 210.14V212.14ZM278.165 201.26C278.165 197.869 276.702 195.098 274.021 192.856C271.378 190.645 267.551 188.939 262.752 187.559L262.199 189.481C266.89 190.831 270.407 192.44 272.737 194.389C275.029 196.307 276.165 198.541 276.165 201.26H278.165ZM262.729 187.553L257.269 186.123L256.762 188.057L262.222 189.487L262.729 187.553ZM257.266 186.122C246.963 183.451 239.555 176.955 239.555 167.2H237.555C237.555 178.245 246.008 185.269 256.764 188.058L257.266 186.122ZM239.555 167.2C239.555 161.423 242.122 156.773 246.435 153.537C250.773 150.285 256.916 148.44 264.035 148.44V146.44C256.594 146.44 249.998 148.365 245.235 151.938C240.449 155.527 237.555 160.757 237.555 167.2H239.555ZM264.035 148.44C269.396 148.44 274.939 149.4 279.103 151.232C283.322 153.088 285.785 155.664 285.785 158.75H287.785C287.785 154.426 284.334 151.347 279.908 149.401C275.427 147.43 269.595 146.44 264.035 146.44V148.44ZM285.785 158.75C285.785 160.837 285.192 162.351 284.244 163.339C283.301 164.321 281.894 164.9 280.025 164.9V166.9C282.317 166.9 284.29 166.179 285.687 164.724C287.079 163.274 287.785 161.213 287.785 158.75H285.785ZM280.025 164.9C277.589 164.9 276.249 164.128 275.309 163.049C274.287 161.877 273.69 160.316 272.861 158.47C272.066 156.698 271.081 154.753 269.267 153.278C267.427 151.782 264.854 150.86 261.045 150.86V152.86C264.517 152.86 266.607 153.693 268.005 154.83C269.429 155.987 270.256 157.552 271.037 159.29C271.785 160.954 272.528 162.903 273.802 164.363C275.156 165.917 277.066 166.9 280.025 166.9V164.9ZM261.045 150.86C257.685 150.86 254.691 151.785 252.514 153.495C250.319 155.219 248.995 157.713 248.995 160.7H250.995C250.995 158.357 252.012 156.431 253.749 155.068C255.504 153.69 258.035 152.86 261.045 152.86V150.86ZM248.995 160.7C248.995 163.592 249.856 166.146 252.117 168.298C254.329 170.404 257.805 172.051 262.874 173.368L263.377 171.432C258.436 170.149 255.347 168.611 253.496 166.849C251.694 165.134 250.995 163.138 250.995 160.7H248.995ZM262.872 173.367L268.332 174.797L268.839 172.863L263.379 171.433L262.872 173.367ZM268.334 174.798C275.024 176.535 280.032 178.851 283.362 182.058C286.653 185.227 288.385 189.343 288.385 194.89H290.385C290.385 188.867 288.478 184.208 284.749 180.617C281.059 177.064 275.667 174.635 268.837 172.862L268.334 174.798ZM288.385 194.89C288.385 201.348 285.297 206.293 280.552 209.658C275.781 213.041 269.332 214.82 262.735 214.82V216.82C269.659 216.82 276.535 214.959 281.709 211.289C286.909 207.602 290.385 202.082 290.385 194.89H288.385ZM322.699 149.39H323.699V148.39H322.699V149.39ZM322.699 214V215H323.699V214H322.699ZM305.799 214H304.799V215H305.799V214ZM305.799 149.39V148.39H304.799V149.39H305.799ZM305.239 122.48C305.239 117.425 309.228 113.34 314.249 113.34V111.34C308.09 111.34 303.239 116.355 303.239 122.48H305.239ZM314.249 113.34C319.287 113.34 323.389 117.442 323.389 122.48H325.389C325.389 116.338 320.391 111.34 314.249 111.34V113.34ZM323.389 122.48C323.389 127.501 319.304 131.49 314.249 131.49V133.49C320.374 133.49 325.389 128.639 325.389 122.48H323.389ZM314.249 131.49C309.211 131.49 305.239 127.518 305.239 122.48H303.239C303.239 128.622 308.107 133.49 314.249 133.49V131.49ZM321.699 149.39V214H323.699V149.39H321.699ZM322.699 213H305.799V215H322.699V213ZM306.799 214V149.39H304.799V214H306.799ZM305.799 150.39H322.699V148.39H305.799V150.39ZM408.52 181.89C408.52 191.518 405.009 199.736 399.024 205.548C393.038 211.361 384.522 214.82 374.42 214.82V216.82C384.988 216.82 394.021 213.194 400.418 206.982C406.816 200.769 410.52 192.022 410.52 181.89H408.52ZM374.42 214.82C364.251 214.82 355.702 211.36 349.7 205.547C343.701 199.735 340.19 191.518 340.19 181.89H338.19C338.19 192.022 341.894 200.77 348.309 206.983C354.722 213.195 363.788 216.82 374.42 216.82V214.82ZM340.19 181.89C340.19 172.262 343.701 164.045 349.7 158.233C355.702 152.42 364.251 148.96 374.42 148.96V146.96C363.788 146.96 354.722 150.585 348.309 156.797C341.894 163.01 338.19 171.758 338.19 181.89H340.19ZM374.42 148.96C384.522 148.96 393.038 152.419 399.024 158.232C405.009 164.044 408.52 172.262 408.52 181.89H410.52C410.52 171.758 406.816 163.011 400.418 156.798C394.021 150.586 384.988 146.96 374.42 146.96V148.96ZM392.45 181.89C392.45 173.353 391.041 165.854 388.103 160.45C385.141 155.001 380.583 151.64 374.42 151.64V153.64C379.697 153.64 383.654 156.454 386.346 161.405C389.063 166.402 390.45 173.527 390.45 181.89H392.45ZM374.42 151.64C368.257 151.64 363.699 155.001 360.736 160.45C357.798 165.854 356.39 173.353 356.39 181.89H358.39C358.39 173.527 359.776 166.402 362.493 161.405C365.185 156.454 369.143 153.64 374.42 153.64V151.64ZM356.39 181.89C356.39 190.427 357.798 197.926 360.736 203.33C363.699 208.779 368.257 212.14 374.42 212.14V210.14C369.143 210.14 365.185 207.326 362.493 202.375C359.776 197.378 358.39 190.253 358.39 181.89H356.39ZM374.42 212.14C380.583 212.14 385.141 208.779 388.103 203.33C391.041 197.926 392.45 190.427 392.45 181.89H390.45C390.45 190.253 389.063 197.378 386.346 202.375C383.654 207.326 379.697 210.14 374.42 210.14V212.14ZM442.924 167.2L441.999 166.82L441.924 167.003V167.2H442.924ZM442.924 214V215H443.924V214H442.924ZM426.024 214H425.024V215H426.024V214ZM426.024 149.39V148.39H425.024V149.39H426.024ZM442.924 149.39H443.924V148.39H442.924V149.39ZM442.924 167.2H441.924L443.904 167.394L442.924 167.2ZM486.474 214V215H487.474V214H486.474ZM469.574 214H468.574V215H469.574V214ZM457.614 156.32C454.419 156.32 451.301 157 448.574 158.678C445.839 160.362 443.564 163.007 441.999 166.82L443.849 167.58C445.273 164.113 447.288 161.818 449.623 160.382C451.966 158.94 454.699 158.32 457.614 158.32V156.32ZM441.924 167.2V214H443.924V167.2H441.924ZM442.924 213H426.024V215H442.924V213ZM427.024 214V149.39H425.024V214H427.024ZM426.024 150.39H442.924V148.39H426.024V150.39ZM441.924 149.39V167.2H443.924V149.39H441.924ZM443.904 167.394C445.166 161.021 447.954 156.434 451.676 153.435C455.401 150.433 460.141 148.96 465.414 148.96V146.96C459.766 146.96 454.561 148.542 450.421 151.878C446.278 155.216 443.281 160.249 441.943 167.006L443.904 167.394ZM465.414 148.96C473.404 148.96 478.334 151.74 481.315 156.008C484.343 160.343 485.474 166.37 485.474 173.05H487.474C487.474 166.21 486.329 159.692 482.955 154.862C479.533 149.965 473.933 146.96 465.414 146.96V148.96ZM485.474 173.05V214H487.474V173.05H485.474ZM486.474 213H469.574V215H486.474V213ZM470.574 214V173.96H468.574V214H470.574ZM470.574 173.96C470.574 167.667 469.252 163.241 466.902 160.375C464.523 157.473 461.216 156.32 457.614 156.32V158.32C460.771 158.32 463.444 159.312 465.355 161.643C467.295 164.009 468.574 167.903 468.574 173.96H470.574Z" fill="black" fill-opacity="0.5"/>
</svg>
