<svg width="433" height="245" viewBox="0 0 433 245" fill="none" xmlns="http://www.w3.org/2000/svg">
<path d="M53.86 7.97V6.97H52.86V7.97H53.86ZM53.86 103V104H54.86V103H53.86ZM35.4 103H34.4V104H35.4V103ZM35.4 7.97H36.4V6.97H35.4V7.97ZM0.56 7.97H-0.44L-0.44 8.97H0.56V7.97ZM0.56 0.689992V-0.310008H-0.44V0.689992H0.56ZM88.7 0.689992H89.7V-0.310008H88.7V0.689992ZM88.7 7.97V8.97H89.7V7.97H88.7ZM52.86 7.97V103H54.86V7.97H52.86ZM53.86 102H35.4V104H53.86V102ZM36.4 103V7.97H34.4V103H36.4ZM35.4 6.97L0.56 6.97V8.97H35.4V6.97ZM1.56 7.97V0.689992H-0.44L-0.44 7.97H1.56ZM0.56 1.68999L88.7 1.68999V-0.310008L0.56 -0.310008V1.68999ZM87.7 0.689992V7.97H89.7V0.689992H87.7ZM88.7 6.97L53.86 6.97V8.97L88.7 8.97V6.97ZM112.767 56.2L111.842 55.8201L111.767 56.0026V56.2H112.767ZM112.767 103V104H113.767V103H112.767ZM95.8673 103H94.8673V104H95.8673V103ZM95.8673 0.689992V-0.310008H94.8673V0.689992H95.8673ZM112.767 0.689992H113.767V-0.310008H112.767V0.689992ZM112.767 56.2H111.767L113.748 56.3942L112.767 56.2ZM156.317 103V104H157.317V103H156.317ZM139.417 103H138.417V104H139.417V103ZM127.457 45.06C124.246 45.06 121.126 45.8126 118.403 47.5581C115.675 49.3067 113.406 52.0134 111.842 55.8201L113.692 56.5799C115.119 53.1066 117.14 50.7433 119.482 49.2419C121.829 47.7374 124.559 47.06 127.457 47.06V45.06ZM111.767 56.2V103H113.767V56.2H111.767ZM112.767 102H95.8673V104H112.767V102ZM96.8673 103V0.689992H94.8673V103H96.8673ZM95.8673 1.68999L112.767 1.68999V-0.310008L95.8673 -0.310008V1.68999ZM111.767 0.689992V56.2H113.767V0.689992H111.767ZM113.748 56.3942C115.01 50.0213 117.798 45.4337 121.52 42.4349C125.245 39.433 129.985 37.96 135.257 37.96V35.96C129.61 35.96 124.404 37.542 120.265 40.8776C116.121 44.2163 113.124 49.2487 111.786 56.0057L113.748 56.3942ZM135.257 37.96C143.248 37.96 148.178 40.7402 151.159 45.0077C154.187 49.3427 155.317 55.3698 155.317 62.05H157.317C157.317 55.2102 156.172 48.6923 152.798 43.8623C149.377 38.9648 143.777 35.96 135.257 35.96V37.96ZM155.317 62.05V103H157.317V62.05H155.317ZM156.317 102H139.417V104H156.317V102ZM140.417 103V62.96H138.417V103H140.417ZM140.417 62.96C140.417 56.6662 139.095 52.1819 136.753 49.2541C134.382 46.29 131.077 45.06 127.457 45.06V47.06C130.597 47.06 133.273 48.105 135.191 50.5034C137.139 52.9381 138.417 56.9038 138.417 62.96H140.417ZM189.743 58.54L188.755 58.3808L188.568 59.54H189.743V58.54ZM216.262 58.54V59.54H217.275L217.262 58.5273L216.262 58.54ZM232.253 80.38L232.569 79.4313L231.624 79.1163L231.305 80.0602L232.253 80.38ZM234.202 81.03L235.167 81.2957L235.419 80.3813L234.519 80.0813L234.202 81.03ZM233.812 63.48V64.48H234.836L234.812 63.4571L233.812 63.48ZM189.223 63.48V62.48H188.302L188.226 63.397L189.223 63.48ZM204.693 40.12C200.536 40.12 197.003 41.5539 194.275 44.6332C191.581 47.6751 189.746 52.24 188.755 58.3808L190.73 58.6992C191.689 52.75 193.429 48.6049 195.772 45.9593C198.082 43.3511 201.049 42.12 204.693 42.12V40.12ZM189.743 59.54H216.262V57.54H189.743V59.54ZM217.262 58.5273C217.197 53.3255 216.377 48.7606 214.407 45.4656C212.39 42.0924 209.204 40.12 204.693 40.12V42.12C208.501 42.12 211.035 43.7226 212.69 46.4919C214.393 49.3394 215.198 53.4845 215.263 58.5527L217.262 58.5273ZM231.936 81.3287L233.886 81.9787L234.519 80.0813L232.569 79.4313L231.936 81.3287ZM233.238 80.7643C231.004 88.8739 227.425 94.6133 222.712 98.3311C218.003 102.045 212.062 103.82 204.952 103.82V105.82C212.403 105.82 218.812 103.955 223.951 99.9014C229.085 95.8517 232.851 89.6961 235.167 81.2957L233.238 80.7643ZM204.952 103.82C195.236 103.82 187.049 100.553 181.296 94.8781C175.544 89.2048 172.152 81.0543 172.152 71.15H170.152C170.152 81.5257 173.716 90.2103 179.892 96.3019C186.066 102.392 194.779 105.82 204.952 105.82V103.82ZM172.152 71.15C172.152 52.0773 186.52 37.96 205.342 37.96V35.96C185.425 35.96 170.152 50.9627 170.152 71.15H172.152ZM205.342 37.96C212.944 37.96 219.716 40.2713 224.621 44.5847C229.513 48.8865 232.624 55.244 232.813 63.5029L234.812 63.4571C234.611 54.686 231.287 47.7835 225.942 43.0828C220.609 38.3937 213.341 35.96 205.342 35.96V37.96ZM233.812 62.48H189.223V64.48H233.812V62.48ZM188.226 63.397C188.092 65.0061 188.092 66.6093 188.092 68.55H190.092C190.092 66.5907 190.093 65.0739 190.219 63.563L188.226 63.397ZM188.092 68.55C188.092 75.8275 189.71 82.8505 193.481 88.0822C197.285 93.3601 203.216 96.72 211.583 96.72V94.72C203.829 94.72 198.515 91.6449 195.104 86.9128C191.66 82.1345 190.092 75.5725 190.092 68.55H188.092ZM211.583 96.72C216.504 96.72 221.005 95.4371 224.742 92.7632C228.48 90.0886 231.388 86.0678 233.2 80.6998L231.305 80.0602C229.607 85.0922 226.925 88.7414 223.578 91.1368C220.23 93.5329 216.151 94.72 211.583 94.72V96.72ZM26.82 148.39H27.82V147.39H26.82V148.39ZM26.82 244.46V245.46H27.82V244.46H26.82ZM9.92 244.46H8.92V245.46H9.92V244.46ZM9.92 148.39V147.39H8.92V148.39H9.92ZM26.82 202.6L27.4768 201.846L25.9288 203.054L26.82 202.6ZM26.82 159.05L25.9358 158.583L27.4768 159.804L26.82 159.05ZM25.82 148.39L25.82 244.46H27.82L27.82 148.39H25.82ZM26.82 243.46H9.92V245.46H26.82V243.46ZM10.92 244.46L10.92 148.39H8.92L8.92 244.46H10.92ZM9.92 149.39H26.82V147.39H9.92V149.39ZM77.17 180.89C77.17 190.818 74.0224 199.045 68.7101 204.78C63.4029 210.51 55.8751 213.82 46.97 213.82V215.82C56.3949 215.82 64.4671 212.305 70.1774 206.14C75.8826 199.98 79.17 191.242 79.17 180.89H77.17ZM46.97 213.82C42.0073 213.82 38.0749 212.598 34.9568 210.555C31.8332 208.508 29.4698 205.601 27.7112 202.146L25.9288 203.054C27.8102 206.749 30.3868 209.952 33.8607 212.228C37.3401 214.507 41.6627 215.82 46.97 215.82V213.82ZM26.1632 203.354C30.3794 207.026 34.514 208.41 39.43 208.41V206.41C34.986 206.41 31.3206 205.194 27.4768 201.846L26.1632 203.354ZM39.43 208.41C52.281 208.41 61.23 196.807 61.23 180.89H59.23C59.23 196.173 50.759 206.41 39.43 206.41V208.41ZM61.23 180.89C61.23 164.973 52.281 153.37 39.43 153.37V155.37C50.759 155.37 59.23 165.607 59.23 180.89H61.23ZM39.43 153.37C34.5344 153.37 30.3939 154.611 26.1632 158.296L27.4768 159.804C31.3061 156.469 34.9656 155.37 39.43 155.37V153.37ZM27.7042 159.517C31.1992 152.902 37.1274 147.96 46.97 147.96V145.96C36.2726 145.96 29.7208 151.418 25.9358 158.583L27.7042 159.517ZM46.97 147.96C55.878 147.96 63.4053 151.239 68.711 156.952C74.0217 162.67 77.17 170.896 77.17 180.89H79.17C79.17 170.474 75.8833 161.735 70.1765 155.591C64.4647 149.441 56.3921 145.96 46.97 145.96V147.96ZM108.619 168.54L107.632 168.381L107.445 169.54H108.619V168.54ZM135.139 168.54V169.54H136.152L136.139 168.527L135.139 168.54ZM151.129 190.38L151.446 189.431L150.501 189.116L150.182 190.06L151.129 190.38ZM153.079 191.03L154.044 191.296L154.296 190.381L153.396 190.081L153.079 191.03ZM152.689 173.48V174.48H153.713L153.689 173.457L152.689 173.48ZM108.099 173.48V172.48H107.179L107.103 173.397L108.099 173.48ZM123.569 150.12C119.413 150.12 115.88 151.554 113.152 154.633C110.458 157.675 108.623 162.24 107.632 168.381L109.607 168.699C110.566 162.75 112.306 158.605 114.649 155.959C116.959 153.351 119.926 152.12 123.569 152.12V150.12ZM108.619 169.54H135.139V167.54H108.619V169.54ZM136.139 168.527C136.074 163.326 135.254 158.761 133.284 155.466C131.267 152.092 128.081 150.12 123.569 150.12V152.12C127.378 152.12 129.912 153.723 131.567 156.492C133.27 159.339 134.075 163.484 134.14 168.553L136.139 168.527ZM150.813 191.329L152.763 191.979L153.396 190.081L151.446 189.431L150.813 191.329ZM152.115 190.764C149.88 198.874 146.302 204.613 141.589 208.331C136.88 212.045 130.939 213.82 123.829 213.82L123.829 215.82C131.28 215.82 137.689 213.955 142.828 209.901C147.962 205.852 151.728 199.696 154.044 191.296L152.115 190.764ZM123.829 213.82C114.113 213.82 105.926 210.553 100.173 204.878C94.4213 199.205 91.0295 191.054 91.0295 181.15H89.0295C89.0295 191.526 92.5926 200.21 98.7685 206.302C104.942 212.392 113.656 215.82 123.829 215.82L123.829 213.82ZM91.0295 181.15C91.0295 162.077 105.397 147.96 124.219 147.96V145.96C104.302 145.96 89.0295 160.963 89.0295 181.15H91.0295ZM124.219 147.96C131.821 147.96 138.593 150.271 143.498 154.585C148.39 158.887 151.501 165.244 151.69 173.503L153.689 173.457C153.488 164.686 150.164 157.783 144.819 153.083C139.486 148.394 132.218 145.96 124.219 145.96V147.96ZM152.689 172.48H108.099V174.48H152.689V172.48ZM107.103 173.397C106.969 175.006 106.969 176.609 106.969 178.55H108.969C108.969 176.591 108.97 175.074 109.096 173.563L107.103 173.397ZM106.969 178.55C106.969 185.828 108.587 192.85 112.358 198.082C116.162 203.36 122.093 206.72 130.459 206.72V204.72C122.706 204.72 117.392 201.645 113.981 196.913C110.537 192.135 108.969 185.572 108.969 178.55H106.969ZM130.459 206.72C135.381 206.72 139.882 205.437 143.619 202.763C147.357 200.089 150.265 196.068 152.077 190.7L150.182 190.06C148.484 195.092 145.802 198.741 142.455 201.137C139.107 203.533 135.028 204.72 130.459 204.72V206.72ZM233.627 180.89C233.627 190.518 230.116 198.736 224.132 204.548C218.146 210.361 209.629 213.82 199.527 213.82V215.82C210.095 215.82 219.128 212.194 225.525 205.982C231.923 199.769 235.627 191.022 235.627 180.89H233.627ZM199.527 213.82C189.358 213.82 180.809 210.36 174.808 204.547C168.808 198.735 165.297 190.518 165.297 180.89H163.297C163.297 191.022 167.001 199.77 173.416 205.983C179.83 212.195 188.896 215.82 199.527 215.82V213.82ZM165.297 180.89C165.297 171.262 168.808 163.045 174.808 157.233C180.809 151.42 189.358 147.96 199.527 147.96V145.96C188.896 145.96 179.83 149.585 173.416 155.797C167.001 162.01 163.297 170.758 163.297 180.89H165.297ZM199.527 147.96C209.629 147.96 218.146 151.419 224.132 157.232C230.116 163.044 233.627 171.262 233.627 180.89H235.627C235.627 170.758 231.923 162.011 225.525 155.798C219.128 149.586 210.095 145.96 199.527 145.96V147.96ZM217.557 180.89C217.557 172.353 216.149 164.854 213.211 159.45C210.248 154.001 205.69 150.64 199.527 150.64V152.64C204.804 152.64 208.761 155.454 211.454 160.405C214.17 165.402 215.557 172.527 215.557 180.89H217.557ZM199.527 150.64C193.364 150.64 188.806 154.001 185.844 159.45C182.905 164.854 181.497 172.353 181.497 180.89H183.497C183.497 172.527 184.884 165.402 187.601 160.405C190.293 155.454 194.25 152.64 199.527 152.64V150.64ZM181.497 180.89C181.497 189.427 182.905 196.926 185.844 202.33C188.806 207.779 193.364 211.14 199.527 211.14V209.14C194.25 209.14 190.293 206.326 187.601 201.375C184.884 196.378 183.497 189.253 183.497 180.89H181.497ZM199.527 211.14C205.69 211.14 210.248 207.779 213.211 202.33C216.149 196.926 217.557 189.427 217.557 180.89H215.557C215.557 189.253 214.17 196.378 211.454 201.375C208.761 206.326 204.804 209.14 199.527 209.14V211.14ZM268.031 148.39H269.031V147.39H268.031V148.39ZM268.031 244.46V245.46H269.031V244.46H268.031ZM251.131 244.46H250.131V245.46H251.131V244.46ZM251.131 148.39V147.39H250.131V148.39H251.131ZM268.031 202.6L268.688 201.846L267.14 203.054L268.031 202.6ZM268.031 159.05L267.147 158.583L268.688 159.804L268.031 159.05ZM267.031 148.39V244.46H269.031V148.39H267.031ZM268.031 243.46H251.131V245.46H268.031V243.46ZM252.131 244.46V148.39H250.131V244.46H252.131ZM251.131 149.39H268.031V147.39H251.131V149.39ZM318.381 180.89C318.381 190.818 315.233 199.045 309.921 204.78C304.614 210.51 297.086 213.82 288.181 213.82V215.82C297.606 215.82 305.678 212.305 311.388 206.14C317.094 199.98 320.381 191.242 320.381 180.89H318.381ZM288.181 213.82C283.218 213.82 279.286 212.598 276.168 210.555C273.044 208.508 270.681 205.601 268.922 202.146L267.14 203.054C269.021 206.749 271.598 209.952 275.072 212.228C278.551 214.507 282.874 215.82 288.181 215.82V213.82ZM267.374 203.354C271.59 207.026 275.725 208.41 280.641 208.41V206.41C276.197 206.41 272.532 205.194 268.688 201.846L267.374 203.354ZM280.641 208.41C293.492 208.41 302.441 196.807 302.441 180.89H300.441C300.441 196.173 291.97 206.41 280.641 206.41V208.41ZM302.441 180.89C302.441 164.973 293.492 153.37 280.641 153.37V155.37C291.97 155.37 300.441 165.607 300.441 180.89H302.441ZM280.641 153.37C275.745 153.37 271.605 154.611 267.374 158.296L268.688 159.804C272.517 156.469 276.177 155.37 280.641 155.37V153.37ZM268.915 159.517C272.41 152.902 278.338 147.96 288.181 147.96V145.96C277.483 145.96 270.932 151.418 267.147 158.583L268.915 159.517ZM288.181 147.96C297.089 147.96 304.616 151.239 309.922 156.952C315.233 162.67 318.381 170.896 318.381 180.89H320.381C320.381 170.474 317.094 161.735 311.387 155.591C305.676 149.441 297.603 145.96 288.181 145.96V147.96ZM352.836 110.69H353.836V109.69H352.836V110.69ZM352.836 213V214H353.836V213H352.836ZM335.936 213H334.936V214H335.936V213ZM335.936 110.69V109.69H334.936V110.69H335.936ZM351.836 110.69V213H353.836V110.69H351.836ZM352.836 212H335.936V214H352.836V212ZM336.936 213V110.69H334.936V213H336.936ZM335.936 111.69H352.836V109.69H335.936V111.69ZM387.916 168.54L386.929 168.381L386.742 169.54H387.916V168.54ZM414.436 168.54V169.54H415.449L415.436 168.527L414.436 168.54ZM430.426 190.38L430.743 189.431L429.797 189.116L429.479 190.06L430.426 190.38ZM432.376 191.03L433.34 191.296L433.592 190.381L432.693 190.081L432.376 191.03ZM431.986 173.48V174.48H433.009L432.986 173.457L431.986 173.48ZM387.396 173.48V172.48H386.476L386.4 173.397L387.396 173.48ZM402.866 150.12C398.71 150.12 395.176 151.554 392.449 154.633C389.755 157.675 387.92 162.24 386.929 168.381L388.904 168.699C389.863 162.75 391.603 158.605 393.946 155.959C396.256 153.351 399.223 152.12 402.866 152.12V150.12ZM387.916 169.54H414.436V167.54H387.916V169.54ZM415.436 168.527C415.37 163.326 414.551 158.761 412.581 155.466C410.564 152.092 407.378 150.12 402.866 150.12V152.12C406.674 152.12 409.209 153.723 410.864 156.492C412.567 159.339 413.372 163.484 413.436 168.553L415.436 168.527ZM430.11 191.329L432.06 191.979L432.693 190.081L430.743 189.431L430.11 191.329ZM431.412 190.764C429.177 198.874 425.599 204.613 420.886 208.331C416.177 212.045 410.236 213.82 403.126 213.82V215.82C410.577 215.82 416.986 213.955 422.124 209.901C427.259 205.852 431.025 199.696 433.34 191.296L431.412 190.764ZM403.126 213.82C393.41 213.82 385.223 210.553 379.47 204.878C373.718 199.205 370.326 191.054 370.326 181.15H368.326C368.326 191.526 371.889 200.21 378.065 206.302C384.239 212.392 392.953 215.82 403.126 215.82V213.82ZM370.326 181.15C370.326 162.077 384.694 147.96 403.516 147.96V145.96C383.599 145.96 368.326 160.963 368.326 181.15H370.326ZM403.516 147.96C411.118 147.96 417.89 150.271 422.795 154.585C427.687 158.887 430.797 165.244 430.987 173.503L432.986 173.457C432.785 164.686 429.461 157.783 424.115 153.083C418.783 148.394 411.515 145.96 403.516 145.96V147.96ZM431.986 172.48L387.396 172.48V174.48L431.986 174.48V172.48ZM386.4 173.397C386.266 175.006 386.266 176.609 386.266 178.55H388.266C388.266 176.591 388.267 175.074 388.393 173.563L386.4 173.397ZM386.266 178.55C386.266 185.828 387.884 192.85 391.655 198.082C395.459 203.36 401.39 206.72 409.756 206.72V204.72C402.003 204.72 396.688 201.645 393.278 196.913C389.833 192.135 388.266 185.572 388.266 178.55H386.266ZM409.756 206.72C414.678 206.72 419.179 205.437 422.916 202.763C426.653 200.089 429.562 196.068 431.374 190.7L429.479 190.06C427.781 195.092 425.099 198.741 421.752 201.137C418.403 203.533 414.325 204.72 409.756 204.72V206.72Z" fill="black" fill-opacity="0.3"/>
</svg>
