<svg width="35" height="34" viewBox="0 0 35 34" fill="none" xmlns="http://www.w3.org/2000/svg">
<path d="M23.4358 2.8335H11.5641C6.40748 2.8335 3.33331 5.90766 3.33331 11.0643V22.9218C3.33331 28.0927 6.40748 31.1668 11.5641 31.1668H23.4216C28.5783 31.1668 31.6525 28.0927 31.6525 22.936V11.0643C31.6666 5.90766 28.5925 2.8335 23.4358 2.8335ZM21.4525 23.5168C21.24 23.786 20.9283 23.9277 20.6166 23.9277C20.39 23.9277 20.1633 23.8568 19.965 23.701C18.4633 22.5393 16.5225 22.5393 15.0208 23.701C14.5533 24.0552 13.8875 23.9702 13.5333 23.5168C13.1791 23.0493 13.2641 22.3835 13.7175 22.0293C15.97 20.2868 19.0016 20.2868 21.2541 22.0293C21.7358 22.3835 21.8208 23.0493 21.4525 23.5168ZM24.5833 19.1393C24.3708 19.4085 24.0591 19.5502 23.7475 19.5502C23.5208 19.5502 23.2941 19.4793 23.0958 19.3235C19.6958 16.7027 15.3183 16.7027 11.9183 19.3235C11.4508 19.6918 10.785 19.6068 10.4166 19.1393C10.0483 18.6718 10.1475 18.006 10.6008 17.6518C14.78 14.4218 20.1916 14.4218 24.3708 17.6518C24.8525 18.006 24.9375 18.6718 24.5833 19.1393ZM26.8358 14.7618C26.6233 15.031 26.3116 15.1727 26 15.1727C25.7733 15.1727 25.5466 15.1018 25.3483 14.946C20.5741 11.2627 14.4116 11.2627 9.65165 14.946C9.18415 15.3002 8.51831 15.2152 8.16415 14.7618C7.80998 14.2943 7.89498 13.6285 8.34831 13.2743C13.9016 8.98183 21.0841 8.98183 26.6516 13.2743C27.1191 13.6285 27.2041 14.2943 26.8358 14.7618Z" fill="white"/>
</svg>
